SplineFontDB: 3.0
FontName: BenchTwelve-Black
FullName: BenchTwelve Black
FamilyName: BenchTwelve
Weight: Black
Copyright: vernon adams (c) 2012
Version: 1
ItalicAngle: 0
UnderlinePosition: 0
UnderlineWidth: 0
Ascent: 1638
Descent: 410
sfntRevision: 0x00010000
LayerCount: 2
Layer: 0 1 "Back"  1
Layer: 1 1 "Fore"  0
XUID: [1021 332 1330122705 9474400]
FSType: 0
OS2Version: 4
OS2_WeightWidthSlopeOnly: 1
OS2_UseTypoMetrics: 1
CreationTime: 1342436392
ModificationTime: 1348247152
PfmFamily: 17
TTFWeight: 900
TTFWidth: 6
LineGap: 0
VLineGap: 0
Panose: 2 0 10 3 0 0 0 0 0 0
OS2TypoAscent: 3658
OS2TypoAOffset: 0
OS2TypoDescent: -1130
OS2TypoDOffset: 0
OS2TypoLinegap: 0
OS2WinAscent: 2020
OS2WinAOffset: 0
OS2WinDescent: 720
OS2WinDOffset: 0
HheadAscent: 4183
HheadAOffset: 0
HheadDescent: -1452
HheadDOffset: 0
OS2SubXSize: 1331
OS2SubYSize: 1433
OS2SubXOff: 0
OS2SubYOff: 286
OS2SupXSize: 1331
OS2SupYSize: 1433
OS2SupXOff: 0
OS2SupYOff: 983
OS2StrikeYSize: 102
OS2StrikeYPos: 530
OS2Vendor: 'newt'
OS2CodePages: 00000093.00000000
OS2UnicodeRanges: a00000ef.4000004a.00000000.00000000
Lookup: 4 0 1 "'liga' Standard Ligatures lookup 0"  {"'liga' Standard Ligatures lookup 0 subtable"  } ['liga' ('DFLT' <'dflt' > 'grek' <'dflt' > 'latn' <'dflt' > ) ]
Lookup: 258 0 0 "'kern' Horizontal Kerning in Latin lookup 0"  {"'kern' Horizontal Kerning in Latin lookup 0 per glyph data 0"  "'kern' Horizontal Kerning in Latin lookup 0 kerning class 1"  } ['kern' ('DFLT' <'dflt' > 'latn' <'dflt' > ) ]
Lookup: 260 0 0 "'mark' Mark Positioning lookup 1"  {"'mark' Mark Positioning lookup 1 subtable"  } ['mark' ('DFLT' <'dflt' > 'grek' <'dflt' > 'latn' <'dflt' > ) ]
MarkAttachClasses: 1
DEI: 91125
KernClass2: 33 27 "'kern' Horizontal Kerning in Latin lookup 0 kerning class 1" 
 89 A Agrave Aacute Acircumflex Atilde Adieresis Aring Amacron Abreve Aogonek uni0200 uni0202
 1 B
 1 C
 111 D O Q Eth Ograve Oacute Ocircumflex Otilde Odieresis Oslash Dcaron Omacron Obreve Ohungarumlaut uni020C uni020E
 1 F

StartChar: .notdef
Encoding: 65536 -1 0
Width: 748
Flags: W
LayerCount: 2
Fore
SplineSet
136 68 m 1,0,-1
 544 68 l 1,1,-1
 544 1297 l 1,2,-1
 136 1297 l 1,3,-1
 136 68 l 1,0,-1
68 0 m 1,4,-1
 68 1365 l 1,5,-1
 612 1365 l 1,6,-1
 612 0 l 1,7,-1
 68 0 l 1,4,-1
EndSplineSet
EndChar

StartChar: exclam
Encoding: 33 33 4
Width: 853
GlyphClass: 2
Flags: W
LayerCount: 2
Fore
SplineSet
225 0 m 2,0,1
 193 0 193 0 171 22 c 128,-1,2
 149 44 149 44 149 76 c 2,3,-1
 149 287 l 2,4,5
 149 319 149 319 171 341 c 128,-1,6
 193 363 193 363 225 363 c 2,7,-1
 626 363 l 2,8,9
 658 363 658 363 680 341 c 128,-1,10
 702 319 702 319 702 287 c 2,11,-1
 702 76 l 2,12,13
 702 44 702 44 680 22 c 128,-1,14
 658 0 658 0 626 0 c 2,15,-1
 225 0 l 2,0,1
357 515 m 2,16,17
 297 515 297 515 284 591 c 1,18,-1
 155 1446 l 1,19,20
 155 1478 155 1478 177 1499.5 c 128,-1,21
 199 1521 199 1521 231 1521 c 2,22,-1
 629 1521 l 2,23,24
 661 1521 661 1521 683 1497.5 c 128,-1,25
 705 1474 705 1474 704 1442 c 1,26,-1
 576 591 l 2,27,28
 564.823529412 515 564.823529412 515 504 515 c 2,29,-1
 357 515 l 2,16,17
EndSplineSet
EndChar

StartChar: quotedbl
Encoding: 34 34 5
Width: 1323
GlyphClass: 2
Flags: W
LayerCount: 2
Fore
SplineSet
317 689 m 2,0,1
 257.235294118 689 257.235294118 689 244 764 c 2,2,-1
 115 1443 l 1,3,4
 114 1475 114 1475 136.5 1498 c 128,-1,5
 159 1521 159 1521 191 1521 c 2,6,-1
 521 1521 l 2,7,8
 553 1521 553 1521 575 1498 c 128,-1,9
 597 1475 597 1475 596 1443 c 1,10,-1
 468 764 l 1,11,12
 456.970588235 689 456.970588235 689 396 689 c 2,13,-1
 317 689 l 2,0,1
923 689 m 2,14,15
 863.235294118 689 863.235294118 689 850 764 c 2,16,-1
 721 1443 l 1,17,18
 720 1475 720 1475 742 1498 c 128,-1,19
 764 1521 764 1521 796 1521 c 2,20,-1
 1127 1521 l 2,21,22
 1159 1521 1159 1521 1181 1498 c 128,-1,23
 1203 1475 1203 1475 1202 1443 c 1,24,-1
 1074 764 l 1,25,26
 1062 689 1062 689 1002 689 c 2,27,-1
 923 689 l 2,14,15
EndSplineSet
EndChar

StartChar: numbersign
Encoding: 35 35 6
Width: 1824
GlyphClass: 2
Flags: W
LayerCount: 2
Fore
SplineSet
1609 426 m 2,0,1
 1609 369 1609 369 1542 369 c 2,2,-1
 1298 369 l 1,3,-1
 1172 -170 l 1,4,5
 1159 -205 1159 -205 1122 -205 c 2,6,-1
 915 -205 l 2,7,8
 902 -205 902 -205 894 -194 c 128,-1,9
 886 -183 886 -183 891 -170 c 1,10,-1
 1017 369 l 1,11,-1
 643 369 l 1,12,-1
 517 -170 l 1,13,14
 504 -205 504 -205 467 -205 c 2,15,-1
 260 -205 l 2,16,17
 247 -205 247 -205 239 -194 c 128,-1,18
 231 -183 231 -183 236 -170 c 1,19,-1
 362 369 l 1,20,-1
 205 369 l 2,21,22
 138 369 138 369 138 426 c 2,23,-1
 138 523 l 2,24,25
 138 580 138 580 205 580 c 2,26,-1
 411 580 l 1,27,-1
 461 793 l 1,28,-1
 280 793 l 2,29,30
 213 793 213 793 213 850 c 2,31,-1
 213 949 l 2,32,33
 213 1006 213 1006 280 1006 c 2,34,-1
 511 1006 l 1,35,-1
 653 1612 l 1,36,37
 666 1647 666 1647 703 1647 c 2,38,-1
 910 1647 l 2,39,40
 923 1647 923 1647 931 1636 c 128,-1,41
 939 1625 939 1625 934 1612 c 1,42,-1
 792 1006 l 1,43,-1
 1166 1006 l 1,44,-1
 1308 1612 l 1,45,46
 1321 1647 1321 1647 1358 1647 c 2,47,-1
 1565 1647 l 2,48,49
 1578 1647 1578 1647 1586 1636 c 128,-1,50
 1594 1625 1594 1625 1589 1612 c 1,51,-1
 1447 1006 l 1,52,-1
 1617 1006 l 2,53,54
 1684 1006 1684 1006 1684 949 c 2,55,-1
 1684 850 l 2,56,57
 1684 793 1684 793 1617 793 c 2,58,-1
 1397 793 l 1,59,-1
 1347 580 l 1,60,-1
 1542 580 l 2,61,62
 1609 580 1609 580 1609 523 c 2,63,-1
 1609 426 l 2,0,1
692 580 m 1,64,-1
 1066 580 l 1,65,-1
 1116 793 l 1,66,-1
 742 793 l 1,67,-1
 692 580 l 1,64,-1
EndSplineSet
EndChar

StartChar: dollar
Encoding: 36 36 7
Width: 2529
GlyphClass: 2
Flags: W
LayerCount: 2
Fore
SplineSet
2052 1062 m 0,0,1
 2025.27272727 1013 2025.27272727 1013 1973 1013 c 0,2,3
 1970 1013 1970 1013 1967 1013 c 128,-1,4
 1964 1013 1964 1013 1961 1013.5 c 0,5,6
 1952 1015 1952 1015 1949 1016 c 0,7,8
 1656 1109 1656 1109 1296 1122 c 1,9,-1
 1296 923 l 1,10,11
 1609.59615385 909.365384615 1609.59615385 909.365384615 1726.79807692 888.682692308 c 128,-1,12
 1844 868 1844 868 1916 848.5 c 128,-1,13
 1988 829 1988 829 2041.5 804.5 c 128,-1,14
 2095 780 2095 780 2144.5 746 c 128,-1,15
 2194 712 2194 712 2225 670 c 0,16,17
 2293 577.870967742 2293 577.870967742 2293 456 c 0,18,19
 2293 284 2293 284 2196 179 c 128,-1,20
 2099 74 2099 74 1881 20.5 c 128,-1,21
 1663 -33 1663 -33 1296 -40 c 1,22,-1
 1296 -117 l 2,23,24
 1296 -151 1296 -151 1286 -174 c 128,-1,25
 1276 -197 1276 -197 1262 -197 c 2,26,-1
 1198 -197 l 2,27,28
 1184 -197 1184 -197 1174 -174 c 128,-1,29
 1164 -151 1164 -151 1164 -117 c 2,30,-1
 1164 -41 l 1,31,32
 594.541436464 -38.9064023399 594.541436464 -38.9064023399 197 105 c 0,33,34
 152 121.071428571 152 121.071428571 152 171 c 0,35,36
 152 181 152 181 154.5 189 c 128,-1,37
 157 197 157 197 250 397 c 0,38,39
 272.866666667 446 272.866666667 446 327 446 c 1,40,41
 338 446 338 446 350 443 c 0,42,43
 750.540378863 327.692921236 750.540378863 327.692921236 1164 317 c 1,44,-1
 1164 523 l 1,45,46
 719.666666667 546.385964912 719.666666667 546.385964912 545 593.5 c 0,47,48
 341.845860894 648.298155943 341.845860894 648.298155943 259 728.5 c 0,49,50
 151 833.053191489 151 833.053191489 151 989 c 0,51,52
 151 1252.04516129 151 1252.04516129 385.5 1364 c 0,53,54
 578.292772187 1456.04300091 578.292772187 1456.04300091 941 1471 c 0,55,56
 1038 1475 1038 1475 1164 1475 c 1,57,-1
 1164 1563 l 2,58,59
 1164 1598 1164 1598 1174 1620.5 c 128,-1,60
 1184 1643 1184 1643 1198 1643 c 2,61,-1
 1262 1643 l 2,62,63
 1276 1643 1276 1643 1286 1620.5 c 128,-1,64
 1296 1598 1296 1598 1296 1563 c 2,65,-1
 1296 1472 l 1,66,67
 1776 1457 1776 1457 2101 1331 c 0,68,69
 2144 1314.46153846 2144 1314.46153846 2144 1265 c 0,70,71
 2144 1251 2144 1251 2139 1239 c 2,72,-1
 2096 1151 l 2,73,74
 2052 1063 2052 1063 2052 1062 c 0,0,1
1296 315 m 1,75,-1
 1313 315 l 1,76,77
 1433 316 1433 316 1494.5 338 c 128,-1,78
 1556 360 1556 360 1556 413 c 128,-1,79
 1556 466 1556 466 1496.5 490 c 128,-1,80
 1437 514 1437 514 1296 516 c 1,81,-1
 1296 315 l 1,75,-1
1164 931 m 1,82,-1
 1164 1124 l 1,83,84
 1018 1124 1018 1124 938 1105 c 128,-1,85
 858 1086 858 1086 858 1036.5 c 128,-1,86
 858 987 858 987 920.5 965.5 c 128,-1,87
 983 944 983 944 1164 931 c 1,82,-1
EndSplineSet
EndChar

StartChar: percent
Encoding: 37 37 8
Width: 2655
GlyphClass: 2
Flags: W
LayerCount: 2
Fore
SplineSet
887 -82 m 2,0,1
 865 -82 865 -82 850.5 -67.5 c 128,-1,2
 836 -53 836 -53 836.5 -37.5 c 128,-1,3
 837 -22 837 -22 841 -12 c 2,4,-1
 1496 1466 l 2,5,6
 1509 1497 1509 1497 1539 1516.5 c 128,-1,7
 1569 1536 1569 1536 1604 1536 c 2,8,-1
 1749 1536 l 2,9,10
 1771 1536 1771 1536 1785.5 1521.5 c 128,-1,11
 1800 1507 1800 1507 1800 1491.5 c 128,-1,12
 1800 1476 1800 1476 1795 1466 c 2,13,-1
 1141 -12 l 2,14,15
 1127 -44 1127 -44 1097 -63 c 128,-1,16
 1067 -82 1067 -82 1033 -82 c 2,17,-1
 887 -82 l 2,0,1
578 734 m 128,-1,19
 668 734 668 734 714.5 809 c 128,-1,20
 761 884 761 884 761 1025 c 128,-1,21
 761 1166 761 1166 714 1244.5 c 128,-1,22
 667 1323 667 1323 578 1323 c 128,-1,23
 489 1323 489 1323 442 1244.5 c 128,-1,24
 395 1166 395 1166 395 1025.5 c 128,-1,25
 395 885 395 885 441.5 809.5 c 128,-1,18
 488 734 488 734 578 734 c 128,-1,19
578 560 m 128,-1,27
 470 560 470 560 383 600 c 128,-1,28
 296 640 296 640 241.5 706.5 c 0,29,30
 129 843.770642202 129 843.770642202 129 1031 c 0,31,32
 129 1216.33333333 129 1216.33333333 240 1352 c 0,33,34
 294 1418 294 1418 381.5 1457.5 c 128,-1,35
 469 1497 469 1497 578 1497 c 128,-1,36
 687 1497 687 1497 774.5 1457.5 c 128,-1,37
 862 1418 862 1418 915.5 1352 c 0,38,39
 1026 1215.68224299 1026 1215.68224299 1026 1031 c 0,40,41
 1026 844.425925926 1026 844.425925926 914 706.5 c 0,42,43
 860 640 860 640 773 600 c 128,-1,26
 686 560 686 560 578 560 c 128,-1,27
2074 134 m 128,-1,45
 2164 134 2164 134 2210.5 209.5 c 128,-1,46
 2257 285 2257 285 2257 426 c 128,-1,47
 2257 567 2257 567 2210 645 c 128,-1,48
 2163 723 2163 723 2074.5 723 c 128,-1,49
 1986 723 1986 723 1938.5 645 c 128,-1,50
 1891 567 1891 567 1891 426 c 128,-1,51
 1891 285 1891 285 1937.5 209.5 c 128,-1,44
 1984 134 1984 134 2074 134 c 128,-1,45
2074 -40 m 128,-1,53
 1967 -40 1967 -40 1879.5 0 c 128,-1,54
 1792 40 1792 40 1737.5 107 c 0,55,56
 1625 245.302752294 1625 245.302752294 1625 431 c 0,57,58
 1625 616.333333333 1625 616.333333333 1736 752 c 0,59,60
 1790 818 1790 818 1877.5 857.5 c 128,-1,61
 1965 897 1965 897 2074 897 c 128,-1,62
 2183 897 2183 897 2270.5 857.5 c 128,-1,63
 2358 818 2358 818 2412 752 c 0,64,65
 2523 616.333333333 2523 616.333333333 2523 431 c 0,66,67
 2523 245.302752294 2523 245.302752294 2410.5 107 c 0,68,69
 2356 40 2356 40 2268.5 0 c 128,-1,52
 2181 -40 2181 -40 2074 -40 c 128,-1,53
EndSplineSet
EndChar

StartChar: ampersand
Encoding: 38 38 9
Width: 3157
GlyphClass: 2
Flags: W
LayerCount: 2
Fore
SplineSet
2601 -41 m 0,0,1
 2254 -41 2254 -41 2064 101 c 1,2,3
 1644 -40 1644 -40 1163 -40 c 0,4,5
 574.481132075 -40 574.481132075 -40 332.5 110 c 0,6,7
 151 222.50877193 151 222.50877193 151 424 c 0,8,9
 151 558 151 558 230 638 c 128,-1,10
 309 718 309 718 463 737 c 1,11,12
 310 753 310 753 228.5 828.5 c 128,-1,13
 147 904 147 904 147 1030.5 c 128,-1,14
 147 1157 147 1157 219 1243.5 c 128,-1,15
 291 1330 291 1330 428.5 1380 c 0,16,17
 689.75 1475 689.75 1475 1161 1475 c 0,18,19
 1269 1475 1269 1475 1434 1456 c 128,-1,20
 1599 1437 1599 1437 1657 1422.5 c 128,-1,21
 1715 1408 1715 1408 1715 1365 c 0,22,23
 1715 1357 1715 1357 1714 1352 c 2,24,-1
 1692 1167 l 2,25,26
 1686 1123 1686 1123 1648 1123 c 0,27,28
 1638 1123 1638 1123 1630.5 1124.5 c 128,-1,29
 1623 1126 1623 1126 1596.5 1130 c 128,-1,30
 1570 1134 1570 1134 1540 1137.5 c 128,-1,31
 1510 1141 1510 1141 1463 1146.5 c 128,-1,32
 1416 1152 1416 1152 1370 1156 c 0,33,34
 1266.5 1165 1266.5 1165 1180.75 1165 c 128,-1,35
 1095 1165 1095 1165 1044 1160.5 c 128,-1,36
 993 1156 993 1156 936.5 1142.5 c 0,37,38
 818.987149071 1114.42170819 818.987149071 1114.42170819 817 1025 c 0,39,40
 817 1022 817 1022 817 1007 c 128,-1,41
 817 992 817 992 822.5 972 c 128,-1,42
 828 952 828 952 845 933 c 128,-1,43
 862 914 862 914 890.5 902 c 0,44,45
 952.25 876 952.25 876 1079 876 c 2,46,-1
 1849 876 l 2,47,48
 1864 876 1864 876 1874.5 886.5 c 128,-1,49
 1885 897 1885 897 1885 912 c 2,50,-1
 1913 1348 l 2,51,52
 1915 1381 1915 1381 1936 1402 c 128,-1,53
 1957 1423 1957 1423 1989 1423 c 2,54,-1
 2383 1423 l 2,55,56
 2415 1423 2415 1423 2437 1401.5 c 128,-1,57
 2459 1380 2459 1380 2459 1348 c 2,58,-1
 2459 912 l 2,59,60
 2459 897 2459 897 2469 886.5 c 128,-1,61
 2479 876 2479 876 2494 876 c 2,62,-1
 2866 876 l 2,63,64
 2898 876 2898 876 2920 854.5 c 128,-1,65
 2942 833 2942 833 2942 801 c 2,66,-1
 2942 688 l 2,67,68
 2942 656 2942 656 2920 634 c 128,-1,69
 2898 612 2898 612 2866 612 c 2,70,-1
 2494 612 l 2,71,72
 2479 612 2479 612 2469 602 c 128,-1,73
 2459 592 2459 592 2459 577 c 2,74,-1
 2459 433 l 2,75,76
 2459 254 2459 254 2707 254 c 0,77,78
 2818 254 2818 254 2945 287 c 0,79,80
 2955 290 2955 290 2971 290 c 128,-1,81
 2987 290 2987 290 3002.5 274 c 128,-1,82
 3018 258 3018 258 3019 232 c 2,83,-1
 3020 88 l 2,84,85
 3021 57 3021 57 3001 31.5 c 128,-1,86
 2981 6 2981 6 2950 -2 c 0,87,88
 2782 -41 2782 -41 2601 -41 c 0,0,1
1167 269 m 0,89,90
 1571 269 1571 269 1896 360 c 1,91,92
 1885 417 1885 417 1885 475 c 2,93,-1
 1885 577 l 2,94,95
 1885 592 1885 592 1874.5 602 c 128,-1,96
 1864 612 1864 612 1849 612 c 0,97,98
 1463.5 612 1463.5 612 1078 612 c 0,99,100
 854.25 612 854.25 612 826.5 501 c 0,101,102
 821 479 821 479 821 461.5 c 2,103,-1
 821 438 l 2,104,105
 821 360.8 821 360.8 884 323 c 0,106,107
 946.336448598 285.598130841 946.336448598 285.598130841 1006.1682243 278.799065421 c 0,108,109
 1092.4 269 1092.4 269 1167 269 c 0,89,90
EndSplineSet
EndChar

StartChar: quotesingle
Encoding: 39 39 10
Width: 750
GlyphClass: 2
Flags: W
LayerCount: 2
Fore
SplineSet
334 689 m 2,0,1
 274 689 274 689 261 764 c 1,2,-1
 132 1443 l 1,3,4
 131 1475 131 1475 153 1498 c 128,-1,5
 175 1521 175 1521 207 1521 c 2,6,-1
 538 1521 l 2,7,8
 570 1521 570 1521 592 1498 c 128,-1,9
 614 1475 614 1475 613 1443 c 1,10,-1
 485 764 l 1,11,12
 472 689 472 689 413 689 c 2,13,-1
 334 689 l 2,0,1
EndSplineSet
EndChar

StartChar: parenleft
Encoding: 40 40 11
Width: 1003
GlyphClass: 2
Flags: W
LayerCount: 2
Fore
SplineSet
800 -143 m 1,0,1
 422.953736655 -99.4946619217 422.953736655 -99.4946619217 244 243.5 c 0,2,3
 139 444.75 139 444.75 139 698 c 0,4,5
 139 1010.675 139 1010.675 303 1249.5 c 0,6,7
 383 1366 383 1366 511.5 1444 c 128,-1,8
 640 1522 640 1522 800 1540 c 0,9,10
 803 1540 803 1540 818.5 1540 c 128,-1,11
 834 1540 834 1540 855.5 1518.5 c 128,-1,12
 877 1497 877 1497 877 1470 c 2,13,-1
 877 1384 l 2,14,15
 877 1334 877 1334 861.5 1312.5 c 128,-1,16
 846 1291 846 1291 798 1266 c 0,17,18
 700 1216 700 1216 645 1059.5 c 128,-1,19
 590 903 590 903 590 697 c 128,-1,20
 590 491 590 491 643.5 338 c 128,-1,21
 697 185 697 185 798 132 c 1,22,23
 846 108 846 108 861.5 86.5 c 128,-1,24
 877 65 877 65 877 15 c 2,25,-1
 877 -73 l 2,26,27
 877 -100 877 -100 855.5 -121.5 c 128,-1,28
 834 -143 834 -143 818.5 -143 c 2,29,-1
 800 -143 l 1,0,1
EndSplineSet
EndChar

StartChar: parenright
Encoding: 41 41 12
Width: 1006
GlyphClass: 2
Flags: W
LayerCount: 2
Fore
SplineSet
204 -143 m 0,0,1
 201 -143 201 -143 190.5 -143 c 128,-1,2
 180 -143 180 -143 163.5 -133 c 0,3,4
 127 -110.878787879 127 -110.878787879 127 -73 c 2,5,-1
 127 15 l 2,6,7
 127 65 127 65 142.5 87 c 128,-1,8
 158 109 158 109 206 132 c 0,9,10
 304 181 304 181 359 334.5 c 128,-1,11
 414 488 414 488 414 698 c 128,-1,12
 414 908 414 908 359 1062.5 c 128,-1,13
 304 1217 304 1217 206 1266 c 0,14,15
 158 1290 158 1290 142.5 1312 c 128,-1,16
 127 1334 127 1334 127 1384 c 2,17,-1
 127 1470 l 2,18,19
 127 1514.22222222 127 1514.22222222 171.5 1534 c 0,20,21
 185 1540 185 1540 193 1540 c 2,22,-1
 204 1540 l 1,23,24
 582.755339806 1499.5223301 582.755339806 1499.5223301 760.5 1154 c 0,25,26
 865 950.859813084 865 950.859813084 865 698 c 128,-1,27
 865 445.140186916 865 445.140186916 760.5 242 c 0,28,29
 647.737882298 22.7988739994 647.737882298 22.7988739994 444.5 -76.5 c 0,30,31
 335 -130 335 -130 204 -143 c 0,0,1
EndSplineSet
EndChar

StartChar: asterisk
Encoding: 42 42 13
Width: 1320
GlyphClass: 2
Flags: W
LayerCount: 2
Fore
SplineSet
595 975 m 1,0,1
 548 1257 548 1257 548 1353 c 0,2,3
 548 1397 548 1397 581.5 1424 c 128,-1,4
 615 1451 615 1451 657.5 1451 c 128,-1,5
 700 1451 700 1451 731.5 1421.5 c 128,-1,6
 763 1392 763 1392 763 1343 c 128,-1,7
 763 1294 763 1294 756 1234.5 c 128,-1,8
 749 1175 749 1175 735 1089.5 c 128,-1,9
 721 1004 721 1004 717 975 c 1,10,11
 732 983 732 983 782 1010.5 c 128,-1,12
 832 1038 832 1038 869.5 1058 c 128,-1,13
 907 1078 907 1078 954 1101.5 c 0,14,15
 1053 1151 1053 1151 1093 1151 c 128,-1,16
 1133 1151 1133 1151 1163.5 1116.5 c 128,-1,17
 1194 1082 1194 1082 1194 1041.5 c 128,-1,18
 1194 1001 1194 1001 1169.5 972.5 c 128,-1,19
 1145 944 1145 944 1109 936 c 2,20,-1
 756 858 l 1,21,22
 761 852 761 852 807.5 805.5 c 128,-1,23
 854 759 854 759 881 729 c 128,-1,24
 908 699 908 699 946.5 654.5 c 0,25,26
 1023 566.077922078 1023 566.077922078 1023 519.038961039 c 128,-1,27
 1023 472 1023 472 989 439.5 c 128,-1,28
 955 407 955 407 918 407 c 0,29,30
 846.592592593 407 846.592592593 407 816 466 c 1,31,-1
 657 788 l 1,32,-1
 497 466 l 1,33,34
 466.407407407 407 466.407407407 407 411.703703704 407 c 129,-1,35
 357 407 357 407 323.5 439 c 128,-1,36
 290 471 290 471 290 502 c 128,-1,37
 290 533 290 533 300.5 556.5 c 128,-1,38
 311 580 311 580 331 608 c 128,-1,39
 351 636 351 636 371.5 662 c 128,-1,40
 392 688 392 688 422 719.5 c 128,-1,41
 452 751 452 751 472 771.5 c 128,-1,42
 492 792 492 792 520.5 820.5 c 128,-1,43
 549 849 549 849 557 858 c 1,44,-1
 204 936 l 2,45,46
 168 944 168 944 143.5 972.5 c 128,-1,47
 119 1001 119 1001 119 1041.5 c 128,-1,48
 119 1082 119 1082 149.5 1116.5 c 128,-1,49
 180 1151 180 1151 211.5 1151 c 128,-1,50
 243 1151 243 1151 276.5 1138.5 c 128,-1,51
 310 1126 310 1126 359 1101.5 c 128,-1,52
 408 1077 408 1077 442 1059 c 128,-1,53
 476 1041 476 1041 530.5 1010.5 c 128,-1,54
 585 980 585 980 595 975 c 1,0,1
EndSplineSet
EndChar

StartChar: plus
Encoding: 43 43 14
Width: 1284
GlyphClass: 2
Flags: W
LayerCount: 2
Fore
SplineSet
564 97 m 2,0,1
 532 97 532 97 511 118.5 c 128,-1,2
 490 140 490 140 490 172 c 2,3,-1
 490 444 l 2,4,5
 490 459 490 459 479.5 470 c 128,-1,6
 469 481 469 481 454 481 c 2,7,-1
 202 481 l 2,8,9
 170 481 170 481 149 502 c 128,-1,10
 128 523 128 523 128 555 c 2,11,-1
 128 696 l 2,12,13
 128 728 128 728 149 749 c 128,-1,14
 170 770 170 770 202 770 c 2,15,-1
 454 770 l 2,16,17
 469 770 469 770 479.5 781 c 128,-1,18
 490 792 490 792 490 807 c 2,19,-1
 490 1080 l 2,20,21
 490 1112 490 1112 511 1134 c 128,-1,22
 532 1156 532 1156 564 1156 c 2,23,-1
 722 1156 l 2,24,25
 754 1156 754 1156 775 1134 c 128,-1,26
 796 1112 796 1112 796 1080 c 2,27,-1
 796 807 l 2,28,29
 796 792 796 792 806 781 c 128,-1,30
 816 770 816 770 831 770 c 2,31,-1
 1080 770 l 2,32,33
 1112 770 1112 770 1133 749 c 128,-1,34
 1154 728 1154 728 1154 696 c 2,35,-1
 1154 555 l 2,36,37
 1154 523 1154 523 1133 502 c 128,-1,38
 1112 481 1112 481 1080 481 c 2,39,-1
 831 481 l 2,40,41
 816 481 816 481 806 470 c 128,-1,42
 796 459 796 459 796 444 c 2,43,-1
 796 172 l 2,44,45
 796 140 796 140 775 118.5 c 128,-1,46
 754 97 754 97 722 97 c 2,47,-1
 564 97 l 2,0,1
EndSplineSet
EndChar

StartChar: comma
Encoding: 44 44 15
Width: 648
GlyphClass: 4
Flags: W
AnchorPoint: "Anchor-1" 296 432 mark 0
LayerCount: 2
Fore
SplineSet
303.403846154 -306 m 0,0,1
 240.807692308 -337 240.807692308 -337 203.403846154 -337 c 0,2,3
 131 -337 131 -337 131 -291 c 2,4,-1
 131 -246 l 2,5,6
 131 -210.071428571 131 -210.071428571 143.5 -202.035714286 c 128,-1,7
 156 -194 156 -194 173 -186 c 0,8,9
 241 -154 241 -154 263.5 -104.5 c 128,-1,10
 286 -55 286 -55 286 -27.5 c 128,-1,11
 286 0 286 0 269 0 c 2,12,-1
 191 0 l 2,13,14
 163 0 163 0 147 19 c 128,-1,15
 131 38 131 38 131 67 c 2,16,-1
 131 270 l 2,17,18
 131 345 131 345 191 345 c 2,19,-1
 441 345 l 2,20,21
 473 345 473 345 495.5 322.5 c 128,-1,22
 518 300 518 300 518 268 c 2,23,-1
 518 36 l 2,24,25
 518 -199.723809524 518 -199.723809524 303.403846154 -306 c 0,0,1
EndSplineSet
EndChar

StartChar: hyphen
Encoding: 45 45 16
Width: 1059
GlyphClass: 2
Flags: W
LayerCount: 2
Fore
SplineSet
206 422 m 2,0,1
 174 422 174 422 152.5 443 c 128,-1,2
 131 464 131 464 131 496 c 2,3,-1
 131 674 l 2,4,5
 131 706 131 706 152.5 727 c 128,-1,6
 174 748 174 748 206 748 c 2,7,-1
 853 748 l 2,8,9
 885 748 885 748 906 727 c 128,-1,10
 927 706 927 706 927 674 c 2,11,-1
 927 496 l 2,12,13
 927 464 927 464 906 443 c 128,-1,14
 885 422 885 422 853 422 c 2,15,-1
 206 422 l 2,0,1
EndSplineSet
EndChar

StartChar: period
Encoding: 46 46 17
Width: 625
GlyphClass: 2
Flags: W
LayerCount: 2
Fore
SplineSet
206 0 m 2,0,1
 174 0 174 0 151.5 22.5 c 128,-1,2
 129 45 129 45 129 77 c 2,3,-1
 129 265 l 2,4,5
 129 297 129 297 151.5 319.5 c 128,-1,6
 174 342 174 342 206 342 c 2,7,-1
 419 342 l 2,8,9
 451 342 451 342 473.5 319.5 c 128,-1,10
 496 297 496 297 496 265 c 2,11,-1
 496 77 l 2,12,13
 496 45 496 45 473.5 22.5 c 128,-1,14
 451 0 451 0 419 0 c 2,15,-1
 206 0 l 2,0,1
EndSplineSet
EndChar

StartChar: slash
Encoding: 47 47 18
Width: 1400
GlyphClass: 2
Flags: W
LayerCount: 2
Fore
SplineSet
562.5 -211.5 m 128,-1,1
 535 -219 535 -219 524.5 -219 c 128,-1,2
 514 -219 514 -219 470.5 -218 c 128,-1,3
 427 -217 427 -217 370.5 -215.5 c 128,-1,4
 314 -214 314 -214 256.5 -212 c 0,5,6
 120.367521368 -207.264957265 120.367521368 -207.264957265 124 -200 c 1,7,-1
 123 -198 l 1,8,9
 124 -169 124 -169 218.5 96.5 c 128,-1,10
 313 362 313 362 314 364 c 128,-1,11
 315 366 315 366 438.5 682.5 c 0,12,13
 805.488151659 1623 805.488151659 1623 809.244075829 1627.5 c 128,-1,14
 813 1632 813 1632 844.5 1639.5 c 128,-1,15
 876 1647 876 1647 913.5 1647 c 128,-1,16
 951 1647 951 1647 1118.5 1638.5 c 128,-1,17
 1286 1630 1286 1630 1281 1619 c 1,18,19
 1282 1619 1282 1619 1282 1614.5 c 128,-1,20
 1282 1610 1282 1610 1268.5 1566.5 c 128,-1,21
 1255 1523 1255 1523 1235 1464 c 128,-1,22
 1215 1405 1215 1405 1191 1336.5 c 128,-1,23
 1167 1268 1167 1268 1146.5 1211.5 c 0,24,25
 1097 1075.07317073 1097 1075.07317073 1083.5 1036.53658537 c 128,-1,26
 1070 998 1070 998 836.5 402 c 128,-1,27
 603 -194 603 -194 594 -194 c 1,28,0
 590 -204 590 -204 562.5 -211.5 c 128,-1,1
EndSplineSet
EndChar

StartChar: zero
Encoding: 48 48 19
Width: 2320
GlyphClass: 2
Flags: W
LayerCount: 2
Fore
SplineSet
977 358.5 m 0,0,1
 1047 323 1047 323 1163.5 323 c 128,-1,2
 1280 323 1280 323 1348 358.5 c 0,3,4
 1486 430.544117647 1486 430.544117647 1486 723 c 0,5,6
 1486 942 1486 942 1411.5 1029.5 c 128,-1,7
 1337 1117 1337 1117 1163 1117 c 128,-1,8
 989 1117 989 1117 911 1029 c 128,-1,9
 833 941 833 941 833 723 c 0,10,11
 833 431.528571429 833 431.528571429 977 358.5 c 0,0,1
1384 -32.5 m 128,-1,13
 1282 -41 1282 -41 1163.5 -41 c 128,-1,14
 1045 -41 1045 -41 942.5 -32.5 c 128,-1,15
 840 -24 840 -24 733.5 -1 c 128,-1,16
 627 22 627 22 541 58.5 c 128,-1,17
 455 95 455 95 378 154.5 c 128,-1,18
 301 214 301 214 249 292 c 0,19,20
 137 460 137 460 137 723 c 0,21,22
 137 1076.73684211 137 1076.73684211 378 1267 c 0,23,24
 641.466666667 1475 641.466666667 1475 1164 1475 c 0,25,26
 2003.00483092 1475 2003.00483092 1475 2152.5 950.5 c 0,27,28
 2182 847 2182 847 2182 718 c 128,-1,29
 2182 589 2182 589 2152.5 479.5 c 128,-1,30
 2123 370 2123 370 2071.5 292 c 128,-1,31
 2020 214 2020 214 1944 154.5 c 128,-1,32
 1868 95 1868 95 1783 58.5 c 128,-1,33
 1698 22 1698 22 1592 -1 c 128,-1,12
 1486 -24 1486 -24 1384 -32.5 c 128,-1,13
EndSplineSet
EndChar

StartChar: one
Encoding: 49 49 20
Width: 1307
GlyphClass: 2
Flags: W
LayerCount: 2
Fore
SplineSet
516 0 m 2,0,1
 484 0 484 0 462.5 22 c 128,-1,2
 441 44 441 44 441 76 c 2,3,-1
 441 991 l 2,4,5
 441 1006 441 1006 430 1017 c 128,-1,6
 419 1028 419 1028 404 1028 c 1,7,-1
 192 1008 l 1,8,9
 160 1008 160 1008 138.5 1029.5 c 128,-1,10
 117 1051 117 1051 117 1083 c 2,11,-1
 117 1283 l 2,12,13
 117 1315 117 1315 138.5 1336.5 c 128,-1,14
 160 1358 160 1358 192 1358 c 1,15,-1
 1071 1438 l 1,16,17
 1103 1438 1103 1438 1125 1416.5 c 128,-1,18
 1147 1395 1147 1395 1147 1363 c 2,19,-1
 1147 76 l 2,20,21
 1147 44 1147 44 1125 22 c 128,-1,22
 1103 0 1103 0 1071 0 c 2,23,-1
 516 0 l 2,0,1
EndSplineSet
EndChar

StartChar: two
Encoding: 50 50 21
Width: 2202
GlyphClass: 2
Flags: W
LayerCount: 2
Fore
SplineSet
136 93 m 1,0,-1
 148 207 l 1,1,2
 164 349 164 349 219.5 460.5 c 128,-1,3
 275 572 275 572 355 641 c 128,-1,4
 435 710 435 710 535 759.5 c 128,-1,5
 635 809 635 809 741.5 834 c 128,-1,6
 848 859 848 859 953 876 c 128,-1,7
 1058 893 1058 893 1152 904 c 128,-1,8
 1246 915 1246 915 1318 929 c 0,9,10
 1474 959.333333333 1474 959.333333333 1474 1036 c 0,11,12
 1474 1114.22857143 1474 1114.22857143 1392 1140 c 0,13,14
 1312.45454545 1165 1312.45454545 1165 1151.72727273 1165 c 128,-1,15
 991 1165 991 1165 803.5 1137.5 c 0,16,17
 506.870786517 1093.99438202 506.870786517 1093.99438202 378 1054 c 0,18,19
 345 1044 345 1044 329 1044 c 0,20,21
 276 1044 276 1044 269 1074 c 1,22,23
 237.529182879 1133.0077821 237.529182879 1133.0077821 220.26459144 1198.00389105 c 128,-1,24
 203 1263 203 1263 203 1267 c 0,25,26
 203 1320 203 1320 241 1336 c 0,27,28
 355 1387 355 1387 595.5 1431 c 128,-1,29
 836 1475 836 1475 982 1475.5 c 0,30,31
 1006.33333333 1475.58333333 1006.33333333 1475.58333333 1028.94444444 1475.58333333 c 0,32,33
 1142 1475.58333333 1142 1475.58333333 1212 1473.5 c 0,34,35
 1296 1471 1296 1471 1384.5 1463.5 c 128,-1,36
 1473 1456 1473 1456 1543 1444 c 128,-1,37
 1613 1432 1613 1432 1682 1412 c 128,-1,38
 1751 1392 1751 1392 1802 1365.5 c 128,-1,39
 1853 1339 1853 1339 1897.5 1301.5 c 128,-1,40
 1942 1264 1942 1264 1970 1217 c 0,41,42
 2030 1116.28571429 2030 1116.28571429 2030 999.642857143 c 128,-1,43
 2030 883 2030 883 1997 809 c 0,44,45
 1931 661 1931 661 1714 591 c 0,46,47
 1606 557 1606 557 1447.5 533 c 128,-1,48
 1289 509 1289 509 1257 504 c 0,49,50
 999 462 999 462 876 399 c 1,51,52
 846 387 846 387 846 350 c 0,53,54
 846 306 846 306 902 306 c 2,55,-1
 1929 306 l 2,56,57
 1985 306 1985 306 1985 242 c 2,58,-1
 1985 69 l 2,59,60
 1985 33 1985 33 1972 17 c 128,-1,61
 1959 1 1959 1 1928 1 c 2,62,-1
 238 1 l 2,63,64
 190 1 190 1 163 26 c 128,-1,65
 136 51 136 51 136 93 c 1,0,-1
EndSplineSet
EndChar

StartChar: three
Encoding: 51 51 22
Width: 2208
GlyphClass: 2
Flags: W
LayerCount: 2
Fore
SplineSet
1746 723 m 1,0,1
 2062 684.757961783 2062 684.757961783 2062 413 c 0,2,3
 2062 164.09352518 2062 164.09352518 1777 58.5 c 0,4,5
 1511.14563107 -40 1511.14563107 -40 1042 -40 c 0,6,7
 863 -40 863 -40 582.5 1 c 128,-1,8
 302 42 302 42 200 72 c 1,9,10
 147 86 147 86 147 129 c 0,11,12
 147 137 147 137 148 142 c 2,13,-1
 171 326 l 2,14,15
 177 370 177 370 215 370 c 0,16,17
 225 370 225 370 232 368.5 c 128,-1,18
 239 367 239 367 276.5 359.5 c 128,-1,19
 314 352 314 352 357 344.5 c 128,-1,20
 400 337 400 337 464.5 326 c 128,-1,21
 529 315 529 315 598 305.5 c 128,-1,22
 667 296 667 296 741.5 287.5 c 0,23,24
 903.647058824 269 903.647058824 269 1041 269 c 0,25,26
 1392 269 1392 269 1392 438 c 0,27,28
 1392 532.491525424 1392 532.491525424 1315.5 567.5 c 0,29,30
 1251.03703704 597 1251.03703704 597 1124 597 c 2,31,-1
 888 597 l 2,32,33
 856 597 856 597 856 640 c 2,34,-1
 856 805 l 2,35,36
 856 848 856 848 888 848 c 2,37,-1
 1124 848 l 2,38,39
 1251.22222222 848 1251.22222222 848 1296.61111111 869.5 c 128,-1,40
 1342 891 1342 891 1359 911.5 c 0,41,42
 1388 946.470588235 1388 946.470588235 1388 991.735294118 c 128,-1,43
 1388 1037 1388 1037 1375.5 1063 c 128,-1,44
 1363 1089 1363 1089 1344.5 1105.5 c 128,-1,45
 1326 1122 1326 1122 1295 1133.5 c 128,-1,46
 1264 1145 1264 1145 1237.5 1151 c 128,-1,47
 1211 1157 1211 1157 1171.5 1160.5 c 0,48,49
 1120.71428571 1165 1120.71428571 1165 1047.85714286 1165 c 128,-1,50
 975 1165 975 1165 896 1160 c 128,-1,51
 817 1155 817 1155 742.5 1146.5 c 128,-1,52
 668 1138 668 1138 598.5 1128.5 c 128,-1,53
 529 1119 529 1119 464.5 1108 c 128,-1,54
 400 1097 400 1097 357 1089.5 c 128,-1,55
 314 1082 314 1082 277 1074.5 c 128,-1,56
 240 1067 240 1067 233 1065.5 c 128,-1,57
 226 1064 226 1064 216 1064 c 0,58,59
 177 1064 177 1064 171 1108 c 2,60,-1
 148 1292 l 2,61,62
 147 1297 147 1297 147 1305 c 0,63,64
 147 1348 147 1348 200 1362 c 1,65,66
 300 1392 300 1392 586.5 1433 c 128,-1,67
 873 1474 873 1474 1053.5 1474 c 128,-1,68
 1234 1474 1234 1474 1385 1459.5 c 128,-1,69
 1536 1445 1536 1445 1663.5 1412 c 128,-1,70
 1791 1379 1791 1379 1877 1327.5 c 0,71,72
 2058 1219.11046512 2058 1219.11046512 2058 1022 c 0,73,74
 2058 890 2058 890 1977.5 814 c 128,-1,75
 1897 738 1897 738 1746 723 c 1,0,1
EndSplineSet
EndChar

StartChar: four
Encoding: 52 52 23
Width: 2076
GlyphClass: 2
Flags: W
LayerCount: 2
Fore
SplineSet
1311 -151 m 2,0,1
 1279 -151 1279 -151 1257.5 -129 c 128,-1,2
 1236 -107 1236 -107 1236 -75 c 2,3,-1
 1236 172 l 1,4,-1
 201 172 l 2,5,6
 171 172 171 172 147.5 190.5 c 128,-1,7
 124 209 124 209 124 224 c 0,8,9
 124 239 124 239 126 247 c 2,10,-1
 449 1363 l 1,11,12
 469 1438 469 1438 525 1438 c 2,13,-1
 975 1438 l 2,14,15
 1006 1438 1006 1438 1029 1419 c 128,-1,16
 1052 1400 1052 1400 1052 1383 c 0,17,18
 1052 1366 1052 1366 1051 1363 c 2,19,-1
 874 568 l 2,20,21
 873 567 873 567 873 558.5 c 0,22,23
 873 550 873 550 884 540.5 c 128,-1,24
 895 531 895 531 909 531 c 2,25,-1
 1236 531 l 1,26,-1
 1236 1363 l 2,27,28
 1236 1395 1236 1395 1257.5 1416.5 c 128,-1,29
 1279 1438 1279 1438 1311 1438 c 2,30,-1
 1629 1438 l 2,31,32
 1661 1438 1661 1438 1683 1416.5 c 128,-1,33
 1705 1395 1705 1395 1705 1363 c 2,34,-1
 1705 531 l 1,35,-1
 1868 531 l 2,36,37
 1900 531 1900 531 1921.5 509.5 c 128,-1,38
 1943 488 1943 488 1943 456 c 2,39,-1
 1943 247 l 2,40,41
 1943 215 1943 215 1921.5 193.5 c 128,-1,42
 1900 172 1900 172 1868 172 c 2,43,-1
 1705 172 l 1,44,-1
 1705 -75 l 2,45,46
 1705 -107 1705 -107 1683 -129 c 128,-1,47
 1661 -151 1661 -151 1629 -151 c 2,48,-1
 1311 -151 l 2,0,1
EndSplineSet
EndChar

StartChar: five
Encoding: 53 53 24
Width: 2238
GlyphClass: 2
Flags: W
LayerCount: 2
Fore
SplineSet
1946 1380 m 1,0,-1
 1922 1170 l 2,1,2
 1917 1126 1917 1126 1878 1126 c 2,3,-1
 901 1129 l 2,4,5
 864 1129 864 1129 847.5 1115 c 128,-1,6
 831 1101 831 1101 831 1057 c 2,7,-1
 834 863 l 1,8,9
 1026 934 1026 934 1229.5 934 c 128,-1,10
 1433 934 1433 934 1581.5 910 c 128,-1,11
 1730 886 1730 886 1827.5 844 c 128,-1,12
 1925 802 1925 802 1987.5 739.5 c 0,13,14
 2103 624 2103 624 2103 447 c 0,15,16
 2103 254.160583942 2103 254.160583942 1964.5 147 c 0,17,18
 1824.91121776 38.9970005999 1824.91121776 38.9970005999 1593.5 -1 c 0,19,20
 1367.85714286 -40 1367.85714286 -40 1053 -40 c 2,21,-1
 1050 -40 l 1,22,23
 885 -39 885 -39 604 2 c 128,-1,24
 323 43 323 43 224 72 c 1,25,26
 171 86 171 86 171 129 c 1,27,-1
 195 327 l 2,28,29
 201 371 201 371 239 371 c 0,30,31
 249.8 371 249.8 371 292.4 362 c 128,-1,32
 335 353 335 353 378 345 c 128,-1,33
 421 337 421 337 483 326.5 c 128,-1,34
 545 316 545 316 613.5 306.5 c 128,-1,35
 682 297 682 297 754.5 288.5 c 0,36,37
 912.294117647 270 912.294117647 270 1051 270 c 0,38,39
 1433 270 1433 270 1433 487 c 0,40,41
 1433 699 1433 699 1128 699 c 0,42,43
 971.837837838 699 971.837837838 699 899.5 648.5 c 128,-1,44
 827.162162162 598 827.162162162 598 743 598 c 2,45,-1
 288 598 l 2,46,47
 257 598 257 598 238.5 611 c 128,-1,48
 220 624 220 624 215 639.5 c 128,-1,49
 210 655 210 655 208 680 c 2,50,-1
 144 1318 l 1,51,52
 144 1378 144 1378 164.5 1408 c 128,-1,53
 185 1438 185 1438 234 1438 c 2,54,-1
 1893 1438 l 2,55,56
 1946 1438 1946 1438 1946 1380 c 1,0,-1
EndSplineSet
EndChar

StartChar: six
Encoding: 54 54 25
Width: 2320
GlyphClass: 2
Flags: W
LayerCount: 2
Fore
SplineSet
858 884 m 1,0,1
 1144 928 1144 928 1323 928 c 128,-1,2
 1502 928 1502 928 1681.5 891.5 c 128,-1,3
 1861 855 1861 855 1969.5 789.5 c 0,4,5
 2186 658.801843318 2186 658.801843318 2186 444 c 0,6,7
 2186 70.3014354067 2186 70.3014354067 1634.5 -11.5 c 0,8,9
 1442.35483871 -40 1442.35483871 -40 1194.17741935 -40 c 128,-1,10
 946 -40 946 -40 756 4.5 c 128,-1,11
 566 49 566 49 427.5 136 c 128,-1,12
 289 223 289 223 213.5 359 c 128,-1,13
 138 495 138 495 138 688.5 c 128,-1,14
 138 882 138 882 197.5 1031 c 128,-1,15
 257 1180 257 1180 389 1280.5 c 0,16,17
 644.462686567 1475 644.462686567 1475 1241 1475 c 0,18,19
 1399 1475 1399 1475 1642.5 1436 c 128,-1,20
 1886 1397 1886 1397 1987 1365 c 1,21,22
 2037 1352 2037 1352 2037 1311 c 0,23,24
 2037 1303 2037 1303 2036 1298 c 2,25,-1
 2009 1108 l 1,26,27
 2002 1066 2002 1066 1966 1066 c 0,28,29
 1956 1066 1956 1066 1944 1069 c 0,30,31
 1587 1162 1587 1162 1295 1162 c 0,32,33
 1142.2 1162 1142.2 1162 1094.6 1153.5 c 128,-1,34
 1047 1145 1047 1145 1018.5 1138 c 128,-1,35
 990 1131 990 1131 969.5 1120.5 c 128,-1,36
 949 1110 949 1110 930 1095.5 c 128,-1,37
 911 1081 911 1081 898 1062.5 c 128,-1,38
 885 1044 885 1044 875.5 1021 c 0,39,40
 858 978.631578947 858 978.631578947 858 907 c 2,41,-1
 858 884 l 1,0,1
1437.5 294.5 m 128,-1,43
 1516 340 1516 340 1516 460 c 128,-1,44
 1516 580 1516 580 1454 631.5 c 128,-1,45
 1392 683 1392 683 1231 683 c 128,-1,46
 1070 683 1070 683 855 641 c 1,47,-1
 855 512 l 2,48,49
 855 356.5 855 356.5 949 299.5 c 0,50,51
 1032.28070175 249 1032.28070175 249 1195.64035088 249 c 128,-1,42
 1359 249 1359 249 1437.5 294.5 c 128,-1,43
EndSplineSet
EndChar

StartChar: seven
Encoding: 55 55 26
Width: 1523
GlyphClass: 2
Flags: W
LayerCount: 2
Fore
SplineSet
460 0 m 2,0,1
 428 0 428 0 406 22 c 128,-1,2
 384 44 384 44 385 76 c 1,3,-1
 682 1051 l 1,4,5
 683 1066 683 1066 672.5 1076.5 c 128,-1,6
 662 1087 662 1087 647 1087 c 2,7,-1
 182 1087 l 2,8,9
 150 1087 150 1087 128.5 1109 c 128,-1,10
 107 1131 107 1131 107 1163 c 2,11,-1
 107 1363 l 2,12,13
 107 1395 107 1395 128.5 1416.5 c 128,-1,14
 150 1438 150 1438 182 1438 c 2,15,-1
 1337 1438 l 2,16,17
 1369 1438 1369 1438 1391 1416.5 c 128,-1,18
 1413 1395 1413 1395 1413 1363 c 1,19,-1
 1048 76 l 1,20,21
 1046 43 1046 43 1025.5 21.5 c 128,-1,22
 1005 0 1005 0 973 0 c 2,23,-1
 460 0 l 2,0,1
EndSplineSet
EndChar

StartChar: eight
Encoding: 56 56 27
Width: 2266
GlyphClass: 2
Flags: W
LayerCount: 2
Fore
SplineSet
1369 -32 m 128,-1,1
 1257 -41 1257 -41 1141 -41 c 128,-1,2
 1025 -41 1025 -41 932 -36.5 c 128,-1,3
 839 -32 839 -32 734.5 -19 c 128,-1,4
 630 -6 630 -6 547 16 c 128,-1,5
 464 38 464 38 385.5 74.5 c 128,-1,6
 307 111 307 111 254.5 160.5 c 0,7,8
 139 269.4 139 269.4 139 440 c 0,9,10
 139 629.176470588 139 629.176470588 362.5 747.5 c 0,11,12
 422 779 422 779 487 797 c 1,13,14
 205 915 205 915 205 1099 c 0,15,16
 205 1475 205 1475 1134 1475 c 0,17,18
 1864.0877193 1475 1864.0877193 1475 2004 1200 c 0,19,20
 2033 1143 2033 1143 2033 1064 c 128,-1,21
 2033 985 2033 985 1956.5 904 c 128,-1,22
 1880 823 1880 823 1785 789 c 1,23,24
 2035.83792957 702.042851082 2035.83792957 702.042851082 2103 561.5 c 0,25,26
 2130 505 2130 505 2130 424 c 128,-1,27
 2130 343 2130 343 2089 267 c 128,-1,28
 2048 191 2048 191 1973.5 140 c 128,-1,29
 1899 89 1899 89 1806 52.5 c 128,-1,30
 1713 16 1713 16 1597 -3.5 c 128,-1,0
 1481 -23 1481 -23 1369 -32 c 128,-1,1
858 267.5 m 128,-1,32
 945 205 945 205 1137 205 c 128,-1,33
 1329 205 1329 205 1413.5 255 c 128,-1,34
 1498 305 1498 305 1498 422 c 0,35,36
 1498 507.675675676 1498 507.675675676 1393 554.5 c 0,37,38
 1302.6993007 594.769230769 1302.6993007 594.769230769 1212.34965035 609.384615385 c 128,-1,39
 1122 624 1122 624 1029 637.5 c 128,-1,40
 936 651 936 651 837 671 c 1,41,42
 771 605 771 605 771 467.5 c 128,-1,31
 771 330 771 330 858 267.5 c 128,-1,32
1400 861 m 1,43,44
 1419 892 1419 892 1439 954 c 128,-1,45
 1459 1016 1459 1016 1459 1067 c 0,46,47
 1459 1172 1459 1172 1368.5 1224.5 c 128,-1,48
 1278 1277 1278 1277 1134 1277 c 0,49,50
 810 1277 810 1277 810 1088 c 0,51,52
 810 1012 810 1012 878.5 967.5 c 128,-1,53
 947 923 947 923 1075 902.5 c 128,-1,54
 1203 882 1203 882 1400 861 c 1,43,44
EndSplineSet
EndChar

StartChar: nine
Encoding: 57 57 28
Width: 2305
GlyphClass: 2
Flags: W
LayerCount: 2
Fore
SplineSet
1104 -40 m 1,0,1
 905 -40 905 -40 662 -1 c 128,-1,2
 419 38 419 38 316 70 c 1,3,4
 267 84 267 84 267 124 c 0,5,6
 267 133 267 133 268 138 c 2,7,-1
 295 328 l 2,8,9
 301 369 301 369 337 369 c 0,10,11
 347 369 347 369 359 366 c 0,12,13
 712 274 712 274 1002 274 c 0,14,15
 1165.90909091 274 1165.90909091 274 1220.45454545 284 c 128,-1,16
 1275 294 1275 294 1305 303.5 c 128,-1,17
 1335 313 1335 313 1355.5 327 c 128,-1,18
 1376 341 1376 341 1394 360 c 128,-1,19
 1412 379 1412 379 1422.5 403.5 c 0,20,21
 1445 456 1445 456 1445 529 c 2,22,-1
 1445 552 l 1,23,24
 1437 551 1437 551 1378 541.5 c 128,-1,25
 1319 532 1319 532 1304.5 530 c 128,-1,26
 1290 528 1290 528 1242.5 521.5 c 128,-1,27
 1195 515 1195 515 1170.5 513 c 0,28,29
 1097 507 1097 507 1038 507 c 0,30,31
 352.752941176 507 352.752941176 507 182.5 788 c 0,32,33
 131 873 131 873 131 983 c 128,-1,34
 131 1093 131 1093 179 1179.5 c 128,-1,35
 227 1266 227 1266 311.5 1321.5 c 128,-1,36
 396 1377 396 1377 523 1412 c 0,37,38
 751.6 1475 751.6 1475 1094.3 1475 c 128,-1,39
 1437 1475 1437 1475 1668.5 1398 c 128,-1,40
 1900 1321 1900 1321 2033 1159.5 c 128,-1,41
 2166 998 2166 998 2166 765 c 0,42,43
 2166 256.632183908 2166 256.632183908 1796.5 82.5 c 0,44,45
 1536.56097561 -40 1536.56097561 -40 1104 -40 c 1,0,1
849.5 803.5 m 128,-1,47
 912 752 912 752 1072.5 752 c 128,-1,48
 1233 752 1233 752 1448 794 c 1,49,-1
 1448 924 l 2,50,51
 1448 1080 1448 1080 1354 1136 c 0,52,53
 1268.39285714 1187 1268.39285714 1187 1106.19642857 1187 c 128,-1,54
 944 1187 944 1187 865.5 1141.5 c 128,-1,55
 787 1096 787 1096 787 975.5 c 128,-1,46
 787 855 787 855 849.5 803.5 c 128,-1,47
EndSplineSet
EndChar

StartChar: colon
Encoding: 58 58 29
Width: 670
GlyphClass: 2
Flags: W
LayerCount: 2
Fore
SplineSet
228 0 m 2,0,1
 196 0 196 0 173.5 22.5 c 128,-1,2
 151 45 151 45 151 77 c 2,3,-1
 151 265 l 2,4,5
 151 297 151 297 173.5 319.5 c 128,-1,6
 196 342 196 342 228 342 c 2,7,-1
 441 342 l 2,8,9
 473 342 473 342 495.5 319.5 c 128,-1,10
 518 297 518 297 518 265 c 2,11,-1
 518 77 l 2,12,13
 518 45 518 45 495.5 22.5 c 128,-1,14
 473 0 473 0 441 0 c 2,15,-1
 228 0 l 2,0,1
228 671 m 2,16,17
 196 671 196 671 173.5 693.5 c 128,-1,18
 151 716 151 716 151 748 c 2,19,-1
 151 936 l 2,20,21
 151 968 151 968 173.5 990.5 c 128,-1,22
 196 1013 196 1013 228 1013 c 2,23,-1
 441 1013 l 2,24,25
 473 1013 473 1013 495.5 990.5 c 128,-1,26
 518 968 518 968 518 936 c 2,27,-1
 518 748 l 2,28,29
 518 716 518 716 495.5 693.5 c 128,-1,30
 473 671 473 671 441 671 c 2,31,-1
 228 671 l 2,16,17
EndSplineSet
EndChar

StartChar: semicolon
Encoding: 59 59 30
Width: 688
GlyphClass: 2
Flags: W
LayerCount: 2
Fore
SplineSet
324.403846154 -306 m 0,0,1
 261.807692308 -337 261.807692308 -337 224.403846154 -337 c 0,2,3
 152 -337 152 -337 152 -291 c 2,4,-1
 152 -246 l 2,5,6
 152 -210.071428571 152 -210.071428571 164.5 -202.035714286 c 128,-1,7
 177 -194 177 -194 194 -186 c 0,8,9
 262.087403599 -153.958868895 262.087403599 -153.958868895 284.043701799 -104.979434447 c 128,-1,10
 306 -56 306 -56 306 -28 c 128,-1,11
 306 0 306 0 289 0 c 2,12,-1
 212 0 l 2,13,14
 184 0 184 0 168 19 c 128,-1,15
 152 38 152 38 152 67 c 2,16,-1
 152 270 l 2,17,18
 152 345 152 345 212 345 c 2,19,-1
 462 345 l 2,20,21
 494 345 494 345 516.5 322.5 c 128,-1,22
 539 300 539 300 539 268 c 2,23,-1
 539 36 l 2,24,25
 539 -199.723809524 539 -199.723809524 324.403846154 -306 c 0,0,1
231 671 m 2,26,27
 199 671 199 671 176.5 693.5 c 128,-1,28
 154 716 154 716 154 748 c 2,29,-1
 154 936 l 2,30,31
 154 968 154 968 176.5 990.5 c 128,-1,32
 199 1013 199 1013 231 1013 c 2,33,-1
 444 1013 l 2,34,35
 476 1013 476 1013 498.5 990.5 c 128,-1,36
 521 968 521 968 521 936 c 2,37,-1
 521 748 l 2,38,39
 521 716 521 716 498.5 693.5 c 128,-1,40
 476 671 476 671 444 671 c 2,41,-1
 231 671 l 2,26,27
EndSplineSet
EndChar

StartChar: less
Encoding: 60 60 31
Width: 1289
GlyphClass: 2
Flags: W
LayerCount: 2
Fore
SplineSet
1122.5 -76.5 m 128,-1,1
 1110 -89 1110 -89 1098 -89 c 128,-1,2
 1086 -89 1086 -89 1068 -81 c 1,3,-1
 205 392 l 2,4,5
 174 408 174 408 156 439 c 128,-1,6
 138 470 138 470 138 505 c 2,7,-1
 138 876 l 2,8,9
 138 948.709677419 138 948.709677419 206 986 c 2,10,-1
 1067 1449 l 2,11,12
 1080 1455 1080 1455 1095 1455 c 128,-1,13
 1110 1455 1110 1455 1122.5 1442 c 128,-1,14
 1135 1429 1135 1429 1135 1409 c 2,15,-1
 1135 1048 l 2,16,17
 1135 975.34375 1135 975.34375 1066 943 c 2,18,-1
 531 685 l 1,19,20
 521 679 521 679 521 668.5 c 128,-1,21
 521 658 521 658 531 654 c 2,22,-1
 1066 400 l 1,23,24
 1135 365.5 1135 365.5 1135 292 c 2,25,-1
 1135 -44 l 2,26,0
 1135 -64 1135 -64 1122.5 -76.5 c 128,-1,1
EndSplineSet
EndChar

StartChar: equal
Encoding: 61 61 32
Width: 1148
GlyphClass: 2
Flags: W
LayerCount: 2
Fore
SplineSet
218 228 m 2,0,1
 186 228 186 228 165 249 c 128,-1,2
 144 270 144 270 144 302 c 2,3,-1
 144 394 l 2,4,5
 144 426 144 426 165 447 c 128,-1,6
 186 468 186 468 218 468 c 2,7,-1
 930 468 l 2,8,9
 962 468 962 468 983 447 c 128,-1,10
 1004 426 1004 426 1004 394 c 2,11,-1
 1004 302 l 2,12,13
 1004 270 1004 270 983 249 c 128,-1,14
 962 228 962 228 930 228 c 2,15,-1
 218 228 l 2,0,1
218 621 m 2,16,17
 186 621 186 621 165 642 c 128,-1,18
 144 663 144 663 144 695 c 2,19,-1
 144 788 l 2,20,21
 144 820 144 820 165 841 c 128,-1,22
 186 862 186 862 218 862 c 2,23,-1
 930 862 l 2,24,25
 962 862 962 862 983 841 c 128,-1,26
 1004 820 1004 820 1004 788 c 2,27,-1
 1004 695 l 2,28,29
 1004 663 1004 663 983 642 c 128,-1,30
 962 621 962 621 930 621 c 2,31,-1
 218 621 l 2,16,17
EndSplineSet
EndChar

StartChar: greater
Encoding: 62 62 33
Width: 1290
GlyphClass: 2
Flags: W
LayerCount: 2
Fore
SplineSet
222 -82 m 2,0,1
 211 -89 211 -89 195.5 -89 c 128,-1,2
 180 -89 180 -89 167 -76 c 128,-1,3
 154 -63 154 -63 154 -43 c 2,4,-1
 154 318 l 2,5,6
 154 392.8125 154 392.8125 223 423 c 1,7,-1
 758 682 l 1,8,9
 768 688 768 688 768 698.5 c 128,-1,10
 768 709 768 709 758 713 c 2,11,-1
 223 967 l 2,12,13
 192 982 192 982 173 1011 c 128,-1,14
 154 1040 154 1040 154 1074 c 2,15,-1
 154 1410 l 2,16,17
 154 1429 154 1429 166.5 1442 c 128,-1,18
 179 1455 179 1455 193 1455 c 128,-1,19
 207 1455 207 1455 221 1447 c 2,20,-1
 1084 974 l 1,21,22
 1151 939.419354839 1151 939.419354839 1151 862 c 2,23,-1
 1151 491 l 2,24,25
 1151 417.290322581 1151 417.290322581 1083 380 c 2,26,-1
 222 -82 l 2,0,1
EndSplineSet
EndChar

StartChar: question
Encoding: 63 63 34
Width: 1879
GlyphClass: 2
Flags: W
LayerCount: 2
Fore
SplineSet
780.5 518 m 128,-1,1
 760 505 760 505 722.633333333 475.5 c 128,-1,2
 685.266666667 446 685.266666667 446 671.133333333 446 c 0,3,4
 639.454545455 446 639.454545455 446 616 489 c 1,5,6
 585 531 585 531 550 585 c 1,7,8
 539 608 539 608 539 621.5 c 128,-1,9
 539 635 539 635 541.5 642.5 c 128,-1,10
 544 650 544 650 547 655 c 128,-1,11
 550 660 550 660 555.5 665.5 c 128,-1,12
 561 671 561 671 573 679 c 1,13,14
 662 752 662 752 749.5 784.5 c 128,-1,15
 837 817 837 817 1006 828 c 0,16,17
 1241 844 1241 844 1241 978 c 0,18,19
 1241 1094.41860465 1241 1094.41860465 1109.5 1125 c 0,20,21
 1040.7 1141 1040.7 1141 940 1141 c 0,22,23
 629 1141 629 1141 286 1033 c 0,24,25
 272 1029 272 1029 260.5 1029 c 128,-1,26
 249 1029 249 1029 240 1031 c 128,-1,27
 231 1033 231 1033 222.5 1037.5 c 128,-1,28
 214 1042 214 1042 207 1048 c 0,29,30
 192.102564103 1060.76923077 192.102564103 1060.76923077 184 1079 c 2,31,-1
 109 1250 l 2,32,33
 103 1263 103 1263 103 1280.5 c 128,-1,34
 103 1298 103 1298 116 1316 c 128,-1,35
 129 1334 129 1334 150 1342 c 0,36,37
 520 1475 520 1475 811 1475 c 0,38,39
 1534.17283951 1475 1534.17283951 1475 1700 1183 c 0,40,41
 1746 1102 1746 1102 1746 999 c 0,42,43
 1746 846 1746 846 1666 752 c 0,44,45
 1567 636 1567 636 1313 596 c 0,46,47
 1227 583 1227 583 1062.5 571 c 128,-1,48
 898 559 898 559 849.5 545 c 128,-1,0
 801 531 801 531 780.5 518 c 128,-1,1
627 0 m 2,49,50
 595 0 595 0 574 21 c 128,-1,51
 553 42 553 42 553 74 c 2,52,-1
 553 260 l 2,53,54
 553 292 553 292 574 313 c 128,-1,55
 595 334 595 334 627 334 c 2,56,-1
 846 334 l 2,57,58
 878 334 878 334 899 313 c 128,-1,59
 920 292 920 292 920 260 c 2,60,-1
 920 74 l 2,61,62
 920 42 920 42 899 21 c 128,-1,63
 878 0 878 0 846 0 c 2,64,-1
 627 0 l 2,49,50
EndSplineSet
EndChar

StartChar: at
Encoding: 64 64 35
Width: 2249
GlyphClass: 2
Flags: W
LayerCount: 2
Fore
SplineSet
1442 -224 m 0,0,1
 1274 -285 1274 -285 1059.5 -285 c 128,-1,2
 845 -285 845 -285 664.5 -213 c 128,-1,3
 484 -141 484 -141 371 -18.5 c 0,4,5
 139 233.004424779 139 233.004424779 139 595 c 0,6,7
 139 780 139 780 210 941 c 128,-1,8
 281 1102 281 1102 409 1220.5 c 128,-1,9
 537 1339 537 1339 727.5 1407 c 128,-1,10
 918 1475 918 1475 1122.5 1475 c 128,-1,11
 1327 1475 1327 1475 1483 1428.5 c 128,-1,12
 1639 1382 1639 1382 1753 1300 c 128,-1,13
 1867 1218 1867 1218 1948 1107.5 c 0,14,15
 2108.93559672 887.95205633 2108.93559672 887.95205633 2111 601 c 1,16,17
 2111 311.831325301 2111 311.831325301 1971.5 192.5 c 0,18,19
 1894.92957746 127 1894.92957746 127 1799.96478873 127 c 128,-1,20
 1705 127 1705 127 1634.5 178.5 c 128,-1,21
 1564 230 1564 230 1560 301 c 1,22,23
 1555 339 1555 339 1543 339 c 0,24,25
 1538 339 1538 339 1535 334.5 c 128,-1,26
 1532 330 1532 330 1530 327.5 c 0,27,28
 1525.33333333 321.666666667 1525.33333333 321.666666667 1522 315 c 0,29,30
 1382 101 1382 101 1114 101 c 0,31,32
 894.330434783 101 894.330434783 101 739.5 220.5 c 0,33,34
 665 278 665 278 621.5 369.5 c 128,-1,35
 578 461 578 461 578 588 c 128,-1,36
 578 715 578 715 646.5 820.5 c 128,-1,37
 715 926 715 926 829.5 978.5 c 128,-1,38
 944 1031 944 1031 1090 1031 c 128,-1,39
 1236 1031 1236 1031 1349.5 967 c 128,-1,40
 1463 903 1463 903 1510 810 c 0,41,42
 1516 798 1516 798 1519.5 798 c 128,-1,43
 1523 798 1523 798 1526 811 c 1,44,-1
 1545 936 l 1,45,46
 1554 986 1554 986 1622 986 c 2,47,-1
 1638 986 l 2,48,49
 1666 986 1666 986 1685 968.5 c 128,-1,50
 1704 951 1704 951 1704 925 c 2,51,-1
 1704 403 l 2,52,53
 1704 338 1704 338 1731 307.5 c 128,-1,54
 1758 277 1758 277 1790.5 277 c 128,-1,55
 1823 277 1823 277 1839.5 287 c 128,-1,56
 1856 297 1856 297 1873.5 327.5 c 0,57,58
 1909 389.371428571 1909 389.371428571 1909 566.185714286 c 128,-1,59
 1909 743 1909 743 1860 866 c 128,-1,60
 1811 989 1811 989 1718 1083 c 128,-1,61
 1625 1177 1625 1177 1479 1231 c 128,-1,62
 1333 1285 1333 1285 1149 1285 c 128,-1,63
 965 1285 965 1285 816.5 1230 c 128,-1,64
 668 1175 668 1175 573 1080 c 0,65,66
 378 885 378 885 378 590 c 0,67,68
 378 238.81097561 378 238.81097561 625 38.5 c 0,69,70
 803.180451128 -106 803.180451128 -106 1098 -106 c 0,71,72
 1263 -106 1263 -106 1404 -59 c 1,73,74
 1417 -56 1417 -56 1429.5 -65 c 128,-1,75
 1442 -74 1442 -74 1446 -90 c 2,76,-1
 1468 -168 l 1,77,78
 1473.96341463 -193.841463415 1473.96341463 -193.841463415 1461.98170732 -207.420731707 c 128,-1,79
 1450 -221 1450 -221 1442 -224 c 0,0,1
1465 564 m 0,80,81
 1465 766.703389831 1465 766.703389831 1245 824.5 c 0,82,83
 1186 840 1186 840 1114 840 c 128,-1,84
 1042 840 1042 840 983 816.5 c 128,-1,85
 924 793 924 793 890.5 752.5 c 0,86,87
 826 674.52238806 826 674.52238806 826 557.76119403 c 128,-1,88
 826 441 826 441 901.5 362 c 128,-1,89
 977 283 977 283 1118.19354839 283 c 128,-1,90
 1259.38709677 283 1259.38709677 283 1362.19354839 346.108910891 c 128,-1,91
 1465 409.217821782 1465 409.217821782 1465 564 c 0,80,81
EndSplineSet
EndChar

StartChar: A
Encoding: 65 65 36
Width: 2440
GlyphClass: 2
Flags: W
AnchorPoint: "Anchor-1" 1951 0 basechar 0
AnchorPoint: "Anchor-0" 1234 1438 basechar 0
LayerCount: 2
Fore
SplineSet
152 0 m 2,0,1
 131 0 131 0 118 13.5 c 128,-1,2
 105 27 105 27 105 43 c 128,-1,3
 105 59 105 59 111 69 c 2,4,-1
 751 1369 l 2,5,6
 767 1400 767 1400 796.5 1419 c 128,-1,7
 826 1438 826 1438 860 1438 c 2,8,-1
 1593 1438 l 2,9,10
 1627 1438 1627 1438 1656.5 1419 c 128,-1,11
 1686 1400 1686 1400 1701 1369 c 2,12,-1
 2327 69 l 1,13,14
 2333 53 2333 53 2333 40 c 128,-1,15
 2333 27 2333 27 2319 13.5 c 128,-1,16
 2305 0 2305 0 2284 0 c 2,17,-1
 1666 0 l 2,18,19
 1592 0 1592 0 1564 58 c 1,20,-1
 1512 181 l 1,21,22
 1512 189 1512 189 1508 193 c 128,-1,23
 1504 197 1504 197 1501 201 c 128,-1,24
 1498 205 1498 205 1495 206 c 0,25,26
 1486 209 1486 209 1475 209 c 2,27,-1
 814 209 l 2,28,29
 790 209 790 209 786 201 c 128,-1,30
 782 193 782 193 779.5 187.5 c 128,-1,31
 777 182 777 182 776 180 c 2,32,-1
 727 59 l 1,33,34
 702 0 702 0 629 0 c 2,35,-1
 152 0 l 2,0,1
1351 534 m 2,36,37
 1373 534 1373 534 1373 555 c 0,38,39
 1373 560 1373 560 1371 564 c 2,40,-1
 1170 1045 l 2,41,42
 1167 1054 1167 1054 1158.5 1054 c 128,-1,43
 1150 1054 1150 1054 1147 1046 c 2,44,-1
 936 563 l 2,45,46
 934 559 934 559 934 553 c 128,-1,47
 934 547 934 547 940.5 540.5 c 128,-1,48
 947 534 947 534 956 534 c 2,49,-1
 1351 534 l 2,36,37
EndSplineSet
EndChar

StartChar: B
Encoding: 66 66 37
Width: 2391
GlyphClass: 2
Flags: W
AnchorPoint: "Anchor-0" 1065 1438 basechar 0
LayerCount: 2
Fore
SplineSet
236 0 m 2,0,1
 204 0 204 0 181.5 22.5 c 128,-1,2
 159 45 159 45 159 77 c 2,3,-1
 159 1359 l 2,4,5
 159 1391 159 1391 181.5 1414.5 c 128,-1,6
 204 1438 204 1438 236 1438 c 2,7,-1
 1406 1438 l 2,8,9
 2157 1438 2157 1438 2157 1040 c 0,10,11
 2157 887 2157 887 1988 788 c 0,12,13
 1979 782 1979 782 1979 776.5 c 128,-1,14
 1979 771 1979 771 1979.5 769.5 c 128,-1,15
 1980 768 1980 768 1980.5 766.5 c 128,-1,16
 1981 765 1981 765 1982 763.5 c 128,-1,17
 1983 762 1983 762 1984.5 761 c 0,18,19
 1989 758 1989 758 1991 757 c 0,20,21
 2255 649 2255 649 2255 424 c 0,22,23
 2255 0 2255 0 1361 0 c 2,24,-1
 236 0 l 2,0,1
865 334 m 2,25,-1
 1210 334 l 2,26,27
 1422.90909091 334 1422.90909091 334 1499 374.5 c 0,28,29
 1571 412.822580645 1571 412.822580645 1571 496 c 0,30,31
 1571 571.25 1571 571.25 1524 606.5 c 0,32,33
 1485.26666667 635.55 1485.26666667 635.55 1408.63333333 640.775 c 128,-1,34
 1332 646 1332 646 1262 646 c 2,35,-1
 865 646 l 2,36,37
 850 646 850 646 839 635 c 128,-1,38
 828 624 828 624 828 609 c 2,39,-1
 828 371 l 2,40,41
 828 356 828 356 839 345 c 128,-1,42
 850 334 850 334 865 334 c 2,25,-1
865 861 m 2,43,-1
 1279 861 l 1,44,45
 1410 865 1410 865 1463.5 892 c 128,-1,46
 1517 919 1517 919 1517 997 c 0,47,48
 1517 1071.38235294 1517 1071.38235294 1471 1102.5 c 0,49,50
 1405.2173913 1147 1405.2173913 1147 1254.5 1147 c 2,51,-1
 865 1147 l 2,52,53
 850 1147 850 1147 839 1136 c 128,-1,54
 828 1125 828 1125 828 1110 c 2,55,-1
 828 902 l 2,56,57
 828 885 828 885 839 873 c 128,-1,58
 850 861 850 861 865 861 c 2,43,-1
EndSplineSet
EndChar

StartChar: C
Encoding: 67 67 38
Width: 2475
GlyphClass: 2
Flags: W
AnchorPoint: "Anchor-1" 1327 0 basechar 0 {150-150 2} {}
AnchorPoint: "Anchor-0" 1290 1420 basechar 0
LayerCount: 2
Fore
SplineSet
1835.5 555 m 2,0,1
 1838.75 555 1838.75 555 1840.875 555 c 128,-1,2
 1843 555 1843 555 1947.5 546 c 128,-1,3
 2052 537 2052 537 2162.5 527.5 c 128,-1,4
 2273 518 2273 518 2287 516.5 c 128,-1,5
 2301 515 2301 515 2313.5 503 c 128,-1,6
 2326 491 2326 491 2329 474 c 1,7,-1
 2332 435 l 1,8,9
 2325 326 2325 326 2258 241 c 128,-1,10
 2191 156 2191 156 2090.5 104 c 128,-1,11
 1990 52 1990 52 1855.5 18.5 c 0,12,13
 1616.6119403 -41 1616.6119403 -41 1320 -41 c 0,14,15
 344.682242991 -41 344.682242991 -41 170.5 484 c 0,16,17
 135 591 135 591 135 718.5 c 128,-1,18
 135 846 135 846 170.5 951.5 c 128,-1,19
 206 1057 206 1057 268 1134 c 128,-1,20
 330 1211 330 1211 419.5 1270.5 c 128,-1,21
 509 1330 509 1330 610 1368 c 128,-1,22
 711 1406 711 1406 832 1430.5 c 0,23,24
 1051.7755102 1475 1051.7755102 1475 1256.8877551 1475 c 128,-1,25
 1462 1475 1462 1475 1592 1460 c 128,-1,26
 1722 1445 1722 1445 1851 1408 c 128,-1,27
 1980 1371 1980 1371 2076.5 1314 c 128,-1,28
 2173 1257 2173 1257 2238.5 1166 c 128,-1,29
 2304 1075 2304 1075 2318 959 c 1,30,-1
 2318 952 l 1,31,32
 2320.45714286 937.257142857 2320.45714286 937.257142857 2306 932 c 1,33,34
 2228 923 2228 923 1828 898 c 1,35,36
 1767.41935484 898 1767.41935484 898 1723.70967742 966 c 0,37,38
 1632.43358634 1108 1632.43358634 1108 1320 1108 c 1,39,40
 982.294956826 1101.62820673 982.294956826 1101.62820673 896.5 901 c 0,41,42
 864 825 864 825 864 728 c 128,-1,43
 864 631 864 631 886 563.5 c 128,-1,44
 908 496 908 496 946.5 453 c 128,-1,45
 985 410 985 410 1043.5 382 c 0,46,47
 1145.66173221 333.102076889 1145.66173221 333.102076889 1320 329 c 1,48,49
 1494 329 1494 329 1593 370 c 128,-1,50
 1692 411 1692 411 1737 494 c 1,51,52
 1768 556 1768 556 1829 556 c 1,53,-1
 1835.5 555 l 2,0,1
EndSplineSet
EndChar

StartChar: D
Encoding: 68 68 39
Width: 2421
GlyphClass: 2
Flags: W
AnchorPoint: "Anchor-0" 1157 1438 basechar 0
LayerCount: 2
Fore
SplineSet
839.5 357 m 128,-1,1
 851 346 851 346 865 346 c 0,2,3
 1008 346 1008 346 1113 346 c 128,-1,4
 1218 346 1218 346 1267 349 c 128,-1,5
 1316 352 1316 352 1368 361.5 c 128,-1,6
 1420 371 1420 371 1456 388 c 128,-1,7
 1492 405 1492 405 1525 433.5 c 128,-1,8
 1558 462 1558 462 1578 502 c 0,9,10
 1621 588 1621 588 1621 704.5 c 128,-1,11
 1621 821 1621 821 1596 889 c 128,-1,12
 1571 957 1571 957 1531.5 996.5 c 128,-1,13
 1492 1036 1492 1036 1431.5 1060 c 0,14,15
 1333.1875 1099 1333.1875 1099 1178 1099 c 2,16,-1
 863 1099 l 2,17,18
 850 1099 850 1099 839 1088.5 c 128,-1,19
 828 1078 828 1078 828 1065 c 2,20,-1
 828 381 l 2,21,0
 828 368 828 368 839.5 357 c 128,-1,1
235 0 m 2,22,23
 203 0 203 0 181 22 c 128,-1,24
 159 44 159 44 159 76 c 2,25,-1
 159 1361 l 2,26,27
 159 1393 159 1393 181 1415.5 c 128,-1,28
 203 1438 203 1438 235 1438 c 2,29,-1
 1321 1438 l 2,30,31
 1841.1835443 1438 1841.1835443 1438 2091.5 1212 c 0,32,33
 2179 1133 2179 1133 2230.5 1010 c 128,-1,34
 2282 887 2282 887 2282 751.5 c 128,-1,35
 2282 616 2282 616 2263.5 521.5 c 128,-1,36
 2245 427 2245 427 2215.5 356.5 c 128,-1,37
 2186 286 2186 286 2133.5 230.5 c 128,-1,38
 2081 175 2081 175 2029.5 138 c 128,-1,39
 1978 101 1978 101 1898.5 74.5 c 128,-1,40
 1819 48 1819 48 1751.5 34 c 128,-1,41
 1684 20 1684 20 1584.5 12 c 0,42,43
 1435.25 0 1435.25 0 1218 0 c 2,44,-1
 235 0 l 2,22,23
EndSplineSet
EndChar

StartChar: E
Encoding: 69 69 40
Width: 2208
GlyphClass: 2
Flags: W
AnchorPoint: "Anchor-1" 1132 0 basechar 0
AnchorPoint: "Anchor-0" 1120 1438 basechar 0
LayerCount: 2
Fore
SplineSet
865 890 m 2,0,1
 865 863 865 863 895 863 c 2,2,-1
 1841 863 l 2,3,4
 1873 863 1873 863 1894.5 840.5 c 128,-1,5
 1916 818 1916 818 1916 786 c 2,6,-1
 1916 675 l 2,7,8
 1916 643 1916 643 1894.5 620.5 c 128,-1,9
 1873 598 1873 598 1841 598 c 2,10,-1
 896 598 l 2,11,12
 865 598 865 598 865 572 c 2,13,-1
 865 364 l 2,14,15
 865 339 865 339 895 339 c 2,16,-1
 1991 339 l 2,17,18
 2023 339 2023 339 2044.5 316.5 c 128,-1,19
 2066 294 2066 294 2066 262 c 2,20,-1
 2066 77 l 2,21,22
 2066 45 2066 45 2044.5 22.5 c 128,-1,23
 2023 0 2023 0 1991 0 c 2,24,-1
 235 0 l 2,25,26
 203 0 203 0 181 22 c 128,-1,27
 159 44 159 44 159 76 c 2,28,-1
 159 1361 l 2,29,30
 159 1393 159 1393 181 1415.5 c 128,-1,31
 203 1438 203 1438 235 1438 c 2,32,-1
 1929 1438 l 2,33,34
 1961 1438 1961 1438 1982.5 1415.5 c 128,-1,35
 2004 1393 2004 1393 2004 1361 c 2,36,-1
 2004 1171 l 2,37,38
 2004 1139 2004 1139 1982.5 1116.5 c 128,-1,39
 1961 1094 1961 1094 1929 1094 c 2,40,-1
 897 1094 l 2,41,42
 865 1094 865 1094 865 1067 c 2,43,-1
 865 890 l 2,0,1
EndSplineSet
EndChar

StartChar: F
Encoding: 70 70 41
Width: 2095
GlyphClass: 2
Flags: W
AnchorPoint: "Anchor-0" 1100 1438 basechar 0
LayerCount: 2
Fore
SplineSet
232 0 m 2,0,1
 200 0 200 0 178.5 22 c 128,-1,2
 157 44 157 44 157 76 c 2,3,-1
 157 1361 l 2,4,5
 157 1393 157 1393 178.5 1415.5 c 128,-1,6
 200 1438 200 1438 232 1438 c 2,7,-1
 1947 1438 l 2,8,9
 1979 1438 1979 1438 2001 1415.5 c 128,-1,10
 2023 1393 2023 1393 2023 1361 c 2,11,-1
 2023 1166 l 2,12,13
 2023 1134 2023 1134 2001 1111.5 c 128,-1,14
 1979 1089 1979 1089 1947 1089 c 2,15,-1
 897 1089 l 2,16,17
 882 1089 882 1089 872 1078.5 c 128,-1,18
 862 1068 862 1068 862 1053 c 2,19,-1
 862 842 l 2,20,21
 862 829 862 829 872 819 c 128,-1,22
 882 809 882 809 895 809 c 2,23,-1
 1637 809 l 2,24,25
 1669 809 1669 809 1691 786.5 c 128,-1,26
 1713 764 1713 764 1713 732 c 2,27,-1
 1713 601 l 2,28,29
 1713 569 1713 569 1691 546.5 c 128,-1,30
 1669 524 1669 524 1637 524 c 2,31,-1
 896 524 l 2,32,33
 883 524 883 524 872.5 513.5 c 128,-1,34
 862 503 862 503 862 490 c 2,35,-1
 862 76 l 2,36,37
 862 44 862 44 840.5 22 c 128,-1,38
 819 0 819 0 787 0 c 2,39,-1
 232 0 l 2,0,1
EndSplineSet
EndChar

StartChar: G
Encoding: 71 71 42
Width: 2485
GlyphClass: 2
Flags: W
AnchorPoint: "Anchor-1" 1262 0 basechar 0
AnchorPoint: "Anchor-0" 1313 1420 basechar 0
LayerCount: 2
Fore
SplineSet
1375 -36 m 128,-1,1
 1306 -41 1306 -41 1183.5 -41 c 128,-1,2
 1061 -41 1061 -41 906 -17 c 128,-1,3
 751 7 751 7 607.5 63.5 c 128,-1,4
 464 120 464 120 361 205.5 c 128,-1,5
 258 291 258 291 196.5 422.5 c 128,-1,6
 135 554 135 554 135 700 c 128,-1,7
 135 846 135 846 170.5 951.5 c 128,-1,8
 206 1057 206 1057 268 1134 c 128,-1,9
 330 1211 330 1211 419.5 1270.5 c 128,-1,10
 509 1330 509 1330 610 1368 c 128,-1,11
 711 1406 711 1406 832 1430.5 c 0,12,13
 1051.7755102 1475 1051.7755102 1475 1255.8877551 1475 c 128,-1,14
 1460 1475 1460 1475 1588 1461.5 c 128,-1,15
 1716 1448 1716 1448 1845 1413 c 128,-1,16
 1974 1378 1974 1378 2071.5 1324.5 c 128,-1,17
 2169 1271 2169 1271 2237 1185 c 128,-1,18
 2305 1099 2305 1099 2321 989 c 0,19,20
 2323 971 2323 971 2323 961.5 c 128,-1,21
 2323 952 2323 952 2309 950 c 0,22,23
 2119 936 2119 936 2000 927.5 c 128,-1,24
 1881 919 1881 919 1860 917 c 128,-1,25
 1839 915 1839 915 1819.5 915 c 0,26,27
 1773.75 915 1773.75 915 1728 976 c 0,28,29
 1619 1123 1619 1123 1320 1123 c 1,30,31
 864 1115 864 1115 864 719 c 0,32,33
 864 511 864 511 981 414.5 c 128,-1,34
 1098 318 1098 318 1306 318 c 0,35,36
 1567.55737705 318 1567.55737705 318 1688 436.5 c 0,37,38
 1741 488.64516129 1741 488.64516129 1741 527 c 0,39,40
 1741 538 1741 538 1734 547 c 128,-1,41
 1727 556 1727 556 1717 556 c 2,42,-1
 1465 556 l 2,43,44
 1433 556 1433 556 1410.5 578 c 128,-1,45
 1388 600 1388 600 1388 632 c 2,46,-1
 1388 701 l 2,47,48
 1388 733 1388 733 1410.5 755 c 128,-1,49
 1433 777 1433 777 1465 777 c 2,50,-1
 2251 777 l 2,51,52
 2283 777 2283 777 2305.5 754.5 c 128,-1,53
 2328 732 2328 732 2328 700 c 2,54,-1
 2328 77 l 2,55,56
 2328 45 2328 45 2306.5 22.5 c 128,-1,57
 2285 0 2285 0 2253 0 c 0,58,59
 2167 0 2167 0 2138 70 c 0,60,61
 2138 72 2138 72 2098.5 169.5 c 128,-1,62
 2059 267 2059 267 2056.5 276 c 128,-1,63
 2054 285 2054 285 2044.5 285 c 128,-1,64
 2035 285 2035 285 2028 275 c 0,65,66
 1978 193 1978 193 1895 132 c 128,-1,67
 1812 71 1812 71 1728.5 39 c 128,-1,68
 1645 7 1645 7 1544.5 -12 c 128,-1,0
 1444 -31 1444 -31 1375 -36 c 128,-1,1
EndSplineSet
EndChar

StartChar: H
Encoding: 72 72 43
Width: 2391
GlyphClass: 2
Flags: W
AnchorPoint: "Anchor-0" 1192 1434 basechar 0
LayerCount: 2
Fore
SplineSet
235 0 m 2,0,1
 203 0 203 0 181 22 c 128,-1,2
 159 44 159 44 159 76 c 2,3,-1
 159 1363 l 2,4,5
 159 1395 159 1395 181 1416.5 c 128,-1,6
 203 1438 203 1438 235 1438 c 2,7,-1
 731 1438 l 2,8,9
 763 1438 763 1438 784.5 1416.5 c 128,-1,10
 806 1395 806 1395 806 1363 c 2,11,-1
 806 939 l 2,12,13
 806 926 806 926 816.5 916 c 128,-1,14
 827 906 827 906 840 906 c 2,15,-1
 1535 906 l 2,16,17
 1548 906 1548 906 1558.5 916.5 c 128,-1,18
 1569 927 1569 927 1569 940 c 2,19,-1
 1569 1363 l 2,20,21
 1569 1395 1569 1395 1591 1416.5 c 128,-1,22
 1613 1438 1613 1438 1645 1438 c 2,23,-1
 2155 1438 l 2,24,25
 2187 1438 2187 1438 2209 1416.5 c 128,-1,26
 2231 1395 2231 1395 2231 1363 c 2,27,-1
 2231 76 l 2,28,29
 2231 44 2231 44 2209 22 c 128,-1,30
 2187 0 2187 0 2155 0 c 2,31,-1
 1643 0 l 2,32,33
 1611 0 1611 0 1589.5 22 c 128,-1,34
 1568 44 1568 44 1568 76 c 2,35,-1
 1568 537 l 2,36,37
 1568 550 1568 550 1557.5 560.5 c 128,-1,38
 1547 571 1547 571 1534 571 c 2,39,-1
 845 571 l 2,40,41
 832 571 832 571 821.5 561 c 128,-1,42
 811 551 811 551 811 538 c 2,43,-1
 811 76 l 2,44,45
 811 44 811 44 789.5 22 c 128,-1,46
 768 0 768 0 736 0 c 2,47,-1
 235 0 l 2,0,1
EndSplineSet
EndChar

StartChar: I
Encoding: 73 73 44
Width: 1001
GlyphClass: 2
Flags: W
AnchorPoint: "Anchor-1" 496 0 basechar 0
AnchorPoint: "Anchor-0" 504 1438 basechar 0
LayerCount: 2
Fore
SplineSet
235 0 m 2,0,1
 203 0 203 0 181 22 c 128,-1,2
 159 44 159 44 159 76 c 2,3,-1
 159 1363 l 2,4,5
 159 1395 159 1395 181 1416.5 c 128,-1,6
 203 1438 203 1438 235 1438 c 2,7,-1
 766 1438 l 2,8,9
 798 1438 798 1438 819.5 1416.5 c 128,-1,10
 841 1395 841 1395 841 1363 c 2,11,-1
 841 76 l 2,12,13
 841 44 841 44 819.5 22 c 128,-1,14
 798 0 798 0 766 0 c 2,15,-1
 235 0 l 2,0,1
EndSplineSet
EndChar

StartChar: J
Encoding: 74 74 45
Width: 1401
GlyphClass: 2
Flags: W
AnchorPoint: "Anchor-0" 833 1438 basechar 0
LayerCount: 2
Fore
SplineSet
146 -174 m 0,0,1
 132 -174 132 -174 121 -162.5 c 128,-1,2
 110 -151 110 -151 110 -135 c 2,3,-1
 110 150 l 2,4,5
 110 168 110 168 120.5 179 c 128,-1,6
 131 190 131 190 146 191 c 0,7,8
 325.04815864 196.838526912 325.04815864 196.838526912 421.5 274 c 0,9,10
 527 358.4 527 358.4 527 578 c 2,11,-1
 527 1397 l 2,12,13
 527 1414 527 1414 539 1426 c 128,-1,14
 551 1438 551 1438 568 1438 c 2,15,-1
 1201 1438 l 2,16,17
 1219 1438 1219 1438 1231 1426 c 128,-1,18
 1243 1414 1243 1414 1243 1397 c 2,19,-1
 1243 578 l 2,20,21
 1243 108.477419355 1243 108.477419355 812.5 -66.5 c 0,22,23
 559.314596555 -169.407615594 559.314596555 -169.407615594 146 -174 c 0,0,1
EndSplineSet
EndChar

StartChar: K
Encoding: 75 75 46
Width: 2199
GlyphClass: 2
Flags: W
AnchorPoint: "Anchor-0" 1055 1438 basechar 0
LayerCount: 2
Fore
SplineSet
235 0 m 2,0,1
 203 0 203 0 181 22 c 128,-1,2
 159 44 159 44 159 76 c 2,3,-1
 159 1363 l 2,4,5
 159 1395 159 1395 181 1416.5 c 128,-1,6
 203 1438 203 1438 235 1438 c 2,7,-1
 766 1438 l 2,8,9
 798 1438 798 1438 819.5 1416.5 c 128,-1,10
 841 1395 841 1395 841 1363 c 2,11,-1
 841 820 l 1,12,-1
 1321 1378 l 2,13,14
 1371.76923077 1438 1371.76923077 1438 1443 1438 c 2,15,-1
 1955 1438 l 2,16,17
 1971 1438 1971 1438 1982 1427.5 c 128,-1,18
 1993 1417 1993 1417 1993 1402.5 c 128,-1,19
 1993 1388 1993 1388 1982 1377 c 2,20,-1
 1500 845 l 2,21,22
 1477 819.444444444 1477 819.444444444 1477 811.722222222 c 0,23,24
 1477 798.857142857 1477 798.857142857 1490 784 c 2,25,-1
 2069 63 l 2,26,27
 2079 51 2079 51 2079 36.5 c 128,-1,28
 2079 22 2079 22 2068 11 c 128,-1,29
 2057 0 2057 0 2040 0 c 2,30,-1
 1426 0 l 2,31,32
 1356 0 1356 0 1307 64 c 2,33,-1
 841 667 l 1,34,-1
 841 76 l 2,35,36
 841 44 841 44 819.5 22 c 128,-1,37
 798 0 798 0 766 0 c 2,38,-1
 235 0 l 2,0,1
EndSplineSet
EndChar

StartChar: L
Encoding: 76 76 47
Width: 1997
GlyphClass: 2
Flags: W
AnchorPoint: "Anchor-0" 778 1438 basechar 0
LayerCount: 2
Fore
SplineSet
235 0 m 2,0,1
 203 0 203 0 181 22 c 128,-1,2
 159 44 159 44 159 76 c 2,3,-1
 159 1363 l 2,4,5
 159 1395 159 1395 181 1416.5 c 128,-1,6
 203 1438 203 1438 235 1438 c 2,7,-1
 790 1438 l 2,8,9
 822 1438 822 1438 843.5 1416.5 c 128,-1,10
 865 1395 865 1395 865 1363 c 2,11,-1
 865 387 l 2,12,13
 865 372 865 372 876 361 c 128,-1,14
 887 350 887 350 902 350 c 2,15,-1
 1798 350 l 2,16,17
 1830 350 1830 350 1852 328 c 128,-1,18
 1874 306 1874 306 1874 274 c 2,19,-1
 1874 76 l 2,20,21
 1874 44 1874 44 1852 22 c 128,-1,22
 1830 0 1830 0 1798 0 c 2,23,-1
 235 0 l 2,0,1
EndSplineSet
EndChar

StartChar: M
Encoding: 77 77 48
Width: 2946
GlyphClass: 2
Flags: W
AnchorPoint: "Anchor-0" 1470 1406 basechar 0
LayerCount: 2
Fore
SplineSet
793 804 m 2,0,-1
 745 76 l 1,1,2
 745 44 745 44 723 22 c 128,-1,3
 701 0 701 0 669 0 c 2,4,-1
 223 0 l 2,5,6
 191 0 191 0 169 22 c 128,-1,7
 147 44 147 44 148 76 c 1,8,-1
 233 1363 l 1,9,10
 233 1394 233 1394 254.5 1416 c 128,-1,11
 276 1438 276 1438 308 1438 c 2,12,-1
 936 1438 l 2,13,14
 970 1438 970 1438 1000.5 1419.5 c 128,-1,15
 1031 1401 1031 1401 1048 1371 c 2,16,-1
 1454 646 l 2,17,18
 1461 633 1461 633 1471 633 c 128,-1,19
 1481 633 1481 633 1488 646 c 2,20,-1
 1898 1371 l 2,21,22
 1935.96666667 1438 1935.96666667 1438 2010 1438 c 2,23,-1
 2638 1438 l 2,24,25
 2669 1438 2669 1438 2690.5 1416.5 c 128,-1,26
 2712 1395 2712 1395 2713 1363 c 1,27,-1
 2797 76 l 1,28,29
 2797 44 2797 44 2775.5 22 c 128,-1,30
 2754 0 2754 0 2722 0 c 2,31,-1
 2276 0 l 2,32,33
 2244 0 2244 0 2222 22 c 128,-1,34
 2200 44 2200 44 2199 76 c 1,35,-1
 2152 806 l 2,36,37
 2152 816 2152 816 2145 816 c 128,-1,38
 2138 816 2138 816 2135 810 c 2,39,-1
 1699 67 l 1,40,41
 1662.25806452 -1.42108547152e-14 1662.25806452 -1.42108547152e-14 1586 0 c 2,42,-1
 1356 0 l 2,43,44
 1279.74193548 0 1279.74193548 0 1243 67 c 1,45,-1
 810 808 l 2,46,47
 807 814 807 814 800 814 c 128,-1,48
 793 814 793 814 793 804 c 2,0,-1
EndSplineSet
EndChar

StartChar: N
Encoding: 78 78 49
Width: 2542
GlyphClass: 2
Flags: W
AnchorPoint: "Anchor-1" 1205 0 basechar 0
AnchorPoint: "Anchor-0" 1343 1436 basechar 0
LayerCount: 2
Fore
SplineSet
774 861 m 1,0,1
 757 861 757 861 757 845 c 2,2,-1
 757 76 l 2,3,4
 757 44 757 44 735 22 c 128,-1,5
 713 0 713 0 681 0 c 2,6,-1
 235 0 l 2,7,8
 203 0 203 0 181 22 c 128,-1,9
 159 44 159 44 159 76 c 2,10,-1
 159 1376 l 2,11,12
 159 1408 159 1408 181 1430 c 128,-1,13
 203 1452 203 1452 235 1452 c 2,14,-1
 931 1452 l 2,15,16
 994 1452 994 1452 1047 1406 c 1,17,-1
 1769 750 l 2,18,19
 1773 747 1773 747 1778 747 c 0,20,21
 1794 747 1794 747 1794 763 c 2,22,-1
 1794 1361 l 2,23,24
 1794 1393 1794 1393 1816 1414.5 c 128,-1,25
 1838 1436 1838 1436 1870 1436 c 2,26,-1
 2307 1436 l 2,27,28
 2339 1436 2339 1436 2360.5 1414.5 c 128,-1,29
 2382 1393 2382 1393 2382 1361 c 2,30,-1
 2382 60 l 2,31,32
 2382 28 2382 28 2360.5 6.5 c 128,-1,33
 2339 -15 2339 -15 2307 -15 c 2,34,-1
 1784 -15 l 2,35,36
 1712 -15 1712 -15 1662 30 c 1,37,-1
 783 858 l 1,38,-1
 774 861 l 1,0,1
EndSplineSet
EndChar

StartChar: O
Encoding: 79 79 50
Width: 2667
GlyphClass: 2
Flags: W
AnchorPoint: "Anchor-1" 1333 0 basechar 0
AnchorPoint: "Anchor-0" 1331 1420 basechar 0
LayerCount: 2
Fore
SplineSet
1188 333 m 0,0,1
 1252 322 1252 322 1343.5 322 c 128,-1,2
 1435 322 1435 322 1510.5 340.5 c 128,-1,3
 1586 359 1586 359 1646 403 c 0,4,5
 1768 492.466666667 1768 492.466666667 1768 722 c 0,6,7
 1768 1052.13953488 1768 1052.13953488 1478.5 1106 c 0,8,9
 1414 1118 1414 1118 1322.5 1118 c 128,-1,10
 1231 1118 1231 1118 1154.5 1098.5 c 128,-1,11
 1078 1079 1078 1079 1018.5 1034.5 c 0,12,13
 898 944.378151261 898 944.378151261 898 722 c 0,14,15
 898 382.84375 898 382.84375 1188 333 c 0,0,1
1333 -41 m 1,16,17
 1213 -41 1213 -41 1102.5 -33 c 128,-1,18
 992 -25 992 -25 868.5 -2.5 c 128,-1,19
 745 20 745 20 642 56 c 128,-1,20
 539 92 539 92 443 151.5 c 128,-1,21
 347 211 347 211 280.5 288.5 c 0,22,23
 134 459.233082707 134 459.233082707 134 722 c 0,24,25
 134 1073.12698413 134 1073.12698413 442.5 1269 c 0,26,27
 766.95 1475 766.95 1475 1333 1475 c 128,-1,28
 1899.05 1475 1899.05 1475 2223.5 1269 c 0,29,30
 2532 1073.12698413 2532 1073.12698413 2532 722 c 0,31,32
 2532 343.015625 2532 343.015625 2223 151.5 c 0,33,34
 1912.41176471 -41 1912.41176471 -41 1333 -41 c 1,16,17
EndSplineSet
EndChar

StartChar: P
Encoding: 80 80 51
Width: 2376
GlyphClass: 2
Flags: W
AnchorPoint: "Anchor-0" 1106 1420 basechar 0
LayerCount: 2
Fore
SplineSet
235 1436 m 2,0,-1
 1338 1438 l 2,1,2
 1738.33333333 1438 1738.33333333 1438 1918.5 1380.5 c 0,3,4
 2082.7752988 1328.07171315 2082.7752988 1328.07171315 2156 1229.5 c 0,5,6
 2241 1115.07692308 2241 1115.07692308 2241 935 c 0,7,8
 2241 672.801526718 2241 672.801526718 2048.5 567 c 0,9,10
 1880.61271077 474.726070039 1880.61271077 474.726070039 1561.5 458.5 c 0,11,12
 1433.66666667 452 1433.66666667 452 1182.33333333 452 c 2,13,-1
 861 452 l 2,14,15
 848 452 848 452 837.5 441 c 128,-1,16
 827 430 827 430 827 417 c 2,17,-1
 827 76 l 2,18,19
 827 44 827 44 805 22 c 128,-1,20
 783 0 783 0 751 0 c 2,21,-1
 235 0 l 2,22,23
 203 0 203 0 181 22 c 128,-1,24
 159 44 159 44 159 76 c 2,25,-1
 159 1361 l 2,26,27
 159 1393 159 1393 181 1414.5 c 128,-1,28
 203 1436 203 1436 235 1436 c 2,0,-1
861 740 m 2,29,-1
 1293 740 l 2,30,31
 1413.55555556 740 1413.55555556 740 1465.27777778 764.5 c 128,-1,32
 1517 789 1517 789 1536 825.5 c 128,-1,33
 1555 862 1555 862 1555 913 c 128,-1,34
 1555 964 1555 964 1539.5 996.5 c 128,-1,35
 1524 1029 1524 1029 1500 1047 c 128,-1,36
 1476 1065 1476 1065 1438 1075.5 c 0,37,38
 1381.9047619 1091 1381.9047619 1091 1284 1091 c 2,39,-1
 861 1091 l 2,40,41
 848 1091 848 1091 837.5 1080.5 c 128,-1,42
 827 1070 827 1070 827 1057 c 2,43,-1
 827 775 l 2,44,45
 827 762 827 762 837.5 751 c 128,-1,46
 848 740 848 740 861 740 c 2,29,-1
EndSplineSet
EndChar

StartChar: Q
Encoding: 81 81 52
Width: 2667
GlyphClass: 2
Flags: W
LayerCount: 2
Fore
SplineSet
1645 -513 m 1,0,1
 1625 -523 1625 -523 1594.5 -523 c 128,-1,2
 1564 -523 1564 -523 1541 -485 c 1,3,-1
 1295 -39 l 1,4,5
 733.808111424 -34.2441365375 733.808111424 -34.2441365375 429.5 161.5 c 0,6,7
 134 351.578378378 134 351.578378378 134 723 c 0,8,9
 134 1072.99470899 134 1072.99470899 442.5 1270.5 c 0,10,11
 765.049586777 1477 765.049586777 1477 1333 1477 c 128,-1,12
 1900.95041322 1477 1900.95041322 1477 2223.5 1270.5 c 0,13,14
 2532 1072.99470899 2532 1072.99470899 2532 723 c 0,15,16
 2532 339.222222222 2532 339.222222222 2213 147.5 c 0,17,18
 2037.08888678 41.7756440726 2037.08888678 41.7756440726 1777 -4 c 1,19,-1
 1943 -305 l 2,20,21
 1954 -323 1954 -323 1954 -343 c 0,22,23
 1954 -385.947368421 1954 -385.947368421 1914 -407 c 1,24,-1
 1645 -513 l 1,0,1
1188 335 m 128,-1,26
 1252 324 1252 324 1343.5 324 c 128,-1,27
 1435 324 1435 324 1510.5 342.5 c 128,-1,28
 1586 361 1586 361 1646 405 c 0,29,30
 1768 494.466666667 1768 494.466666667 1768 723 c 0,31,32
 1768 945.378151261 1768 945.378151261 1647.5 1035.5 c 0,33,34
 1534.51685393 1120 1534.51685393 1120 1333 1120 c 0,35,36
 1009.12101911 1120 1009.12101911 1120 928.5 912.5 c 0,37,38
 898 834 898 834 898 732.5 c 128,-1,39
 898 631 898 631 919 561.5 c 128,-1,40
 940 492 940 492 976.5 447 c 128,-1,41
 1013 402 1013 402 1068.5 374 c 128,-1,25
 1124 346 1124 346 1188 335 c 128,-1,26
EndSplineSet
EndChar

StartChar: R
Encoding: 82 82 53
Width: 2405
GlyphClass: 2
Flags: W
AnchorPoint: "Anchor-0" 1094 1434 basechar 0
LayerCount: 2
Fore
SplineSet
235 0 m 2,0,1
 203 0 203 0 181 22 c 128,-1,2
 159 44 159 44 159 76 c 2,3,-1
 159 1363 l 2,4,5
 159 1395 159 1395 181 1416.5 c 128,-1,6
 203 1438 203 1438 235 1438 c 2,7,-1
 1341 1438 l 2,8,9
 1668.5 1438 1668.5 1438 1739.75 1429 c 128,-1,10
 1811 1420 1811 1420 1880 1410 c 128,-1,11
 1949 1400 1949 1400 1988 1383.5 c 128,-1,12
 2027 1367 2027 1367 2076 1344.5 c 128,-1,13
 2125 1322 2125 1322 2151.5 1290.5 c 128,-1,14
 2178 1259 2178 1259 2204 1219 c 0,15,16
 2251 1146.69230769 2251 1146.69230769 2251 1038.34615385 c 128,-1,17
 2251 930 2251 930 2220.5 865.5 c 128,-1,18
 2190 801 2190 801 2134.5 758 c 0,19,20
 2026.29824273 674.168007883 2026.29824273 674.168007883 1855 652 c 1,21,22
 1850 650 1850 650 1850 646.5 c 128,-1,23
 1850 643 1850 643 1894 635.5 c 128,-1,24
 1938 628 1938 628 1997.5 594 c 128,-1,25
 2057 560 2057 560 2097.5 502 c 0,26,27
 2167.07886376 402.356195104 2167.07886376 402.356195104 2204.53943188 239.678097552 c 128,-1,28
 2242 77 2242 77 2242 62 c 2,29,-1
 2242 43 l 2,30,31
 2242 24 2242 24 2230.5 12 c 128,-1,32
 2219 0 2219 0 2198 0 c 2,33,-1
 1663 0 l 2,34,35
 1618 0 1618 0 1598 14.5 c 128,-1,36
 1578 29 1578 29 1573 50.5 c 128,-1,37
 1568 72 1568 72 1560.5 114.5 c 128,-1,38
 1553 157 1553 157 1549 178 c 128,-1,39
 1545 199 1545 199 1535.5 241 c 128,-1,40
 1526 283 1526 283 1519 309 c 0,41,42
 1483.1888412 442.012875536 1483.1888412 442.012875536 1415 482.5 c 0,43,44
 1385.77574048 499.85190409 1385.77574048 499.85190409 1343.88787024 500.925952045 c 128,-1,45
 1302 502 1302 502 1260 502 c 2,46,-1
 861 502 l 2,47,48
 848 502 848 502 837.5 491 c 128,-1,49
 827 480 827 480 827 467 c 2,50,-1
 827 76 l 2,51,52
 827 44 827 44 805 22 c 128,-1,53
 783 0 783 0 751 0 c 2,54,-1
 235 0 l 2,0,1
1344 789 m 2,55,56
 1566 789 1566 789 1566 938 c 0,57,58
 1566 1010 1566 1010 1516 1042 c 0,59,60
 1464.31932773 1075.07563025 1464.31932773 1075.07563025 1410.65966387 1081.03781513 c 0,61,62
 1330 1090 1330 1090 1252 1090 c 2,63,-1
 861 1090 l 2,64,65
 848 1090 848 1090 837.5 1080 c 128,-1,66
 827 1070 827 1070 827 1057 c 2,67,-1
 827 822 l 2,68,69
 827 809 827 809 837.5 799 c 128,-1,70
 848 789 848 789 861 789 c 2,71,-1
 1344 789 l 2,55,56
EndSplineSet
EndChar

StartChar: S
Encoding: 83 83 54
Width: 2427
GlyphClass: 2
Flags: W
AnchorPoint: "Anchor-1" 1194 3 basechar 0
AnchorPoint: "Anchor-0" 1169 1426 basechar 0
LayerCount: 2
Fore
SplineSet
2058 1070 m 0,0,1
 2031.27272727 1021 2031.27272727 1021 1979 1021 c 0,2,3
 1967 1021 1967 1021 1955 1024 c 0,4,5
 1777 1081 1777 1081 1567.5 1106.5 c 128,-1,6
 1358 1132 1358 1132 1194 1132 c 0,7,8
 858 1132 858 1132 858 1043 c 0,9,10
 858 1011.66666667 858 1011.66666667 876 998.333333333 c 128,-1,11
 894 985 894 985 911.5 977.5 c 128,-1,12
 929 970 929 970 961 963.5 c 128,-1,13
 993 957 993 957 1027.5 952.5 c 128,-1,14
 1062 948 1062 948 1118 943 c 0,15,16
 1180.63703704 937.407407407 1180.63703704 937.407407407 1319.31851852 929.203703704 c 128,-1,17
 1458 921 1458 921 1521 916 c 128,-1,18
 1584 911 1584 911 1667 901.5 c 128,-1,19
 1750 892 1750 892 1809.5 880 c 128,-1,20
 1869 868 1869 868 1938.5 849 c 128,-1,21
 2008 830 2008 830 2056.5 806 c 128,-1,22
 2105 782 2105 782 2152.5 747.5 c 128,-1,23
 2200 713 2200 713 2229 671.5 c 0,24,25
 2293 579.913793103 2293 579.913793103 2293 456 c 0,26,27
 2293 275 2293 275 2185.5 168 c 128,-1,28
 2078 61 2078 61 1836 10 c 128,-1,29
 1594 -41 1594 -41 1182 -41 c 0,30,31
 601 -41 601 -41 197 105 c 0,32,33
 152 121.071428571 152 121.071428571 152 171 c 0,34,35
 152 181 152 181 154.5 189 c 128,-1,36
 157 197 157 197 244 383 c 0,37,38
 267.434782609 432 267.434782609 432 321 432 c 0,39,40
 332 432 332 432 344 429 c 0,41,42
 568 364 568 364 792 332.5 c 128,-1,43
 1016 301 1016 301 1283 301 c 128,-1,44
 1550 301 1550 301 1550 394 c 0,45,46
 1550 448 1550 448 1499.5 473.5 c 128,-1,47
 1449 499 1449 499 1377.5 503 c 128,-1,48
 1306 507 1306 507 1214.5 512 c 128,-1,49
 1123 517 1123 517 1044 522 c 128,-1,50
 965 527 965 527 871.5 535.5 c 128,-1,51
 778 544 778 544 705.5 555.5 c 128,-1,52
 633 567 633 567 555.5 585.5 c 128,-1,53
 478 604 478 604 420.5 628 c 128,-1,54
 363 652 363 652 310 686.5 c 128,-1,55
 257 721 257 721 223.5 764 c 0,56,57
 151 857.059701493 151 857.059701493 151 969.029850746 c 128,-1,58
 151 1081 151 1081 181 1154 c 128,-1,59
 211 1227 211 1227 260 1277 c 128,-1,60
 309 1327 309 1327 386 1364 c 128,-1,61
 463 1401 463 1401 543 1422 c 128,-1,62
 623 1443 623 1443 730.5 1455 c 0,63,64
 909.666666667 1475 909.666666667 1475 1145 1475 c 0,65,66
 1732 1475 1732 1475 2101 1331 c 0,67,68
 2144 1314.46153846 2144 1314.46153846 2144 1265 c 0,69,70
 2144 1251 2144 1251 2139 1239 c 2,71,-1
 2098 1155 l 2,72,73
 2058 1071 2058 1071 2058 1070 c 0,0,1
EndSplineSet
EndChar

StartChar: T
Encoding: 84 84 55
Width: 2123
GlyphClass: 4
Flags: W
AnchorPoint: "Anchor-0" 1054 1438 basechar 0
AnchorPoint: "Anchor-1" 1060 0 mark 0
LayerCount: 2
Fore
SplineSet
810 0 m 2,0,1
 778 0 778 0 756 22 c 128,-1,2
 734 44 734 44 734 76 c 2,3,-1
 734 1069 l 2,4,5
 734 1084 734 1084 724 1094 c 128,-1,6
 714 1104 714 1104 699 1104 c 2,7,-1
 178 1104 l 2,8,9
 146 1104 146 1104 124.5 1126.5 c 128,-1,10
 103 1149 103 1149 103 1181 c 2,11,-1
 103 1361 l 2,12,13
 103 1393 103 1393 124.5 1415.5 c 128,-1,14
 146 1438 146 1438 178 1438 c 2,15,-1
 1939 1438 l 2,16,17
 1971 1438 1971 1438 1993 1415.5 c 128,-1,18
 2015 1393 2015 1393 2015 1361 c 2,19,-1
 2015 1181 l 2,20,21
 2015 1149 2015 1149 1993 1126.5 c 128,-1,22
 1971 1104 1971 1104 1939 1104 c 2,23,-1
 1422 1104 l 2,24,25
 1407 1104 1407 1104 1396.5 1094 c 128,-1,26
 1386 1084 1386 1084 1386 1069 c 2,27,-1
 1386 76 l 2,28,29
 1386 44 1386 44 1364.5 22 c 128,-1,30
 1343 0 1343 0 1311 0 c 2,31,-1
 810 0 l 2,0,1
EndSplineSet
EndChar

StartChar: U
Encoding: 85 85 56
Width: 2629
GlyphClass: 2
Flags: W
AnchorPoint: "Anchor-1" 1339 -5 basechar 0
AnchorPoint: "Anchor-0" 1327 1414 basechar 0
LayerCount: 2
Fore
SplineSet
1330 -41 m 0,0,1
 1212 -41 1212 -41 1104 -33.5 c 128,-1,2
 996 -26 996 -26 874 -4.5 c 128,-1,3
 752 17 752 17 651 51.5 c 128,-1,4
 550 86 550 86 454.5 144.5 c 128,-1,5
 359 203 359 203 294 279.5 c 0,6,7
 150 448.976923077 150 448.976923077 150 711 c 2,8,-1
 150 1363 l 2,9,10
 150 1395 150 1395 172 1416.5 c 128,-1,11
 194 1438 194 1438 225 1438 c 2,12,-1
 838 1438 l 2,13,14
 872 1438 872 1438 892.5 1417 c 128,-1,15
 913 1396 913 1396 913 1363 c 2,16,-1
 913 711 l 2,17,18
 913 449.472222222 913 449.472222222 1078 368.5 c 0,19,20
 1172.75471698 322 1172.75471698 322 1301.87735849 322 c 128,-1,21
 1431 322 1431 322 1502.5 339 c 128,-1,22
 1574 356 1574 356 1632 398 c 0,23,24
 1749 482.724137931 1749 482.724137931 1749 711 c 2,25,-1
 1749 1363 l 2,26,27
 1749 1395 1749 1395 1771 1416.5 c 128,-1,28
 1793 1438 1793 1438 1825 1438 c 2,29,-1
 2402 1438 l 2,30,31
 2434 1438 2434 1438 2456 1416.5 c 128,-1,32
 2478 1395 2478 1395 2478 1363 c 2,33,-1
 2478 711 l 2,34,35
 2478 330.751351351 2478 330.751351351 2183.5 144.5 c 0,36,37
 1890.18803419 -41 1890.18803419 -41 1330 -41 c 0,0,1
EndSplineSet
EndChar

StartChar: V
Encoding: 86 86 57
Width: 2340
GlyphClass: 2
Flags: W
LayerCount: 2
Fore
SplineSet
915 0 m 1,0,1
 837.553191489 2.21276595745 837.553191489 2.21276595745 803 67 c 1,2,-1
 79 1371 l 2,3,4
 72 1385 72 1385 72 1399 c 128,-1,5
 72 1413 72 1413 84.5 1425.5 c 128,-1,6
 97 1438 97 1438 117 1438 c 2,7,-1
 653 1438 l 2,8,9
 728.258064516 1438 728.258064516 1438 765 1371 c 2,10,-1
 1208 550 l 1,11,-1
 1645 1371 l 2,12,13
 1679.58064516 1438 1679.58064516 1438 1757 1438 c 2,14,-1
 2220 1438 l 2,15,16
 2248.4 1438 2248.4 1438 2257.2 1422 c 128,-1,17
 2266 1406 2266 1406 2266 1394 c 128,-1,18
 2266 1382 2266 1382 2260 1371 c 2,19,-1
 1556 67 l 2,20,21
 1521.41586074 2.15473887814 1521.41586074 2.15473887814 1446 0 c 1,22,-1
 915 0 l 1,0,1
EndSplineSet
EndChar

StartChar: W
Encoding: 87 87 58
Width: 3328
GlyphClass: 2
Flags: W
AnchorPoint: "Anchor-0" 1682 1393 basechar 0
LayerCount: 2
Fore
SplineSet
776 0 m 1,0,1
 742 1 742 1 713 20 c 128,-1,2
 684 39 684 39 670 70 c 2,3,-1
 99 1369 l 2,4,5
 94 1379 94 1379 94 1389.5 c 128,-1,6
 94 1400 94 1400 98 1409 c 128,-1,7
 102 1418 102 1418 108 1424 c 0,8,9
 122 1438 122 1438 144 1438 c 2,10,-1
 678 1438 l 2,11,12
 712 1438 712 1438 740.5 1418.5 c 128,-1,13
 769 1399 769 1399 783 1367 c 2,14,-1
 1068 666 l 1,15,-1
 1384 1369 l 2,16,17
 1398 1400 1398 1400 1427.5 1419 c 128,-1,18
 1457 1438 1457 1438 1491 1438 c 2,19,-1
 1909 1438 l 1,20,21
 1941 1437 1941 1437 1968 1417.5 c 128,-1,22
 1995 1398 1995 1398 2008 1368 c 2,23,-1
 2321 656 l 1,24,-1
 2626 1369 l 2,25,26
 2639 1400 2639 1400 2668 1419 c 128,-1,27
 2697 1438 2697 1438 2732 1438 c 2,28,-1
 3178 1438 l 2,29,30
 3211.11111111 1438 3211.11111111 1438 3224 1409 c 0,31,32
 3228 1400 3228 1400 3228 1394 c 128,-1,33
 3228 1388 3228 1388 3227.5 1385.5 c 128,-1,34
 3227 1383 3227 1383 3226.5 1380 c 128,-1,35
 3226 1377 3226 1377 3225 1374.5 c 128,-1,36
 3224 1372 3224 1372 3223 1369 c 2,37,-1
 2660 70 l 2,38,39
 2647 39 2647 39 2618.5 20 c 128,-1,40
 2590 1 2590 1 2556 0 c 1,41,-1
 2040 0 l 1,42,43
 2006 1 2006 1 1977.5 20 c 128,-1,44
 1949 39 1949 39 1936 70 c 2,45,-1
 1657 723 l 1,46,-1
 1362 70 l 2,47,48
 1348 39 1348 39 1321 19.5 c 128,-1,49
 1294 0 1294 0 1263 0 c 2,50,-1
 776 0 l 1,0,1
EndSplineSet
EndChar

StartChar: X
Encoding: 88 88 59
Width: 2403
GlyphClass: 2
Flags: W
LayerCount: 2
Fore
SplineSet
149 0 m 2,0,1
 136 0 136 0 127.5 8.5 c 128,-1,2
 119 17 119 17 119 29 c 128,-1,3
 119 41 119 41 131 53 c 2,4,-1
 832 683 l 1,5,-1
 144 1381 l 2,6,7
 132 1394 132 1394 132 1407 c 0,8,9
 132 1420 132 1420 141 1429 c 128,-1,10
 150 1438 150 1438 164 1438 c 2,11,-1
 877 1438 l 2,12,13
 952 1438 952 1438 1007 1381 c 2,14,-1
 1288 1089 l 1,15,-1
 1615 1385 l 2,16,17
 1675 1438 1675 1438 1748 1438 c 2,18,-1
 2186 1438 l 2,19,20
 2199 1438 2199 1438 2207.5 1429.5 c 128,-1,21
 2216 1421 2216 1421 2216 1409 c 0,22,23
 2216 1397 2216 1397 2204 1385 c 2,24,-1
 1559 808 l 1,25,-1
 2279 57 l 2,26,27
 2292 42 2292 42 2292 30 c 0,28,29
 2292 18 2292 18 2283 9 c 128,-1,30
 2274 0 2274 0 2259 0 c 2,31,-1
 1581 0 l 2,32,33
 1506 0 1506 0 1449 57 c 2,34,-1
 1106 405 l 1,35,-1
 715 53 l 2,36,37
 655 0 655 0 582 0 c 2,38,-1
 149 0 l 2,0,1
EndSplineSet
EndChar

StartChar: Y
Encoding: 89 89 60
Width: 2233
GlyphClass: 2
Flags: W
AnchorPoint: "Anchor-0" 1161 1438 basechar 0
LayerCount: 2
Fore
SplineSet
856 0 m 2,0,1
 824 0 824 0 802 22 c 128,-1,2
 780 44 780 44 780 76 c 2,3,-1
 780 473 l 1,4,-1
 86 1376 l 2,5,6
 75 1390 75 1390 75 1403.5 c 128,-1,7
 75 1417 75 1417 85.5 1427.5 c 128,-1,8
 96 1438 96 1438 113 1438 c 2,9,-1
 677 1438 l 2,10,11
 752.206896552 1438 752.206896552 1438 800 1375 c 2,12,-1
 1167 889 l 1,13,-1
 1523 1374 l 2,14,15
 1571 1438 1571 1438 1645 1438 c 2,16,-1
 2113 1438 l 2,17,18
 2130 1438 2130 1438 2141.5 1427.5 c 128,-1,19
 2153 1417 2153 1417 2153 1403 c 128,-1,20
 2153 1389 2153 1389 2142 1375 c 2,21,-1
 1462 476 l 1,22,-1
 1462 76 l 2,23,24
 1462 44 1462 44 1440.5 22 c 128,-1,25
 1419 0 1419 0 1387 0 c 2,26,-1
 856 0 l 2,0,1
EndSplineSet
EndChar

StartChar: Z
Encoding: 90 90 61
Width: 2067
GlyphClass: 2
Flags: W
AnchorPoint: "Anchor-0" 1070 1438 basechar 0
LayerCount: 2
Fore
SplineSet
220 0 m 2,0,1
 188 0 188 0 166 22.5 c 128,-1,2
 144 45 144 45 144 77 c 2,3,-1
 144 244 l 2,4,5
 144 316 144 316 197 361 c 1,6,-1
 965 1062 l 2,7,8
 972 1069 972 1069 972 1075 c 0,9,10
 972 1090 972 1090 956 1090 c 2,11,-1
 250 1090 l 2,12,13
 218 1090 218 1090 196.5 1112.5 c 128,-1,14
 175 1135 175 1135 175 1167 c 2,15,-1
 175 1361 l 2,16,17
 175 1393 175 1393 196.5 1415.5 c 128,-1,18
 218 1438 218 1438 250 1438 c 2,19,-1
 1809 1438 l 2,20,21
 1841 1438 1841 1438 1863 1415.5 c 128,-1,22
 1885 1393 1885 1393 1885 1361 c 2,23,-1
 1885 1207 l 2,24,25
 1885 1133 1885 1133 1830 1083 c 2,26,-1
 1039 375 l 2,27,28
 1033 369 1033 369 1033 364 c 0,29,30
 1033 350 1033 350 1048 350 c 2,31,-1
 1849 350 l 2,32,33
 1881 350 1881 350 1902.5 327.5 c 128,-1,34
 1924 305 1924 305 1924 273 c 2,35,-1
 1924 77 l 2,36,37
 1924 45 1924 45 1902.5 22.5 c 128,-1,38
 1881 0 1881 0 1849 0 c 2,39,-1
 220 0 l 2,0,1
EndSplineSet
EndChar

StartChar: bracketleft
Encoding: 91 91 62
Width: 1384
GlyphClass: 2
Flags: W
LayerCount: 2
Fore
SplineSet
238 -174 m 2,0,1
 206 -174 206 -174 183.5 -151.5 c 128,-1,2
 161 -129 161 -129 161 -97 c 2,3,-1
 161 1561 l 2,4,5
 161 1593 161 1593 183.5 1615.5 c 128,-1,6
 206 1638 206 1638 238 1638 c 2,7,-1
 1179 1638 l 2,8,9
 1211 1638 1211 1638 1232.5 1617 c 128,-1,10
 1254 1596 1254 1596 1254 1564 c 2,11,-1
 1254 1360 l 2,12,13
 1254 1328 1254 1328 1232.5 1307 c 128,-1,14
 1211 1286 1211 1286 1179 1286 c 2,15,-1
 802 1286 l 2,16,17
 787 1286 787 1286 776.5 1276 c 128,-1,18
 766 1266 766 1266 766 1251 c 2,19,-1
 766 212 l 2,20,21
 766 197 766 197 776.5 186.5 c 128,-1,22
 787 176 787 176 802 176 c 2,23,-1
 1179 176 l 2,24,25
 1211 176 1211 176 1232.5 155 c 128,-1,26
 1254 134 1254 134 1254 102 c 2,27,-1
 1254 -100 l 2,28,29
 1254 -132 1254 -132 1232.5 -153 c 128,-1,30
 1211 -174 1211 -174 1179 -174 c 2,31,-1
 238 -174 l 2,0,1
EndSplineSet
EndChar

StartChar: backslash
Encoding: 92 92 63
Width: 1399
GlyphClass: 2
Flags: W
LayerCount: 2
Fore
SplineSet
807 -216 m 2,0,1
 770 -216 770 -216 757 -181 c 2,2,-1
 70 1603 l 1,3,-1
 68 1612 l 1,4,5
 68 1626.91666667 68 1626.91666667 77.5 1632.45833333 c 128,-1,6
 87 1638 87 1638 94 1638 c 2,7,-1
 571 1638 l 2,8,9
 610.0625 1638 610.0625 1638 621 1603 c 1,10,-1
 1309 -180 l 2,11,12
 1311 -184 1311 -184 1311 -189 c 128,-1,13
 1311 -194 1311 -194 1309 -199 c 128,-1,14
 1307 -204 1307 -204 1303.5 -207.5 c 0,15,16
 1296 -215 1296 -215 1285 -215 c 2,17,-1
 807 -216 l 2,0,1
EndSplineSet
EndChar

StartChar: bracketright
Encoding: 93 93 64
Width: 1385
GlyphClass: 2
Flags: W
LayerCount: 2
Fore
SplineSet
206 -174 m 2,0,1
 174 -174 174 -174 152 -153 c 128,-1,2
 130 -132 130 -132 130 -100 c 2,3,-1
 130 104 l 2,4,5
 130 136 130 136 152 157 c 128,-1,6
 174 178 174 178 206 178 c 2,7,-1
 583 178 l 2,8,9
 598 178 598 178 608 188 c 128,-1,10
 618 198 618 198 618 213 c 2,11,-1
 618 1252 l 2,12,13
 618 1267 618 1267 608 1277.5 c 128,-1,14
 598 1288 598 1288 583 1288 c 2,15,-1
 206 1288 l 2,16,17
 174 1288 174 1288 152 1309 c 128,-1,18
 130 1330 130 1330 130 1362 c 2,19,-1
 130 1564 l 2,20,21
 130 1596 130 1596 152 1617 c 128,-1,22
 174 1638 174 1638 206 1638 c 2,23,-1
 1147 1638 l 2,24,25
 1179 1638 1179 1638 1201.5 1615.5 c 128,-1,26
 1224 1593 1224 1593 1224 1561 c 2,27,-1
 1224 -97 l 2,28,29
 1224 -129 1224 -129 1201.5 -151.5 c 128,-1,30
 1179 -174 1179 -174 1147 -174 c 2,31,-1
 206 -174 l 2,0,1
EndSplineSet
EndChar

StartChar: asciicircum
Encoding: 94 94 65
Width: 1299
GlyphClass: 2
Flags: W
LayerCount: 2
Fore
SplineSet
-84 201 m 2,0,1
 -104 201 -104 201 -117 214.5 c 128,-1,2
 -130 228 -130 228 -130 242.5 c 128,-1,3
 -130 257 -130 257 -124 268 c 2,4,-1
 351 1140 l 1,5,6
 388.966666667 1207 388.966666667 1207 462 1207 c 2,7,-1
 830 1207 l 2,8,9
 902.709677419 1207 902.709677419 1207 940 1139 c 1,10,-1
 1400 269 l 2,11,12
 1405 260 1405 260 1405 244 c 128,-1,13
 1405 228 1405 228 1392 214.5 c 128,-1,14
 1379 201 1379 201 1359 201 c 2,15,-1
 998 201 l 2,16,17
 964 201 964 201 935 220 c 128,-1,18
 906 239 906 239 892 270 c 2,19,-1
 642 802 l 1,20,21
 636 812 636 812 625 812 c 128,-1,22
 614 812 614 812 610 802 c 2,23,-1
 362 270 l 2,24,25
 347 239 347 239 318 220 c 128,-1,26
 289 201 289 201 255 201 c 2,27,-1
 -84 201 l 2,0,1
EndSplineSet
EndChar

StartChar: underscore
Encoding: 95 95 66
Width: 1164
GlyphClass: 2
Flags: W
LayerCount: 2
Fore
SplineSet
1060 -203 m 2,0,1
 1060 -277 1060 -277 996 -277 c 2,2,-1
 164 -277 l 2,3,4
 100 -277 100 -277 100 -203 c 2,5,-1
 100 -73 l 2,6,7
 100 -40 100 -40 116.5 -20 c 128,-1,8
 133 0 133 0 164 0 c 2,9,-1
 996 0 l 2,10,11
 1027 0 1027 0 1043.5 -20 c 128,-1,12
 1060 -40 1060 -40 1060 -73 c 2,13,-1
 1060 -203 l 2,0,1
EndSplineSet
EndChar

StartChar: grave
Encoding: 96 96 67
Width: 1745
GlyphClass: 4
Flags: W
AnchorPoint: "Anchor-0" 974 1024 mark 0
LayerCount: 2
Fore
SplineSet
1064 1202 m 0,0,1
 1064 1172 1064 1172 1030 1172 c 0,2,3
 962 1172 962 1172 924 1172 c 128,-1,4
 886 1172 886 1172 879.5 1173 c 128,-1,5
 873 1174 873 1174 868 1177 c 128,-1,6
 863 1180 863 1180 859.5 1182 c 128,-1,7
 856 1184 856 1184 852 1189 c 128,-1,8
 848 1194 848 1194 846.5 1196 c 0,9,10
 838 1207.33333333 838 1207.33333333 838 1211 c 1,11,-1
 650 1555 l 2,12,13
 647 1561 647 1561 644.5 1565.5 c 0,14,15
 639 1575.4 639 1575.4 639 1582.7 c 128,-1,16
 639 1590 639 1590 640.5 1595.5 c 128,-1,17
 642 1601 642 1601 651 1606.5 c 0,18,19
 669.818181818 1618 669.818181818 1618 692 1618 c 0,20,21
 934 1618 934 1618 936 1615 c 1,22,23
 965 1614 965 1614 979 1602.5 c 128,-1,24
 993 1591 993 1591 998 1563 c 2,25,-1
 1060 1234 l 2,26,27
 1061 1227 1061 1227 1062 1221.5 c 0,28,29
 1064 1210.5 1064 1210.5 1064 1202 c 0,0,1
EndSplineSet
EndChar

StartChar: a
Encoding: 97 97 68
Width: 1972
GlyphClass: 2
Flags: W
AnchorPoint: "Anchor-1" 1705 0 basechar 0
AnchorPoint: "Anchor-0" 991 1007 basechar 0
LayerCount: 2
Fore
SplineSet
1180.5 27.5 m 128,-1,1
 1001 -41 1001 -41 737.5 -41 c 128,-1,2
 474 -41 474 -41 306.5 30.5 c 128,-1,3
 139 102 139 102 139 239 c 0,4,5
 140 469 140 469 607 562 c 0,6,7
 774 595 774 595 1011 612 c 128,-1,8
 1248 629 1248 629 1248 639 c 2,9,-1
 1248 654 l 2,10,11
 1248 751 1248 751 1181.5 800 c 128,-1,12
 1115 849 1115 849 961 849 c 0,13,14
 884 849 884 849 796.5 827 c 128,-1,15
 709 805 709 805 667 767 c 128,-1,16
 625 729 625 729 598 729 c 0,17,18
 594 729 594 729 576 731 c 2,19,-1
 200 765 l 2,20,21
 187 766 187 766 177.5 777.5 c 128,-1,22
 168 789 168 789 168 803 c 128,-1,23
 168 817 168 817 179 846 c 1,24,25
 228 953 228 953 415 1003 c 128,-1,26
 602 1053 602 1053 957 1053 c 0,27,28
 1552.81818182 1053 1552.81818182 1053 1738 859 c 0,29,30
 1827 765.761904762 1827 765.761904762 1827 622 c 2,31,-1
 1827 68 l 2,32,33
 1827 39 1827 39 1809.5 19.5 c 128,-1,34
 1792 0 1792 0 1766 0 c 2,35,-1
 1647 0 l 2,36,37
 1578.80645161 0 1578.80645161 0 1549 66 c 1,38,39
 1480 198 1480 198 1474.5 214 c 128,-1,40
 1469 230 1469 230 1462.5 230 c 128,-1,41
 1456 230 1456 230 1445 215 c 0,42,0
 1360 96 1360 96 1180.5 27.5 c 128,-1,1
1260 424 m 0,43,44
 1260 456 1260 456 1232 456 c 128,-1,45
 1204 456 1204 456 1194 454 c 0,46,47
 933 421 933 421 807 380.5 c 128,-1,48
 681 340 681 340 681 271 c 1,49,50
 683 174 683 174 843 174 c 0,51,52
 954 174 954 174 1050 207 c 128,-1,53
 1146 240 1146 240 1203 298 c 128,-1,54
 1260 356 1260 356 1260 424 c 0,43,44
EndSplineSet
EndChar

StartChar: b
Encoding: 98 98 69
Width: 2036
GlyphClass: 2
Flags: W
LayerCount: 2
Fore
SplineSet
794.5 23 m 128,-1,1
 620 87 620 87 522 205 c 0,2,3
 516 213 516 213 506.5 213 c 128,-1,4
 497 213 497 213 489 201 c 0,5,6
 459 150 459 150 423 92.5 c 128,-1,7
 387 35 387 35 369 17.5 c 128,-1,8
 351 0 351 0 320 0 c 2,9,-1
 218 0 l 2,10,11
 159 0 159 0 159 67 c 2,12,-1
 159 1360 l 2,13,14
 159 1392 159 1392 181 1414 c 128,-1,15
 203 1436 203 1436 235 1436 c 2,16,-1
 630 1436 l 2,17,18
 662 1436 662 1436 683.5 1414 c 128,-1,19
 705 1392 705 1392 705 1360 c 2,20,-1
 705 929 l 2,21,22
 705 912 705 912 721 912 c 0,23,24
 726 912 726 912 731 916 c 0,25,26
 813 982 813 982 936 1017.5 c 128,-1,27
 1059 1053 1059 1053 1180.5 1053 c 128,-1,28
 1302 1053 1302 1053 1401.5 1033.5 c 128,-1,29
 1501 1014 1501 1014 1593 970 c 128,-1,30
 1685 926 1685 926 1754 863 c 128,-1,31
 1823 800 1823 800 1864 706 c 128,-1,32
 1905 612 1905 612 1905 501.5 c 128,-1,33
 1905 391 1905 391 1863 301 c 128,-1,34
 1821 211 1821 211 1749.5 148.5 c 128,-1,35
 1678 86 1678 86 1582.5 42.5 c 0,36,37
 1399.18390805 -41 1399.18390805 -41 1184.09195402 -41 c 129,-1,0
 969 -41 969 -41 794.5 23 c 128,-1,1
790.5 312.5 m 128,-1,39
 876 231 876 231 1021 231 c 128,-1,40
 1166 231 1166 231 1249.5 312.5 c 128,-1,41
 1333 394 1333 394 1333 513.5 c 128,-1,42
 1333 633 1333 633 1249.5 713.5 c 128,-1,43
 1166 794 1166 794 1021.5 794 c 128,-1,44
 877 794 877 794 791 712.5 c 128,-1,45
 705 631 705 631 705 512.5 c 128,-1,38
 705 394 705 394 790.5 312.5 c 128,-1,39
EndSplineSet
EndChar

StartChar: c
Encoding: 99 99 70
Width: 1798
GlyphClass: 2
Flags: W
AnchorPoint: "Anchor-1" 1028 0 basechar 0
AnchorPoint: "Anchor-0" 989 1024 basechar 0
LayerCount: 2
Fore
SplineSet
1317.5 -17 m 128,-1,1
 1161 -41 1161 -41 1028 -41 c 128,-1,2
 895 -41 895 -41 791 -28.5 c 128,-1,3
 687 -16 687 -16 587 9.5 c 128,-1,4
 487 35 487 35 405.5 79 c 128,-1,5
 324 123 324 123 261.5 182.5 c 0,6,7
 130 307.688 130 307.688 130 509 c 0,8,9
 130 625 130 625 180 719 c 128,-1,10
 230 813 230 813 313 874 c 128,-1,11
 396 935 396 935 509.5 976.5 c 0,12,13
 718.722891566 1053 718.722891566 1053 996 1053 c 0,14,15
 1337.33333333 1053 1337.33333333 1053 1593 949 c 0,16,17
 1641 929.363636364 1641 929.363636364 1641 876 c 0,18,19
 1641 872 1641 872 1641 868 c 0,20,21
 1641 860 1641 860 1627 825 c 128,-1,22
 1613 790 1613 790 1596 741 c 1,23,24
 1577 694 1577 694 1529 694 c 0,25,26
 1514 694 1514 694 1500 699 c 0,27,28
 1271 778 1271 778 1075 778 c 0,29,30
 811.738317757 778 811.738317757 778 730.5 635.5 c 0,31,32
 700 582 700 582 700 515 c 128,-1,33
 700 448 700 448 721.5 400 c 128,-1,34
 743 352 743 352 780 320.5 c 128,-1,35
 817 289 817 289 869 268.5 c 0,36,37
 964.12195122 231 964.12195122 231 1128.56097561 231 c 128,-1,38
 1293 231 1293 231 1510 297 c 0,39,40
 1515 298 1515 298 1519.5 299 c 0,41,42
 1528.5 301 1528.5 301 1540.25 301 c 128,-1,43
 1552 301 1552 301 1565 295.5 c 0,44,45
 1591.58208955 284.253731343 1591.58208955 284.253731343 1602 253 c 0,46,47
 1604 249 1604 249 1622 196.5 c 128,-1,48
 1640 144 1640 144 1643 135.5 c 128,-1,49
 1646 127 1646 127 1646 110 c 128,-1,50
 1646 93 1646 93 1632.5 75 c 128,-1,51
 1619 57 1619 57 1596 49 c 0,52,0
 1474 7 1474 7 1317.5 -17 c 128,-1,1
EndSplineSet
EndChar

StartChar: d
Encoding: 100 100 71
Width: 2038
GlyphClass: 2
Flags: W
LayerCount: 2
Fore
SplineSet
1317 911 m 1,0,1
 1332 911 1332 911 1332 930 c 2,2,-1
 1332 1360 l 2,3,4
 1332 1392 1332 1392 1354 1414 c 128,-1,5
 1376 1436 1376 1436 1408 1436 c 2,6,-1
 1803 1436 l 2,7,8
 1835 1436 1835 1436 1856.5 1414 c 128,-1,9
 1878 1392 1878 1392 1878 1360 c 2,10,-1
 1878 76 l 2,11,12
 1878 43 1878 43 1857.5 21.5 c 128,-1,13
 1837 0 1837 0 1805 0 c 2,14,-1
 1724 0 l 2,15,16
 1693 0 1693 0 1673 16 c 128,-1,17
 1653 32 1653 32 1642.5 49.5 c 128,-1,18
 1632 67 1632 67 1592.5 131 c 128,-1,19
 1553 195 1553 195 1548 203 c 128,-1,20
 1543 211 1543 211 1531.5 210.5 c 128,-1,21
 1520 210 1520 210 1511 201 c 1,22,23
 1413 85 1413 85 1239.5 22 c 128,-1,24
 1066 -41 1066 -41 872 -41 c 0,25,26
 504.288 -41 504.288 -41 287.5 148.5 c 0,27,28
 132 284.426573427 132 284.426573427 132 499 c 0,29,30
 132 612 132 612 173 706 c 128,-1,31
 214 800 214 800 282.5 863 c 128,-1,32
 351 926 351 926 443 970 c 0,33,34
 616.545454545 1053 616.545454545 1053 839 1053 c 0,35,36
 977 1053 977 1053 1100 1017.5 c 128,-1,37
 1223 982 1223 982 1306 916 c 0,38,39
 1309 914 1309 914 1317 911 c 1,0,1
787.5 312.5 m 128,-1,41
 871 231 871 231 1016 231 c 128,-1,42
 1161 231 1161 231 1246.5 312.5 c 128,-1,43
 1332 394 1332 394 1332 513 c 128,-1,44
 1332 632 1332 632 1246 713 c 128,-1,45
 1160 794 1160 794 1015.5 794 c 128,-1,46
 871 794 871 794 787.5 713.5 c 128,-1,47
 704 633 704 633 704 513.5 c 128,-1,40
 704 394 704 394 787.5 312.5 c 128,-1,41
EndSplineSet
EndChar

StartChar: e
Encoding: 101 101 72
Width: 1900
GlyphClass: 2
Flags: W
AnchorPoint: "Anchor-1" 1079 0 basechar 0
AnchorPoint: "Anchor-0" 1000 1010 basechar 0
LayerCount: 2
Fore
SplineSet
729 449 m 2,0,1
 705 449 705 449 705 419 c 0,2,3
 705 261.811594203 705 261.811594203 961 221 c 0,4,5
 1030 210 1030 210 1126 210 c 128,-1,6
 1222 210 1222 210 1352 229.5 c 128,-1,7
 1482 249 1482 249 1528 263 c 0,8,9
 1589.28882499 279.385771976 1589.28882499 279.385771976 1594.78571429 279 c 1,10,11
 1609 279 1609 279 1622 273.5 c 0,12,13
 1648.97014925 262.089552239 1648.97014925 262.089552239 1659 232 c 0,14,15
 1661 225 1661 225 1668 206 c 128,-1,16
 1675 187 1675 187 1679.5 174.5 c 0,17,18
 1691 142.555555556 1691 142.555555556 1691 114 c 0,19,20
 1691 65 1691 65 1644 50 c 0,21,22
 1535 15 1535 15 1343.5 -13 c 128,-1,23
 1152 -41 1152 -41 1051 -41 c 128,-1,24
 950 -41 950 -41 867 -35 c 128,-1,25
 784 -29 784 -29 690.5 -13 c 128,-1,26
 597 3 597 3 518.5 28.5 c 128,-1,27
 440 54 440 54 367 96.5 c 128,-1,28
 294 139 294 139 243.5 194.5 c 0,29,30
 132 317.03960396 132 317.03960396 132 504 c 0,31,32
 132 770.30075188 132 770.30075188 346.5 909 c 0,33,34
 569.197674419 1053 569.197674419 1053 985 1053 c 0,35,36
 1371.53846154 1053 1371.53846154 1053 1594.5 882.5 c 0,37,38
 1671 824 1671 824 1718 734 c 128,-1,39
 1765 644 1765 644 1767 533 c 1,40,-1
 1766 490 l 1,41,42
 1764 473 1764 473 1750.5 461 c 128,-1,43
 1737 449 1737 449 1714 449 c 2,44,-1
 729 449 l 2,0,1
718 615 m 2,45,-1
 1261 615 l 2,46,47
 1272 615 1272 615 1272 639 c 1,48,49
 1260 724 1260 724 1187 779.5 c 128,-1,50
 1114 835 1114 835 997 835 c 128,-1,51
 880 835 880 835 797 780 c 128,-1,52
 714 725 714 725 707 644 c 1,53,54
 707 615 707 615 718 615 c 2,45,-1
EndSplineSet
EndChar

StartChar: f
Encoding: 102 102 73
Width: 1585
GlyphClass: 2
Flags: W
LayerCount: 2
Fore
SplineSet
367 762 m 2,0,1
 367 799 367 799 347 799 c 2,2,-1
 195 799 l 2,3,4
 160 799 160 799 144 810 c 128,-1,5
 128 821 128 821 128 851 c 2,6,-1
 128 945 l 2,7,8
 128 1006 128 1006 195 1006 c 2,9,-1
 345 1006 l 2,10,11
 364.909090909 1006 364.909090909 1006 366.5 1023.5 c 0,12,13
 367 1029 367 1029 368 1044 c 0,14,15
 385.059190031 1311.26064382 385.059190031 1311.26064382 660 1416 c 0,16,17
 814.875 1475 814.875 1475 998.9375 1475 c 128,-1,18
 1183 1475 1183 1475 1399 1438 c 1,19,20
 1420 1433 1420 1433 1434.5 1415.5 c 128,-1,21
 1449 1398 1449 1398 1449 1377 c 2,22,-1
 1449 1230 l 2,23,24
 1449 1201 1449 1201 1441 1191 c 128,-1,25
 1433 1181 1433 1181 1408 1181 c 1,26,-1
 1370 1186 l 1,27,28
 1243.25 1199 1243.25 1199 1201 1199 c 0,29,30
 941 1199 941 1199 941 1062 c 2,31,-1
 941 1013 l 2,32,33
 941 1006 941 1006 948 1006 c 2,34,-1
 1358 1006 l 2,35,36
 1392 1006 1392 1006 1408.5 994 c 128,-1,37
 1425 982 1425 982 1425 951 c 2,38,-1
 1425 851 l 2,39,40
 1425 821 1425 821 1409 810 c 128,-1,41
 1393 799 1393 799 1358 799 c 2,42,-1
 964 799 l 2,43,44
 941 799 941 799 941 762 c 2,45,-1
 941 77 l 2,46,47
 941 45 941 45 918.5 22.5 c 128,-1,48
 896 0 896 0 864 0 c 2,49,-1
 444 0 l 2,50,51
 412 0 412 0 389.5 22.5 c 128,-1,52
 367 45 367 45 367 77 c 2,53,-1
 367 762 l 2,0,1
EndSplineSet
EndChar

StartChar: g
Encoding: 103 103 74
Width: 1761
GlyphClass: 2
Flags: W
AnchorPoint: "Anchor-0" 696 1024 basechar 0
LayerCount: 2
Fore
SplineSet
341 -660.5 m 128,-1,1
 164 -589 164 -589 164 -472 c 0,2,3
 164 -402 164 -402 215.5 -313 c 128,-1,4
 267 -224 267 -224 356 -169 c 1,5,6
 367 -164 367 -164 367 -154.5 c 128,-1,7
 367 -145 367 -145 354 -138 c 1,8,9
 262 -98 262 -98 206.5 -32.5 c 128,-1,10
 151 33 151 33 151 106 c 128,-1,11
 151 179 151 179 193.5 248 c 128,-1,12
 236 317 236 317 303 358 c 0,13,14
 317 366 317 366 317 377.5 c 128,-1,15
 317 389 317 389 306 397 c 0,16,17
 230 455 230 455 186.5 528.5 c 128,-1,18
 143 602 143 602 143 669.5 c 128,-1,19
 143 737 143 737 166 791.5 c 128,-1,20
 189 846 189 846 241.5 894.5 c 128,-1,21
 294 943 294 943 373.5 977.5 c 0,22,23
 547.47826087 1053 547.47826087 1053 844 1053 c 0,24,25
 869 1053 869 1053 1001 1039 c 0,26,27
 1016 1037 1016 1037 1029 1046.5 c 128,-1,28
 1042 1056 1042 1056 1045 1070 c 2,29,-1
 1100 1306 l 2,30,31
 1107 1338 1107 1338 1132.5 1359 c 128,-1,32
 1158 1380 1158 1380 1190 1380 c 2,33,-1
 1407 1380 l 2,34,35
 1425 1380 1425 1380 1437 1367.5 c 128,-1,36
 1449 1355 1449 1355 1449 1340.5 c 128,-1,37
 1449 1326 1449 1326 1442 1316 c 2,38,-1
 1254 1021 l 2,39,40
 1247 1009 1247 1009 1251 995.5 c 128,-1,41
 1255 982 1255 982 1268 976 c 0,42,43
 1391 927 1391 927 1464 848 c 128,-1,44
 1537 769 1537 769 1537 689 c 128,-1,45
 1537 609 1537 609 1518 552.5 c 128,-1,46
 1499 496 1499 496 1451.5 444 c 128,-1,47
 1404 392 1404 392 1331.5 355 c 0,48,49
 1174.74324324 275 1174.74324324 275 884 275 c 1,50,51
 700 275 700 275 566 304 c 0,52,53
 553 307 553 307 536 298.5 c 128,-1,54
 519 290 519 290 510.5 278 c 0,55,56
 488 246.235294118 488 246.235294118 488 203.117647059 c 128,-1,57
 488 160 488 160 553 145 c 128,-1,58
 618 130 618 130 769 130 c 2,59,-1
 1073 130 l 2,60,61
 1445.00925926 130 1445.00925926 130 1579.5 -45 c 0,62,63
 1655 -143.240963855 1655 -143.240963855 1655 -281 c 0,64,65
 1655 -362 1655 -362 1635 -425.5 c 128,-1,66
 1615 -489 1615 -489 1561.5 -548.5 c 128,-1,67
 1508 -608 1508 -608 1421 -647 c 0,68,69
 1231.38461538 -732 1231.38461538 -732 874.692307692 -732 c 128,-1,0
 518 -732 518 -732 341 -660.5 c 128,-1,1
617.5 -408.5 m 128,-1,71
 696 -437 696 -437 833 -437 c 128,-1,72
 970 -437 970 -437 1055 -429.5 c 128,-1,73
 1140 -422 1140 -422 1185 -411.5 c 128,-1,74
 1230 -401 1230 -401 1254 -383 c 128,-1,75
 1278 -365 1278 -365 1283 -350.5 c 128,-1,76
 1288 -336 1288 -336 1288 -314 c 0,77,78
 1288 -272 1288 -272 1235 -238 c 128,-1,79
 1182 -204 1182 -204 1099 -204 c 2,80,-1
 674 -204 l 2,81,82
 652 -204 652 -204 595.5 -258.5 c 128,-1,83
 539 -313 539 -313 539 -340 c 0,84,70
 539 -380 539 -380 617.5 -408.5 c 128,-1,71
653.5 563 m 128,-1,86
 716 518 716 518 845.5 518 c 128,-1,87
 975 518 975 518 1036.5 560 c 128,-1,88
 1098 602 1098 602 1098 670 c 128,-1,89
 1098 738 1098 738 1034 785 c 128,-1,90
 970 832 970 832 842.5 832 c 128,-1,91
 715 832 715 832 653 788.5 c 128,-1,92
 591 745 591 745 591 676.5 c 128,-1,85
 591 608 591 608 653.5 563 c 128,-1,86
EndSplineSet
EndChar

StartChar: h
Encoding: 104 104 75
Width: 2022
GlyphClass: 2
Flags: W
AnchorPoint: "Anchor-0" 1216 997 basechar 0
LayerCount: 2
Fore
SplineSet
709 923 m 2,0,1
 709 906 709 906 725 906 c 0,2,3
 731.5 906 731.5 906 736 909 c 0,4,5
 932 1053 932 1053 1213 1053 c 0,6,7
 1483.61068702 1053 1483.61068702 1053 1676 917.5 c 0,8,9
 1769 852 1769 852 1824 748.5 c 128,-1,10
 1879 645 1879 645 1879 518 c 2,11,-1
 1879 76 l 2,12,13
 1879 44 1879 44 1857.5 22 c 128,-1,14
 1836 0 1836 0 1804 0 c 2,15,-1
 1391 0 l 2,16,17
 1359 0 1359 0 1337.5 22 c 128,-1,18
 1316 44 1316 44 1316 76 c 2,19,-1
 1316 513 l 2,20,21
 1316 627 1316 627 1238.5 704 c 128,-1,22
 1161 781 1161 781 1023 781 c 128,-1,23
 885 781 885 781 797 700 c 128,-1,24
 709 619 709 619 709 513 c 2,25,-1
 709 76 l 2,26,27
 709 44 709 44 687 22 c 128,-1,28
 665 0 665 0 633 0 c 2,29,-1
 235 0 l 2,30,31
 203 0 203 0 181 22 c 128,-1,32
 159 44 159 44 159 76 c 2,33,-1
 159 1362 l 2,34,35
 159 1394 159 1394 181 1416 c 128,-1,36
 203 1438 203 1438 235 1438 c 2,37,-1
 633 1438 l 2,38,39
 665 1438 665 1438 687 1416 c 128,-1,40
 709 1394 709 1394 709 1362 c 2,41,-1
 709 923 l 2,0,1
EndSplineSet
EndChar

StartChar: i
Encoding: 105 105 76
Width: 869
GlyphClass: 2
Flags: W
AnchorPoint: "Anchor-1" 438 0 basechar 0
LayerCount: 2
Fore
SplineSet
236 0 m 2,0,1
 204 0 204 0 182 22 c 128,-1,2
 160 44 160 44 160 76 c 2,3,-1
 160 931 l 2,4,5
 160 963 160 963 182 984.5 c 128,-1,6
 204 1006 204 1006 236 1006 c 2,7,-1
 634 1006 l 2,8,9
 666 1006 666 1006 687.5 984.5 c 128,-1,10
 709 963 709 963 709 931 c 2,11,-1
 709 76 l 2,12,13
 709 44 709 44 687.5 22 c 128,-1,14
 666 0 666 0 634 0 c 2,15,-1
 236 0 l 2,0,1
236 1156 m 2,16,17
 204 1156 204 1156 182 1178 c 128,-1,18
 160 1200 160 1200 160 1232 c 2,19,-1
 160 1441 l 2,20,21
 160 1473 160 1473 182 1494.5 c 128,-1,22
 204 1516 204 1516 236 1516 c 2,23,-1
 634 1516 l 2,24,25
 666 1516 666 1516 687.5 1494.5 c 128,-1,26
 709 1473 709 1473 709 1441 c 2,27,-1
 709 1232 l 2,28,29
 709 1200 709 1200 687.5 1178 c 128,-1,30
 666 1156 666 1156 634 1156 c 2,31,-1
 236 1156 l 2,16,17
EndSplineSet
EndChar

StartChar: j
Encoding: 106 106 77
Width: 1180
GlyphClass: 2
Flags: W
LayerCount: 2
Fore
SplineSet
124 -139 m 1,0,-1
 250 -146 l 1,1,2
 469 -146 469 -146 469 14 c 2,3,-1
 469 931 l 2,4,5
 469 963 469 963 491 984.5 c 128,-1,6
 513 1006 513 1006 545 1006 c 2,7,-1
 944 1006 l 2,8,9
 976 1006 976 1006 998 984.5 c 128,-1,10
 1020 963 1020 963 1020 931 c 2,11,-1
 1020 11 l 2,12,13
 1020 -274.723529412 1020 -274.723529412 744 -383.5 c 0,14,15
 585.417910448 -446 585.417910448 -446 366 -446 c 0,16,17
 261 -446 261 -446 134 -429 c 0,18,19
 102 -425 102 -425 81 -401 c 128,-1,20
 60 -377 60 -377 60 -344 c 2,21,-1
 60 -206 l 2,22,23
 60 -177 60 -177 78.5 -158 c 128,-1,24
 97 -139 97 -139 124 -139 c 1,0,-1
543 1156 m 2,25,26
 511 1156 511 1156 489.5 1178 c 128,-1,27
 468 1200 468 1200 468 1232 c 2,28,-1
 468 1441 l 2,29,30
 468 1473 468 1473 489.5 1494.5 c 128,-1,31
 511 1516 511 1516 543 1516 c 2,32,-1
 941 1516 l 2,33,34
 973 1516 973 1516 995 1494.5 c 128,-1,35
 1017 1473 1017 1473 1017 1441 c 2,36,-1
 1017 1232 l 2,37,38
 1017 1200 1017 1200 995 1178 c 128,-1,39
 973 1156 973 1156 941 1156 c 2,40,-1
 543 1156 l 2,25,26
EndSplineSet
EndChar

StartChar: k
Encoding: 107 107 78
Width: 2006
GlyphClass: 2
Flags: W
AnchorPoint: "Anchor-1" 916 -3 basechar 0
AnchorPoint: "Anchor-0" 968 1010 basechar 0
LayerCount: 2
Fore
SplineSet
1801 1006 m 2,0,1
 1828 1006 1828 1006 1828 982 c 0,2,3
 1828 969 1828 969 1811 958 c 2,4,-1
 1327 613 l 1,5,6
 1315 606 1315 606 1315 592.5 c 128,-1,7
 1315 579 1315 579 1324 570 c 2,8,-1
 1863 56 l 2,9,10
 1875 44 1875 44 1875 31 c 128,-1,11
 1875 18 1875 18 1866 9 c 128,-1,12
 1857 0 1857 0 1843 0 c 2,13,-1
 1336 0 l 2,14,15
 1295.55 0 1295.55 0 1274.275 18.5 c 128,-1,16
 1253 37 1253 37 1231 59 c 2,17,-1
 918 374 l 1,18,19
 904 386 904 386 891 386 c 128,-1,20
 878 386 878 386 871 380 c 128,-1,21
 864 374 864 374 830.5 348.5 c 0,22,23
 742.5625 281.5625 742.5625 281.5625 735 274 c 1,24,25
 709 253 709 253 709 219 c 2,26,-1
 709 76 l 2,27,28
 709 44 709 44 687.5 22 c 128,-1,29
 666 0 666 0 634 0 c 2,30,-1
 236 0 l 2,31,32
 204 0 204 0 182 22 c 128,-1,33
 160 44 160 44 160 76 c 2,34,-1
 160 1369 l 2,35,36
 160 1401 160 1401 182 1422.5 c 128,-1,37
 204 1444 204 1444 236 1444 c 2,38,-1
 634 1444 l 2,39,40
 666 1444 666 1444 687.5 1422.5 c 128,-1,41
 709 1401 709 1401 709 1369 c 2,42,-1
 709 717 l 2,43,44
 709 699 709 699 727 699 c 0,45,46
 729 699 729 699 737 703 c 1,47,-1
 1097 957 l 2,48,49
 1165 1006 1165 1006 1236 1006 c 2,50,-1
 1801 1006 l 2,0,1
EndSplineSet
EndChar

StartChar: l
Encoding: 108 108 79
Width: 872
GlyphClass: 2
Flags: W
AnchorPoint: "Anchor-0" 880 1007 basechar 0
LayerCount: 2
Fore
SplineSet
236 0 m 2,0,1
 204 0 204 0 182.5 22 c 128,-1,2
 161 44 161 44 161 76 c 2,3,-1
 161 1369 l 2,4,5
 161 1401 161 1401 182.5 1422.5 c 128,-1,6
 204 1444 204 1444 236 1444 c 2,7,-1
 635 1444 l 2,8,9
 667 1444 667 1444 688.5 1422.5 c 128,-1,10
 710 1401 710 1401 710 1369 c 2,11,-1
 710 76 l 2,12,13
 710 44 710 44 688.5 22 c 128,-1,14
 667 0 667 0 635 0 c 2,15,-1
 236 0 l 2,0,1
EndSplineSet
EndChar

StartChar: m
Encoding: 109 109 80
Width: 2960
GlyphClass: 2
Flags: W
AnchorPoint: "Anchor-0" 1617 1022 basechar 0
LayerCount: 2
Fore
SplineSet
229 0 m 2,0,1
 197 0 197 0 175 22 c 128,-1,2
 153 44 153 44 153 76 c 2,3,-1
 153 929 l 2,4,5
 153 962 153 962 174 984 c 128,-1,6
 195 1006 195 1006 227 1006 c 2,7,-1
 324 1006 l 2,8,9
 401 1006 401 1006 438 942 c 1,10,-1
 516 814 l 2,11,12
 524 802 524 802 536 802 c 128,-1,13
 548 802 548 802 556 813 c 0,14,15
 642 930 642 930 787.5 991.5 c 128,-1,16
 933 1053 933 1053 1094 1053 c 0,17,18
 1429.02247191 1053 1429.02247191 1053 1607 873 c 0,19,20
 1619 861 1619 861 1633 861 c 128,-1,21
 1647 861 1647 861 1660 874 c 0,22,23
 1751 961 1751 961 1882 1007 c 128,-1,24
 2013 1053 2013 1053 2151 1053 c 128,-1,25
 2289 1053 2289 1053 2406.5 1019 c 128,-1,26
 2524 985 2524 985 2616.5 920.5 c 128,-1,27
 2709 856 2709 856 2763.5 752 c 128,-1,28
 2818 648 2818 648 2818 518 c 2,29,-1
 2818 76 l 2,30,31
 2818 44 2818 44 2796.5 22 c 128,-1,32
 2775 0 2775 0 2743 0 c 2,33,-1
 2330 0 l 2,34,35
 2298 0 2298 0 2276 22 c 128,-1,36
 2254 44 2254 44 2254 76 c 2,37,-1
 2254 513 l 2,38,39
 2254 654 2254 654 2194.5 717.5 c 128,-1,40
 2135 781 2135 781 2010 781 c 0,41,42
 1819.87037037 781 1819.87037037 781 1770.5 609 c 0,43,44
 1755 555 1755 555 1755 485 c 2,45,-1
 1755 76 l 2,46,47
 1755 44 1755 44 1733 22 c 128,-1,48
 1711 0 1711 0 1679 0 c 2,49,-1
 1278 0 l 2,50,51
 1246 0 1246 0 1224.5 22 c 128,-1,52
 1203 44 1203 44 1203 76 c 2,53,-1
 1203 513 l 2,54,55
 1203 626 1203 626 1139.5 703.5 c 128,-1,56
 1076 781 1076 781 967 781 c 0,57,58
 763.803278689 781 763.803278689 781 715 552 c 0,59,60
 702 491 702 491 702 420 c 2,61,-1
 702 76 l 2,62,63
 702 44 702 44 680.5 22 c 128,-1,64
 659 0 659 0 627 0 c 2,65,-1
 229 0 l 2,0,1
EndSplineSet
EndChar

StartChar: n
Encoding: 110 110 81
Width: 2024
GlyphClass: 2
Flags: W
AnchorPoint: "Anchor-0" 1136 1010 basechar 0
LayerCount: 2
Fore
SplineSet
229 0 m 2,0,1
 197 0 197 0 175 22 c 128,-1,2
 153 44 153 44 153 76 c 2,3,-1
 153 929 l 2,4,5
 153 962 153 962 174 984 c 128,-1,6
 195 1006 195 1006 227 1006 c 2,7,-1
 324 1006 l 2,8,9
 401 1006 401 1006 438 942 c 1,10,-1
 516 814 l 2,11,12
 524 801 524 801 536 801 c 128,-1,13
 548 801 548 801 557 812 c 0,14,15
 651 929 651 929 813.5 991 c 128,-1,16
 976 1053 976 1053 1178.5 1053 c 0,17,18
 1381 1053 1381 1053 1540 996 c 128,-1,19
 1699 939 1699 939 1790 817.5 c 128,-1,20
 1881 696 1881 696 1881 518 c 2,21,-1
 1881 76 l 2,22,23
 1881 44 1881 44 1859.5 22 c 128,-1,24
 1838 0 1838 0 1806 0 c 2,25,-1
 1396 0 l 2,26,27
 1364 0 1364 0 1342.5 22 c 128,-1,28
 1321 44 1321 44 1321 76 c 2,29,-1
 1321 513 l 2,30,31
 1321 625 1321 625 1238 703 c 128,-1,32
 1155 781 1155 781 1016.5 781 c 0,33,34
 878 781 878 781 790 700 c 128,-1,35
 702 619 702 619 702 513 c 2,36,-1
 702 76 l 2,37,38
 702 44 702 44 680.5 22 c 128,-1,39
 659 0 659 0 627 0 c 2,40,-1
 229 0 l 2,0,1
EndSplineSet
EndChar

StartChar: o
Encoding: 111 111 82
Width: 2002
GlyphClass: 2
Flags: W
AnchorPoint: "Anchor-1" 998 0 basechar 0
AnchorPoint: "Anchor-0" 1007 1010 basechar 0
LayerCount: 2
Fore
SplineSet
1001 215 m 128,-1,1
 1155 215 1155 215 1239.5 288 c 128,-1,2
 1324 361 1324 361 1324 500 c 128,-1,3
 1324 639 1324 639 1237.5 718.5 c 128,-1,4
 1151 798 1151 798 1001 798 c 128,-1,5
 851 798 851 798 764.5 718.5 c 128,-1,6
 678 639 678 639 678 500 c 128,-1,7
 678 361 678 361 762.5 288 c 128,-1,0
 847 215 847 215 1001 215 c 128,-1,1
835 -36.5 m 128,-1,9
 759 -32 759 -32 667 -18 c 128,-1,10
 575 -4 575 -4 502 20 c 128,-1,11
 429 44 429 44 357.5 85.5 c 128,-1,12
 286 127 286 127 238.5 183.5 c 0,13,14
 132 310.178947368 132 310.178947368 132 507 c 0,15,16
 132 1053 132 1053 1001 1053 c 128,-1,17
 1870 1053 1870 1053 1870 507 c 0,18,19
 1870 63.4130434783 1870 63.4130434783 1335 -18 c 0,20,21
 1183.85714286 -41 1183.85714286 -41 1047.42857143 -41 c 128,-1,8
 911 -41 911 -41 835 -36.5 c 128,-1,9
EndSplineSet
EndChar

StartChar: p
Encoding: 112 112 83
Width: 2037
GlyphClass: 2
Flags: W
LayerCount: 2
Fore
SplineSet
719 80 m 0,0,1
 702 80 702 80 702 61 c 2,2,-1
 702 -246 l 2,3,4
 702 -278 702 -278 682 -298 c 128,-1,5
 662 -318 662 -318 630 -318 c 2,6,-1
 223 -318 l 2,7,8
 191 -318 191 -318 172 -298 c 128,-1,9
 153 -278 153 -278 153 -246 c 2,10,-1
 153 924 l 2,11,12
 153 956 153 956 173.5 977.5 c 128,-1,13
 194 999 194 999 226 999 c 2,14,-1
 322 999 l 2,15,16
 395 999 395 999 437 932 c 0,17,18
 438 929 438 929 476 871 c 128,-1,19
 514 813 514 813 520.5 802.5 c 128,-1,20
 527 792 527 792 532.5 792 c 128,-1,21
 538 792 538 792 555 809 c 1,22,23
 648 927 648 927 812.5 990 c 128,-1,24
 977 1053 977 1053 1126.5 1053 c 128,-1,25
 1276 1053 1276 1053 1382 1033 c 128,-1,26
 1488 1013 1488 1013 1583.5 969 c 128,-1,27
 1679 925 1679 925 1750 862.5 c 0,28,29
 1905 726.056338028 1905 726.056338028 1905 511 c 0,30,31
 1905 186.358695652 1905 186.358695652 1594 41 c 0,32,33
 1418.55813953 -41 1418.55813953 -41 1197 -41 c 0,34,35
 897.431034483 -41 897.431034483 -41 730 76 c 0,36,37
 724 80 724 80 719 80 c 0,0,1
788.5 295 m 128,-1,39
 875 213 875 213 1019.5 213 c 128,-1,40
 1164 213 1164 213 1248 294.5 c 128,-1,41
 1332 376 1332 376 1332 496 c 128,-1,42
 1332 616 1332 616 1248 698.5 c 128,-1,43
 1164 781 1164 781 1019 781 c 128,-1,44
 874 781 874 781 788 699 c 128,-1,45
 702 617 702 617 702 497 c 128,-1,38
 702 377 702 377 788.5 295 c 128,-1,39
EndSplineSet
EndChar

StartChar: q
Encoding: 113 113 84
Width: 2040
GlyphClass: 2
Flags: W
LayerCount: 2
Fore
SplineSet
1336 61 m 2,0,1
 1336 80 1336 80 1319 80 c 0,2,3
 1314 80 1314 80 1308 76 c 0,4,5
 1140.56896552 -41 1140.56896552 -41 841 -41 c 0,6,7
 619.441860465 -41 619.441860465 -41 444 41 c 0,8,9
 247.919871326 132.646147098 247.919871326 132.646147098 173 303.5 c 0,10,11
 132 397 132 397 132 508 c 128,-1,12
 132 619 132 619 174 709.5 c 128,-1,13
 216 800 216 800 287.5 862.5 c 128,-1,14
 359 925 359 925 454.5 969 c 0,15,16
 636.818181818 1053 636.818181818 1053 848.909090909 1053 c 128,-1,17
 1061 1053 1061 1053 1225.5 990 c 128,-1,18
 1390 927 1390 927 1483 809 c 1,19,20
 1493 799 1493 799 1503.5 799 c 128,-1,21
 1514 799 1514 799 1519 806 c 128,-1,22
 1524 813 1524 813 1562.5 871.5 c 128,-1,23
 1601 930 1601 930 1602 933 c 0,24,25
 1643 999 1643 999 1716 999 c 2,26,-1
 1812 999 l 2,27,28
 1844 999 1844 999 1864.5 977.5 c 128,-1,29
 1885 956 1885 956 1885 924 c 2,30,-1
 1885 -243 l 2,31,32
 1885 -275 1885 -275 1863.5 -296.5 c 128,-1,33
 1842 -318 1842 -318 1810 -318 c 2,34,-1
 1411 -318 l 2,35,36
 1379 -318 1379 -318 1357.5 -296.5 c 128,-1,37
 1336 -275 1336 -275 1336 -243 c 2,38,-1
 1336 61 l 2,0,1
790 294.5 m 128,-1,40
 874 213 874 213 1018.5 213 c 128,-1,41
 1163 213 1163 213 1249.5 295.5 c 128,-1,42
 1336 378 1336 378 1336 497.5 c 128,-1,43
 1336 617 1336 617 1250 699 c 128,-1,44
 1164 781 1164 781 1019 781 c 128,-1,45
 874 781 874 781 790 698.5 c 128,-1,46
 706 616 706 616 706 496 c 128,-1,39
 706 376 706 376 790 294.5 c 128,-1,40
EndSplineSet
EndChar

StartChar: r
Encoding: 114 114 85
Width: 1362
GlyphClass: 2
Flags: W
AnchorPoint: "Anchor-0" 699 1010 basechar 0
LayerCount: 2
Fore
SplineSet
795 998 m 128,-1,1
 923 1053 923 1053 1076 1053 c 128,-1,2
 1229 1053 1229 1053 1229 990 c 2,3,-1
 1229 807 l 2,4,5
 1229 742 1229 742 1181 742 c 2,6,-1
 997 742 l 2,7,8
 823.6 742 823.6 742 743.5 608.5 c 0,9,10
 702 539.333333333 702 539.333333333 702 466 c 2,11,-1
 702 76 l 2,12,13
 702 44 702 44 680.5 22 c 128,-1,14
 659 0 659 0 627 0 c 2,15,-1
 229 0 l 2,16,17
 197 0 197 0 175 22 c 128,-1,18
 153 44 153 44 153 76 c 2,19,-1
 153 929 l 2,20,21
 153 1006 153 1006 210 1006 c 2,22,-1
 350 1006 l 2,23,24
 383 1006 383 1006 400 991.5 c 128,-1,25
 417 977 417 977 438 942 c 2,26,-1
 516 814 l 2,27,28
 524 801 524 801 536 801 c 128,-1,29
 548 801 548 801 558 813 c 0,30,0
 667 943 667 943 795 998 c 128,-1,1
EndSplineSet
EndChar

StartChar: s
Encoding: 115 115 86
Width: 1827
GlyphClass: 2
Flags: W
AnchorPoint: "Anchor-1" 915 0 basechar 0
AnchorPoint: "Anchor-0" 895 1010 basechar 0
LayerCount: 2
Fore
SplineSet
1158 -31.5 m 128,-1,1
 1043 -41 1043 -41 881.5 -41 c 128,-1,2
 720 -41 720 -41 527 -17.5 c 128,-1,3
 334 6 334 6 197 59 c 0,4,5
 153 75.9230769231 153 75.9230769231 153 128 c 0,6,7
 153 142 153 142 158 154 c 2,8,-1
 211 259 l 2,9,10
 236.5 310 236.5 310 289 310 c 0,11,12
 303 310 303 310 316 306 c 0,13,14
 603 218 603 218 993 218 c 0,15,16
 1113 218 1113 218 1165 235.5 c 128,-1,17
 1217 253 1217 253 1217 298 c 128,-1,18
 1217 343 1217 343 1161 357.5 c 128,-1,19
 1105 372 1105 372 991.5 379.5 c 128,-1,20
 878 387 878 387 841.5 389.5 c 128,-1,21
 805 392 805 392 761 395.5 c 128,-1,22
 717 399 717 399 653 405.5 c 128,-1,23
 589 412 589 412 543 419.5 c 128,-1,24
 497 427 497 427 441 440 c 128,-1,25
 385 453 385 453 345.5 469 c 128,-1,26
 306 485 306 485 266.5 508 c 128,-1,27
 227 531 227 531 202.5 558.5 c 0,28,29
 148 619.673469388 148 619.673469388 148 690.336734694 c 128,-1,30
 148 761 148 761 169 809 c 128,-1,31
 190 857 190 857 228.5 891.5 c 128,-1,32
 267 926 267 926 314.5 953 c 128,-1,33
 362 980 362 980 422 997 c 128,-1,34
 482 1014 482 1014 539.5 1025.5 c 128,-1,35
 597 1037 597 1037 662.5 1043 c 0,36,37
 771.666666667 1053 771.666666667 1053 936.333333333 1053 c 128,-1,38
 1101 1053 1101 1053 1252 1036.5 c 128,-1,39
 1403 1020 1403 1020 1548 964 c 1,40,41
 1590 946.315789474 1590 946.315789474 1590 898 c 0,42,43
 1590 883 1590 883 1584 870 c 2,44,-1
 1539 776 l 1,45,46
 1515.42857143 731 1515.42857143 731 1463 731 c 1,47,48
 1445.33333333 731 1445.33333333 731 1387.16666667 751 c 0,49,50
 1235.93333333 803 1235.93333333 803 918 803 c 0,51,52
 689 803 689 803 634 770 c 0,53,54
 609 755 609 755 609 733 c 0,55,56
 609 695.866666667 609 695.866666667 705 682 c 1,57,58
 820.071428571 669.214285714 820.071428571 669.214285714 953.535714286 663.107142857 c 128,-1,59
 1087 657 1087 657 1127 654 c 128,-1,60
 1167 651 1167 651 1221.5 646 c 128,-1,61
 1276 641 1276 641 1316 634 c 128,-1,62
 1356 627 1356 627 1403.5 617 c 128,-1,63
 1451 607 1451 607 1486 593 c 128,-1,64
 1521 579 1521 579 1557.5 560.5 c 128,-1,65
 1594 542 1594 542 1619 517 c 128,-1,66
 1644 492 1644 492 1664.5 461.5 c 0,67,68
 1705 401.243902439 1705 401.243902439 1705 313.62195122 c 128,-1,69
 1705 226 1705 226 1664 164.5 c 128,-1,70
 1623 103 1623 103 1552.5 64.5 c 128,-1,71
 1482 26 1482 26 1377.5 2 c 128,-1,0
 1273 -22 1273 -22 1158 -31.5 c 128,-1,1
EndSplineSet
EndChar

StartChar: t
Encoding: 116 116 87
Width: 1605
GlyphClass: 4
Flags: W
AnchorPoint: "Anchor-0" 676 1431 basechar 0
AnchorPoint: "Anchor-1" 1006 0 mark 0
LayerCount: 2
Fore
SplineSet
1397 -2 m 0,0,1
 1231 -41 1231 -41 1084.5 -41 c 128,-1,2
 938 -41 938 -41 838 -25.5 c 128,-1,3
 738 -10 738 -10 644 28 c 128,-1,4
 550 66 550 66 482 124 c 128,-1,5
 414 182 414 182 373 272 c 128,-1,6
 332 362 332 362 332 475 c 2,7,-1
 332 762 l 2,8,9
 332 777 332 777 322 787 c 128,-1,10
 312 797 312 797 297 797 c 2,11,-1
 171 797 l 2,12,13
 139 797 139 797 117.5 819 c 128,-1,14
 96 841 96 841 96 873 c 2,15,-1
 96 931 l 2,16,17
 96 963 96 963 117.5 984.5 c 128,-1,18
 139 1006 139 1006 171 1006 c 2,19,-1
 297 1006 l 2,20,21
 325 1006 325 1006 332 1042 c 2,22,-1
 401 1374 l 1,23,24
 402 1407 402 1407 423 1428.5 c 128,-1,25
 444 1450 444 1450 476 1450 c 2,26,-1
 831 1450 l 2,27,28
 863 1450 863 1450 884.5 1428 c 128,-1,29
 906 1406 906 1406 906 1374 c 2,30,-1
 906 1042 l 2,31,32
 906 1027 906 1027 916.5 1016.5 c 128,-1,33
 927 1006 927 1006 942 1006 c 2,34,-1
 1314 1006 l 2,35,36
 1346 1006 1346 1006 1367.5 984.5 c 128,-1,37
 1389 963 1389 963 1389 931 c 2,38,-1
 1389 873 l 2,39,40
 1389 841 1389 841 1367.5 819 c 128,-1,41
 1346 797 1346 797 1314 797 c 2,42,-1
 942 797 l 2,43,44
 927 797 927 797 916.5 787 c 128,-1,45
 906 777 906 777 906 762 c 2,46,-1
 906 433 l 2,47,48
 906 254 906 254 1155 254 c 0,49,50
 1245 254 1245 254 1402.5 289 c 0,51,52
 1407 290 1407 290 1412.5 290 c 128,-1,53
 1418 290 1418 290 1424.5 288.5 c 128,-1,54
 1431 287 1431 287 1436 284 c 128,-1,55
 1441 281 1441 281 1446 277.5 c 128,-1,56
 1451 274 1451 274 1454.5 269 c 128,-1,57
 1458 264 1458 264 1460.5 258 c 0,58,59
 1467 242.4 1467 242.4 1467 232 c 2,60,-1
 1468 88 l 2,61,62
 1469 57 1469 57 1448.5 31.5 c 128,-1,63
 1428 6 1428 6 1397 -2 c 0,0,1
EndSplineSet
EndChar

StartChar: u
Encoding: 117 117 88
Width: 2030
GlyphClass: 2
Flags: W
AnchorPoint: "Anchor-1" 1729 3 basechar 0
AnchorPoint: "Anchor-0" 1017 997 basechar 0
LayerCount: 2
Fore
SplineSet
1215 20 m 128,-1,1
 1052 -42 1052 -42 888.5 -42 c 128,-1,2
 725 -42 725 -42 597.5 -8.5 c 128,-1,3
 470 25 470 25 368 89 c 128,-1,4
 266 153 266 153 205.5 257.5 c 128,-1,5
 145 362 145 362 145 493 c 2,6,-1
 145 941 l 2,7,8
 145 973 145 973 167 994.5 c 128,-1,9
 189 1016 189 1016 221 1016 c 2,10,-1
 644 1016 l 2,11,12
 676 1016 676 1016 697.5 994.5 c 128,-1,13
 719 973 719 973 719 941 c 2,14,-1
 719 499 l 2,15,16
 719 385 719 385 797 308 c 128,-1,17
 875 231 875 231 1013 231 c 128,-1,18
 1151 231 1151 231 1239.5 312 c 128,-1,19
 1328 393 1328 393 1328 499 c 2,20,-1
 1328 941 l 2,21,22
 1328 973 1328 973 1349.5 994.5 c 128,-1,23
 1371 1016 1371 1016 1403 1016 c 2,24,-1
 1801 1016 l 2,25,26
 1833 1016 1833 1016 1855 994.5 c 128,-1,27
 1877 973 1877 973 1877 941 c 2,28,-1
 1877 77 l 2,29,30
 1877 44 1877 44 1856 22 c 128,-1,31
 1835 0 1835 0 1803 0 c 2,32,-1
 1706 0 l 2,33,34
 1630 0 1630 0 1593 64 c 1,35,-1
 1513 197 l 2,36,37
 1505 210 1505 210 1493.5 210 c 128,-1,38
 1482 210 1482 210 1472 198 c 0,39,0
 1378 82 1378 82 1215 20 c 128,-1,1
EndSplineSet
EndChar

StartChar: v
Encoding: 118 118 89
Width: 1938
GlyphClass: 2
Flags: W
LayerCount: 2
Fore
SplineSet
711 0 m 2,0,1
 637.290322581 0 637.290322581 0 600 68 c 2,2,-1
 121 938 l 2,3,4
 115 949 115 949 115 965 c 128,-1,5
 115 981 115 981 127.5 993.5 c 128,-1,6
 140 1006 140 1006 160 1006 c 2,7,-1
 616 1006 l 2,8,9
 688.65625 1006 688.65625 1006 721 937 c 1,10,-1
 990 393 l 2,11,12
 996 383 996 383 1006.5 383 c 128,-1,13
 1017 383 1017 383 1021 393 c 2,14,-1
 1276 937 l 1,15,16
 1310.5 1006 1310.5 1006 1384 1006 c 2,17,-1
 1776 1006 l 2,18,19
 1796 1006 1796 1006 1808.5 993.5 c 128,-1,20
 1821 981 1821 981 1821 966 c 128,-1,21
 1821 951 1821 951 1813 939 c 1,22,-1
 1334 67 l 2,23,24
 1317 37 1317 37 1286 18.5 c 128,-1,25
 1255 0 1255 0 1221 0 c 2,26,-1
 711 0 l 2,0,1
EndSplineSet
EndChar

StartChar: w
Encoding: 119 119 90
Width: 2682
GlyphClass: 2
Flags: W
AnchorPoint: "Anchor-0" 1355 1004 basechar 0
LayerCount: 2
Fore
SplineSet
570 0 m 2,0,1
 537 0 537 0 509 19.5 c 128,-1,2
 481 39 481 39 468 71 c 2,3,-1
 125 935 l 2,4,5
 121 944 121 944 121 960.5 c 0,6,7
 121 977 121 977 135.5 991.5 c 128,-1,8
 150 1006 150 1006 172 1006 c 2,9,-1
 610 1006 l 2,10,11
 644 1006 644 1006 669 985.5 c 128,-1,12
 694 965 694 965 702 932 c 1,13,-1
 857 396 l 2,14,15
 860 387 860 387 867.5 387 c 0,16,17
 875 387 875 387 877 395 c 2,18,-1
 1060 934 l 1,19,20
 1070 967 1070 967 1097 986.5 c 128,-1,21
 1124 1006 1124 1006 1158 1006 c 2,22,-1
 1573 1006 l 2,23,24
 1605 1006 1605 1006 1631 986 c 128,-1,25
 1657 966 1657 966 1668 934 c 2,26,-1
 1855 395 l 1,27,28
 1856 388 1856 388 1865 388 c 128,-1,29
 1874 388 1874 388 1876 396 c 2,30,-1
 2035 933 l 2,31,32
 2045 966 2045 966 2071 986 c 128,-1,33
 2097 1006 2097 1006 2131 1006 c 2,34,-1
 2507 1006 l 2,35,36
 2528 1006 2528 1006 2542.5 992 c 128,-1,37
 2557 978 2557 978 2557 963 c 0,38,39
 2557 948 2557 948 2551 936 c 2,40,-1
 2188 70 l 2,41,42
 2175 39 2175 39 2145.5 19.5 c 128,-1,43
 2116 0 2116 0 2082 0 c 2,44,-1
 1570 0 l 2,45,46
 1537 0 1537 0 1510 20.5 c 128,-1,47
 1483 41 1483 41 1473 73 c 2,48,-1
 1338 480 l 2,49,50
 1335 488 1335 488 1327.5 488 c 0,51,52
 1320 488 1320 488 1318 480 c 2,53,-1
 1181 73 l 2,54,55
 1171 41 1171 41 1143 20.5 c 128,-1,56
 1115 0 1115 0 1082 0 c 2,57,-1
 570 0 l 2,0,1
EndSplineSet
EndChar

StartChar: x
Encoding: 120 120 91
Width: 2191
GlyphClass: 2
Flags: W
LayerCount: 2
Fore
SplineSet
184 0 m 2,0,1
 158 0 158 0 158 26 c 0,2,3
 158 37 158 37 168 46 c 0,4,5
 179 55 179 55 438.5 249.5 c 128,-1,6
 698 444 698 444 711 453.5 c 128,-1,7
 724 463 724 463 724 476.5 c 128,-1,8
 724 490 724 490 707 503 c 128,-1,9
 690 516 690 516 423.5 732.5 c 128,-1,10
 157 949 157 949 147 957 c 128,-1,11
 137 965 137 965 137 977.5 c 128,-1,12
 137 990 137 990 145 998 c 128,-1,13
 153 1006 153 1006 165 1006 c 2,14,-1
 814 1006 l 2,15,16
 888 1006 888 1006 946 956 c 0,17,18
 951 953 951 953 986 923 c 0,19,20
 1085.75 837.5 1085.75 837.5 1105.875 821.75 c 128,-1,21
 1126 806 1126 806 1140.5 806 c 128,-1,22
 1155 806 1155 806 1169 817 c 128,-1,23
 1183 828 1183 828 1262 892 c 128,-1,24
 1341 956 1341 956 1344 958 c 0,25,26
 1405 1006 1405 1006 1477 1006 c 2,27,-1
 1941 1006 l 2,28,29
 1952 1006 1952 1006 1959.5 998.5 c 128,-1,30
 1967 991 1967 991 1967 979.5 c 128,-1,31
 1967 968 1967 968 1957.5 961 c 128,-1,32
 1948 954 1948 954 1709.5 775.5 c 128,-1,33
 1471 597 1471 597 1457 586 c 128,-1,34
 1443 575 1443 575 1443 562.5 c 128,-1,35
 1443 550 1443 550 1453 542 c 0,36,37
 1573 443 1573 443 2059 48 c 0,38,39
 2069 41 2069 41 2069 28.5 c 128,-1,40
 2069 16 2069 16 2061 8 c 128,-1,41
 2053 0 2053 0 2041 0 c 2,42,-1
 1393 0 l 2,43,44
 1316 0 1316 0 1258 50 c 0,45,46
 1254 53 1254 53 1173 122 c 128,-1,47
 1092 191 1092 191 1078 202.5 c 128,-1,48
 1064 214 1064 214 1049.5 214 c 128,-1,49
 1035 214 1035 214 1019.5 201.5 c 0,50,51
 886.575757576 94.303030303 886.575757576 94.303030303 819 47 c 1,52,53
 759 0 759 0 681 0 c 2,54,-1
 184 0 l 2,0,1
EndSplineSet
EndChar

StartChar: y
Encoding: 121 121 92
Width: 1844
GlyphClass: 2
Flags: W
AnchorPoint: "Anchor-0" 980 1010 basechar 0
LayerCount: 2
Fore
SplineSet
311 -596 m 0,0,1
 280 -580 280 -580 280 -547.5 c 128,-1,2
 280 -515 280 -515 287 -498 c 2,3,-1
 339 -375 l 2,4,5
 354 -340 354 -340 400 -340 c 0,6,7
 408 -340 408 -340 432 -347.5 c 128,-1,8
 456 -355 456 -355 515.5 -363 c 128,-1,9
 575 -371 575 -371 604 -371 c 0,10,11
 781 -371 781 -371 795 -233 c 1,12,13
 795 -210.333333333 795 -210.333333333 767 -163.666666667 c 128,-1,14
 739 -117 739 -117 737 -113 c 2,15,-1
 113 940 l 2,16,17
 106 951 106 951 106 966.5 c 128,-1,18
 106 982 106 982 118.5 994 c 128,-1,19
 131 1006 131 1006 150 1006 c 2,20,-1
 606 1006 l 2,21,22
 679.65625 1006 679.65625 1006 712 937 c 1,23,-1
 995 387 l 1,24,25
 998 377 998 377 1009 377 c 128,-1,26
 1020 377 1020 377 1024.5 387 c 128,-1,27
 1029 397 1029 397 1239 934 c 0,28,29
 1266.52941176 1006 1266.52941176 1006 1342 1006 c 2,30,-1
 1679 1006 l 2,31,32
 1700 1006 1700 1006 1714.5 991.5 c 128,-1,33
 1729 977 1729 977 1729 961 c 128,-1,34
 1729 945 1729 945 1724 936 c 2,35,-1
 1162 -269 l 1,36,37
 1052.64927858 -506.447280799 1052.64927858 -506.447280799 905 -589.5 c 0,38,39
 785 -657 785 -657 604.5 -657 c 128,-1,40
 424 -657 424 -657 311 -596 c 0,0,1
EndSplineSet
EndChar

StartChar: z
Encoding: 122 122 93
Width: 1665
GlyphClass: 2
Flags: W
AnchorPoint: "Anchor-0" 894 1006 basechar 0
LayerCount: 2
Fore
SplineSet
190 0 m 2,0,1
 175 0 175 0 162 11 c 128,-1,2
 149 22 149 22 149 37 c 2,3,-1
 149 220 l 2,4,5
 149 257 149 257 178 280 c 2,6,-1
 766 749 l 1,7,-1
 190 749 l 2,8,9
 175 749 175 749 164 760 c 128,-1,10
 153 771 153 771 153 786 c 2,11,-1
 153 969 l 2,12,13
 153 984 153 984 164 995 c 128,-1,14
 175 1006 175 1006 190 1006 c 2,15,-1
 1440 1006 l 2,16,17
 1455 1006 1455 1006 1468.5 995 c 128,-1,18
 1482 984 1482 984 1482 969 c 2,19,-1
 1482 783 l 2,20,21
 1482 746 1482 746 1453 722 c 2,22,-1
 884 257 l 1,23,-1
 1484 257 l 2,24,25
 1499 257 1499 257 1510 246 c 128,-1,26
 1521 235 1521 235 1521 220 c 2,27,-1
 1521 37 l 2,28,29
 1521 22 1521 22 1510 11 c 128,-1,30
 1499 0 1499 0 1484 0 c 2,31,-1
 190 0 l 2,0,1
EndSplineSet
EndChar

StartChar: braceleft
Encoding: 123 123 94
Width: 1172
GlyphClass: 2
Flags: W
LayerCount: 2
Fore
SplineSet
730 -123 m 2,0,1
 559.255319149 -123 559.255319149 -123 487.5 -28 c 0,2,3
 419.1625 62.475 419.1625 62.475 397 225 c 1,4,5
 370.481481481 380.796296296 370.481481481 380.796296296 357.240740741 413.898148148 c 128,-1,6
 344 447 344 447 330 474.5 c 128,-1,7
 316 502 316 502 299 518 c 0,8,9
 258.265927978 556.337950139 258.265927978 556.337950139 210.132963989 567.668975069 c 128,-1,10
 162 579 162 579 144 612 c 128,-1,11
 126 645 126 645 126 713 c 128,-1,12
 126 781 126 781 143.5 810.5 c 128,-1,13
 161 840 161 840 204 851 c 0,14,15
 300 874 300 874 345 975 c 1,16,17
 370 1034 370 1034 385 1125.5 c 128,-1,18
 400 1217 400 1217 407.5 1258.5 c 128,-1,19
 415 1300 415 1300 433.5 1350.5 c 128,-1,20
 452 1401 452 1401 487.5 1448 c 0,21,22
 559.255319149 1543 559.255319149 1543 730 1543 c 2,23,-1
 967 1543 l 2,24,25
 999 1543 999 1543 1021.5 1521.5 c 128,-1,26
 1044 1500 1044 1500 1044 1469 c 2,27,-1
 1044 1368 l 2,28,29
 1044 1292 1044 1292 968 1279 c 1,30,31
 872 1261 872 1261 847 1233 c 128,-1,32
 822 1205 822 1205 822 1110 c 2,33,-1
 822 1008 l 2,34,35
 822 911 822 911 776 831 c 128,-1,36
 730 751 730 751 631 725 c 0,37,38
 621 722 621 722 621 710 c 128,-1,39
 621 698 621 698 631 695 c 0,40,41
 727 666 727 666 774.5 585.5 c 128,-1,42
 822 505 822 505 822 412 c 2,43,-1
 822 310 l 2,44,45
 822 214 822 214 846.5 186.5 c 128,-1,46
 871 159 871 159 968 141 c 1,47,48
 1044 128 1044 128 1044 52 c 2,49,-1
 1044 -49 l 2,50,51
 1044 -80 1044 -80 1021.5 -101.5 c 128,-1,52
 999 -123 999 -123 967 -123 c 2,53,-1
 730 -123 l 2,0,1
EndSplineSet
EndChar

StartChar: bar
Encoding: 124 124 95
Width: 622
GlyphClass: 2
Flags: W
LayerCount: 2
Fore
SplineSet
238 -150 m 2,0,1
 205 -150 205 -150 183 -129 c 128,-1,2
 161 -108 161 -108 161 -76 c 2,3,-1
 161 1481 l 2,4,5
 161 1513 161 1513 183 1534 c 128,-1,6
 205 1555 205 1555 238 1555 c 2,7,-1
 384 1555 l 2,8,9
 417 1555 417 1555 439 1534 c 128,-1,10
 461 1513 461 1513 461 1481 c 2,11,-1
 461 -76 l 2,12,13
 461 -108 461 -108 439 -129 c 128,-1,14
 417 -150 417 -150 384 -150 c 2,15,-1
 238 -150 l 2,0,1
EndSplineSet
EndChar

StartChar: braceright
Encoding: 125 125 96
Width: 1175
GlyphClass: 2
Flags: W
LayerCount: 2
Fore
SplineSet
206 -123 m 2,0,1
 174 -123 174 -123 151.5 -101.5 c 128,-1,2
 129 -80 129 -80 129 -49 c 2,3,-1
 129 52 l 2,4,5
 129 128 129 128 205 141 c 1,6,7
 300 159 300 159 325 187 c 128,-1,8
 350 215 350 215 350 310 c 2,9,-1
 350 412 l 2,10,11
 350 509 350 509 396 589 c 128,-1,12
 442 669 442 669 541 695 c 0,13,14
 551 698 551 698 551 710 c 128,-1,15
 551 722 551 722 541 725 c 0,16,17
 445 754 445 754 397.5 834.5 c 128,-1,18
 350 915 350 915 350 1008 c 2,19,-1
 350 1110 l 2,20,21
 350 1206 350 1206 325.5 1233.5 c 128,-1,22
 301 1261 301 1261 205 1279 c 1,23,24
 129 1292 129 1292 129 1368 c 2,25,-1
 129 1469 l 2,26,27
 129 1500 129 1500 151.5 1521.5 c 128,-1,28
 174 1543 174 1543 206 1543 c 2,29,-1
 443 1543 l 2,30,31
 612.744680851 1543 612.744680851 1543 684.5 1448 c 0,32,33
 750.633567663 1360.44288225 750.633567663 1360.44288225 775 1198 c 1,34,35
 802.307847082 1037.18712274 802.307847082 1037.18712274 814.653923541 1007.09356137 c 128,-1,36
 827 977 827 977 842 947 c 128,-1,37
 857 917 857 917 873.5 902 c 0,38,39
 916.340807175 863.053811659 916.340807175 863.053811659 963.170403587 852.02690583 c 128,-1,40
 1010 841 1010 841 1028 808 c 128,-1,41
 1046 775 1046 775 1046 707 c 128,-1,42
 1046 639 1046 639 1028.5 609.5 c 128,-1,43
 1011 580 1011 580 968 569 c 1,44,45
 871 547 871 547 827 445 c 0,46,47
 802 385 802 385 787 293.5 c 128,-1,48
 772 202 772 202 764.5 161 c 128,-1,49
 757 120 757 120 738.5 69.5 c 128,-1,50
 720 19 720 19 684.5 -28 c 0,51,52
 612.744680851 -123 612.744680851 -123 443 -123 c 2,53,-1
 206 -123 l 2,0,1
EndSplineSet
EndChar

StartChar: asciitilde
Encoding: 126 126 97
Width: 1583
GlyphClass: 2
Flags: W
LayerCount: 2
Fore
SplineSet
530 795 m 0,0,1
 356 795 356 795 162 928 c 1,2,3
 122 951 122 951 122 982 c 0,4,5
 122 993 122 993 131 1007 c 1,6,-1
 186 1107 l 1,7,8
 204 1143 204 1143 225.5 1143 c 128,-1,9
 247 1143 247 1143 270 1129 c 0,10,11
 423 1036 423 1036 528 1036 c 0,12,13
 625.930232558 1036 625.930232558 1036 771.5 1094.5 c 128,-1,14
 917.069767442 1153 917.069767442 1153 1062.53488372 1153 c 128,-1,15
 1208 1153 1208 1153 1411 1045 c 1,16,17
 1452 1026 1452 1026 1452 995 c 0,18,19
 1452 975.615384615 1452 975.615384615 1419 902 c 1,20,-1
 1406 872 l 1,21,22
 1388 818 1388 818 1353 818 c 0,23,24
 1336 818 1336 818 1319 829 c 1,25,26
 1167 911 1167 911 1075.5 911 c 128,-1,27
 984 911 984 911 892 882 c 128,-1,28
 800 853 800 853 706 824 c 128,-1,29
 612 795 612 795 530 795 c 0,0,1
EndSplineSet
EndChar

StartChar: cent
Encoding: 162 162 99
Width: 1765
GlyphClass: 2
Flags: W
LayerCount: 2
Fore
SplineSet
1122 -147 m 2,0,1
 1122 -204 1122 -204 1055 -204 c 2,2,-1
 1002 -204 l 2,3,4
 935 -204 935 -204 935 -147 c 2,5,-1
 935 -5 l 1,6,7
 514.23587241 4.8616592404 514.23587241 4.8616592404 295.5 170 c 0,8,9
 220 227 220 227 175 313 c 128,-1,10
 130 399 130 399 130 504.5 c 128,-1,11
 130 610 130 610 175.5 695 c 128,-1,12
 221 780 221 780 297.5 836.5 c 128,-1,13
 374 893 374 893 479 932.5 c 0,14,15
 673.656030287 1005.72774473 673.656030287 1005.72774473 935 1012 c 1,16,-1
 935 1214 l 2,17,18
 935 1271 935 1271 1002 1271 c 2,19,-1
 1055 1271 l 2,20,21
 1122 1271 1122 1271 1122 1214 c 2,22,-1
 1122 1007 l 1,23,24
 1380 988 1380 988 1562 916 c 1,25,26
 1609 895.857142857 1609 895.857142857 1609 848 c 0,27,28
 1609 835 1609 835 1605 825 c 128,-1,29
 1601 815 1601 815 1564 723 c 0,30,31
 1546 679 1546 679 1498 679 c 0,32,33
 1484 679 1484 679 1470 683 c 0,34,35
 1292 744 1292 744 1122 756 c 1,36,-1
 1122 245 l 1,37,38
 1294 253 1294 253 1480 307 c 0,39,40
 1493 311 1493 311 1511 311 c 0,41,42
 1554.85714286 311 1554.85714286 311 1570.42857143 267 c 128,-1,43
 1586 223 1586 223 1598.5 190 c 0,44,45
 1613 151.72 1613 151.72 1613 135.36 c 128,-1,46
 1613 119 1613 119 1599.5 101 c 128,-1,47
 1586 83 1586 83 1563 77 c 1,48,49
 1361 13 1361 13 1122 -3 c 1,50,-1
 1122 -147 l 2,0,1
935 257 m 1,51,-1
 935 749 l 1,52,53
 822 730 822 730 754.5 670.5 c 128,-1,54
 687 611 687 611 687 506 c 128,-1,55
 687 401 687 401 754 340 c 128,-1,56
 821 279 821 279 935 257 c 1,51,-1
EndSplineSet
EndChar

StartChar: sterling
Encoding: 163 163 100
Width: 2201
GlyphClass: 2
Flags: W
LayerCount: 2
Fore
SplineSet
220 0 m 2,0,1
 188 0 188 0 167 21.5 c 128,-1,2
 146 43 146 43 146 75 c 2,3,-1
 146 181 l 2,4,5
 146 213 146 213 167 234.5 c 128,-1,6
 188 256 188 256 220 256 c 2,7,-1
 338 256 l 2,8,9
 359 256 359 256 364.5 268 c 128,-1,10
 370 280 370 280 370 314 c 2,11,-1
 370 560 l 2,12,13
 370 603 370 603 338 603 c 2,14,-1
 220 603 l 2,15,16
 188 603 188 603 167 624.5 c 128,-1,17
 146 646 146 646 146 678 c 2,18,-1
 146 768 l 2,19,20
 146 800 146 800 167 821.5 c 128,-1,21
 188 843 188 843 220 843 c 2,22,-1
 354 843 l 1,23,24
 376 1006 376 1006 438.5 1120.5 c 128,-1,25
 501 1235 501 1235 620 1316.5 c 0,26,27
 851.429447853 1475 851.429447853 1475 1371 1475 c 0,28,29
 1535 1475 1535 1475 1721 1448.5 c 128,-1,30
 1907 1422 1907 1422 2006 1393 c 1,31,32
 2059 1379 2059 1379 2059 1336 c 0,33,34
 2059 1287.28571429 2059 1287.28571429 2048 1223.64285714 c 128,-1,35
 2037 1160 2037 1160 2034 1139 c 0,36,37
 2027 1095 2027 1095 1990 1095 c 0,38,39
 1980 1095 1980 1095 1973 1096.5 c 128,-1,40
 1966 1098 1966 1098 1936.5 1103.5 c 128,-1,41
 1907 1109 1907 1109 1879 1114 c 128,-1,42
 1851 1119 1851 1119 1806 1126.5 c 128,-1,43
 1761 1134 1761 1134 1718 1140 c 128,-1,44
 1675 1146 1675 1146 1628 1152 c 0,45,46
 1534 1164 1534 1164 1450.5 1164 c 128,-1,47
 1367 1164 1367 1164 1311 1159 c 128,-1,48
 1255 1154 1255 1154 1203.5 1139 c 128,-1,49
 1152 1124 1152 1124 1123.5 1096 c 0,50,51
 1062 1035.57894737 1062 1035.57894737 1062 906 c 2,52,-1
 1062 843 l 1,53,-1
 1462 843 l 2,54,55
 1494 843 1494 843 1515 821.5 c 128,-1,56
 1536 800 1536 800 1536 768 c 2,57,-1
 1536 678 l 2,58,59
 1536 646 1536 646 1515 624.5 c 128,-1,60
 1494 603 1494 603 1462 603 c 2,61,-1
 1060 603 l 1,62,-1
 1060 356 l 2,63,64
 1060 319 1060 319 1062 303.5 c 128,-1,65
 1064 288 1064 288 1076.5 274.5 c 128,-1,66
 1089 261 1089 261 1111 258.5 c 128,-1,67
 1133 256 1133 256 1178 256 c 2,68,-1
 1987 256 l 2,69,70
 2013 256 2013 256 2031 240.5 c 128,-1,71
 2049 225 2049 225 2049 195 c 2,72,-1
 2049 54 l 2,73,74
 2049 29 2049 29 2031 14.5 c 128,-1,75
 2013 0 2013 0 1987 0 c 2,76,-1
 220 0 l 2,0,1
EndSplineSet
EndChar

StartChar: currency
Encoding: 164 164 101
Width: 1362
GlyphClass: 2
Flags: W
LayerCount: 2
Fore
SplineSet
1005 515 m 1,0,1
 868 426 868 426 679 426 c 128,-1,2
 490 426 490 426 355 515 c 1,3,-1
 324 484 l 2,4,5
 285 445 285 445 269 445 c 128,-1,6
 253 445 253 445 242 457 c 2,7,-1
 210 489 l 2,8,9
 196 503 196 503 196 520 c 128,-1,10
 196 537 196 537 233 574 c 2,11,-1
 258 599 l 1,12,13
 140 734 140 734 140 932 c 128,-1,14
 140 1130 140 1130 260 1268 c 1,15,-1
 233 1295 l 2,16,17
 194 1334 194 1334 194 1349.5 c 128,-1,18
 194 1365 194 1365 207 1377 c 2,19,-1
 239 1409 l 2,20,21
 253 1423 253 1423 270 1423 c 128,-1,22
 287 1423 287 1423 324 1386 c 2,23,-1
 358 1352 l 1,24,25
 494 1440 494 1440 680 1440 c 128,-1,26
 866 1440 866 1440 1002 1352 c 1,27,-1
 1035 1385 l 2,28,29
 1073 1423 1073 1423 1089.5 1423 c 128,-1,30
 1106 1423 1106 1423 1120 1409 c 2,31,-1
 1153 1377 l 2,32,33
 1165 1364 1165 1364 1165 1349 c 128,-1,34
 1165 1334 1165 1334 1126 1295 c 2,35,-1
 1099 1268 l 1,36,37
 1219 1130 1219 1130 1219 933 c 128,-1,38
 1219 736 1219 736 1102 599 c 1,39,-1
 1126 575 l 2,40,41
 1164 537 1164 537 1164 520.5 c 128,-1,42
 1164 504 1164 504 1150 490 c 2,43,-1
 1118 457 l 1,44,45
 1104 445 1104 445 1088.5 445 c 128,-1,46
 1073 445 1073 445 1036 484 c 1,47,-1
 1005 515 l 1,0,1
514.5 611.5 m 128,-1,49
 586 580 586 580 670.5 580 c 128,-1,50
 755 580 755 580 816.5 601 c 128,-1,51
 878 622 878 622 918.5 656.5 c 128,-1,52
 959 691 959 691 986.5 737.5 c 0,53,54
 1038 824.581818182 1038 824.581818182 1038 911.290909091 c 128,-1,55
 1038 998 1038 998 1018 1059 c 128,-1,56
 998 1120 998 1120 957 1171.5 c 0,57,58
 866.640776699 1285 866.640776699 1285 680 1285 c 0,59,60
 464.462365591 1285 464.462365591 1285 372.5 1129.5 c 0,61,62
 321 1042.41818182 321 1042.41818182 321 954.709090909 c 128,-1,63
 321 867 321 867 341 807.5 c 128,-1,64
 361 748 361 748 402 695.5 c 128,-1,48
 443 643 443 643 514.5 611.5 c 128,-1,49
EndSplineSet
EndChar

StartChar: yen
Encoding: 165 165 102
Width: 2241
GlyphClass: 2
Flags: W
LayerCount: 2
Fore
SplineSet
860 0 m 2,0,1
 828 0 828 0 806 22 c 128,-1,2
 784 44 784 44 784 76 c 2,3,-1
 784 216 l 1,4,-1
 504 216 l 2,5,6
 465.75 216 465.75 216 459.5 251 c 0,7,8
 457 265 457 265 457 290 c 2,9,-1
 457 321 l 2,10,11
 457 359 457 359 466 377 c 128,-1,12
 475 395 475 395 504 395 c 2,13,-1
 784 395 l 1,14,-1
 707 555 l 1,15,-1
 440 555 l 2,16,17
 401.75 555 401.75 555 395.5 590 c 0,18,19
 393 604 393 604 393 629 c 2,20,-1
 393 660 l 2,21,22
 393 698 393 698 402 716 c 128,-1,23
 411 734 411 734 440 734 c 2,24,-1
 589 734 l 1,25,-1
 90 1376 l 2,26,27
 79 1390 79 1390 79 1403.5 c 128,-1,28
 79 1417 79 1417 89.5 1427.5 c 128,-1,29
 100 1438 100 1438 117 1438 c 2,30,-1
 681 1438 l 2,31,32
 757.206896552 1438 757.206896552 1438 805 1375 c 2,33,-1
 1171 889 l 1,34,-1
 1527 1374 l 2,35,36
 1575 1438 1575 1438 1649 1438 c 2,37,-1
 2117 1438 l 2,38,39
 2134 1438 2134 1438 2145.5 1427.5 c 128,-1,40
 2157 1417 2157 1417 2157 1403 c 128,-1,41
 2157 1389 2157 1389 2146 1375 c 2,42,-1
 1655 734 l 1,43,-1
 1791 734 l 2,44,45
 1829.25 734 1829.25 734 1835.5 699 c 0,46,47
 1838 685 1838 685 1838 660 c 2,48,-1
 1838 629 l 2,49,50
 1838 591 1838 591 1829 573 c 128,-1,51
 1820 555 1820 555 1791 555 c 2,52,-1
 1540 555 l 1,53,-1
 1466 395 l 1,54,-1
 1759 395 l 2,55,56
 1797.25 395 1797.25 395 1803.5 360 c 0,57,58
 1806 346 1806 346 1806 321 c 2,59,-1
 1806 290 l 2,60,61
 1806 252 1806 252 1797 234 c 128,-1,62
 1788 216 1788 216 1759 216 c 2,63,-1
 1466 216 l 1,64,-1
 1466 76 l 2,65,66
 1466 44 1466 44 1444.5 22 c 128,-1,67
 1423 0 1423 0 1391 0 c 2,68,-1
 860 0 l 2,0,1
EndSplineSet
EndChar

StartChar: brokenbar
Encoding: 166 166 103
Width: 617
GlyphClass: 2
Flags: W
LayerCount: 2
Fore
SplineSet
234 -150 m 2,0,1
 202 -150 202 -150 181 -128 c 128,-1,2
 160 -106 160 -106 160 -73 c 2,3,-1
 160 509 l 2,4,5
 160 542 160 542 181 564 c 128,-1,6
 202 586 202 586 234 586 c 2,7,-1
 383 586 l 2,8,9
 415 586 415 586 436 564 c 128,-1,10
 457 542 457 542 457 509 c 2,11,-1
 457 -73 l 2,12,13
 457 -106 457 -106 436 -128 c 128,-1,14
 415 -150 415 -150 383 -150 c 2,15,-1
 234 -150 l 2,0,1
234 819 m 2,16,17
 202 819 202 819 181 841 c 128,-1,18
 160 863 160 863 160 896 c 2,19,-1
 160 1478 l 2,20,21
 160 1511 160 1511 181 1533 c 128,-1,22
 202 1555 202 1555 234 1555 c 2,23,-1
 383 1555 l 2,24,25
 415 1555 415 1555 436 1533 c 128,-1,26
 457 1511 457 1511 457 1478 c 2,27,-1
 457 896 l 2,28,29
 457 863 457 863 436 841 c 128,-1,30
 415 819 415 819 383 819 c 2,31,-1
 234 819 l 2,16,17
EndSplineSet
EndChar

StartChar: section
Encoding: 167 167 104
Width: 1860
GlyphClass: 2
Flags: W
LayerCount: 2
Fore
SplineSet
868 389 m 1,0,-1
 858 389 l 1,1,2
 567 409 567 409 432 444 c 0,3,4
 155 517 155 517 155 704 c 0,5,6
 155 839 155 839 279 926 c 1,7,8
 155 999 155 999 155 1126 c 0,9,10
 155 1404.58823529 155 1404.58823529 634.5 1461 c 0,11,12
 753.5 1475 753.5 1475 930.75 1475 c 128,-1,13
 1108 1475 1108 1475 1259 1458.5 c 128,-1,14
 1410 1442 1410 1442 1555 1386 c 1,15,16
 1598 1367.89473684 1598 1367.89473684 1598 1321 c 0,17,18
 1598 1308.33333333 1598 1308.33333333 1591 1292 c 2,19,-1
 1546 1198 l 1,20,21
 1522.42857143 1153 1522.42857143 1153 1470 1153 c 1,22,23
 1459 1153 1459 1153 1439 1158 c 1,24,25
 1241.82857143 1225 1241.82857143 1225 925 1225 c 0,26,27
 696 1225 696 1225 641 1192 c 0,28,29
 616 1177 616 1177 616 1155 c 1,30,31
 622 1122 622 1122 713 1104 c 1,32,33
 822.912280702 1091.43859649 822.912280702 1091.43859649 962.456140351 1084.71929825 c 128,-1,34
 1102 1078 1102 1078 1145.5 1075 c 128,-1,35
 1189 1072 1189 1072 1250 1065.5 c 128,-1,36
 1311 1059 1311 1059 1353.5 1051 c 128,-1,37
 1396 1043 1396 1043 1448 1029.5 c 128,-1,38
 1500 1016 1500 1016 1535 998.5 c 128,-1,39
 1570 981 1570 981 1606 955 c 128,-1,40
 1642 929 1642 929 1663.5 897 c 0,41,42
 1712 824.813953488 1712 824.813953488 1712 716.406976744 c 128,-1,43
 1712 608 1712 608 1615 526 c 1,44,45
 1712 448 1712 448 1712 307 c 0,46,47
 1712 13.6869565217 1712 13.6869565217 1165 -31.5 c 0,48,49
 1050 -41 1050 -41 888.5 -41 c 128,-1,50
 727 -41 727 -41 534 -17.5 c 128,-1,51
 341 6 341 6 204 59 c 0,52,53
 185 66 185 66 172.5 85.5 c 128,-1,54
 160 105 160 105 160 117.5 c 128,-1,55
 160 130 160 130 160.5 133 c 128,-1,56
 161 136 161 136 161.5 138.5 c 128,-1,57
 162 141 162 141 162.5 143.5 c 0,58,59
 163.666666667 149.333333333 163.666666667 149.333333333 166 154 c 2,60,-1
 218 259 l 2,61,62
 243.5 310 243.5 310 296 310 c 0,63,64
 310 310 310 310 323 306 c 0,65,66
 610 218 610 218 1000 218 c 0,67,68
 1120 218 1120 218 1172 235.5 c 128,-1,69
 1224 253 1224 253 1224 298 c 128,-1,70
 1224 343 1224 343 1168 357.5 c 128,-1,71
 1112 372 1112 372 890 387 c 1,72,-1
 883 387 l 1,73,-1
 882 388 l 1,74,-1
 869 388 l 1,75,-1
 868 389 l 1,0,-1
1302 639 m 1,76,77
 1335 684.375 1335 684.375 1335 716 c 0,78,79
 1334 759 1334 759 1250.5 775 c 128,-1,80
 1167 791 1167 791 931 806 c 128,-1,81
 695 821 695 821 592 844 c 1,82,83
 557 803 557 803 557 771 c 128,-1,84
 557 739 557 739 572.5 726.5 c 128,-1,85
 588 714 588 714 640 702.5 c 0,86,87
 752.657047725 677.585460599 752.657047725 677.585460599 1000.82852386 661.7927303 c 128,-1,88
 1249 646 1249 646 1302 639 c 1,76,77
EndSplineSet
EndChar

StartChar: dieresis
Encoding: 168 168 105
Width: 1265
GlyphClass: 4
Flags: W
AnchorPoint: "Anchor-0" 610 983 mark 0
LayerCount: 2
Fore
SplineSet
228 1200 m 2,0,1
 196 1200 196 1200 173.5 1222.5 c 128,-1,2
 151 1245 151 1245 151 1277 c 2,3,-1
 151 1407 l 2,4,5
 151 1439 151 1439 173.5 1461.5 c 128,-1,6
 196 1484 196 1484 228 1484 c 2,7,-1
 372 1484 l 2,8,9
 404 1484 404 1484 426.5 1461.5 c 128,-1,10
 449 1439 449 1439 449 1407 c 2,11,-1
 449 1277 l 2,12,13
 449 1245 449 1245 426.5 1222.5 c 128,-1,14
 404 1200 404 1200 372 1200 c 2,15,-1
 228 1200 l 2,0,1
893 1200 m 2,16,17
 861 1200 861 1200 838.5 1222.5 c 128,-1,18
 816 1245 816 1245 816 1277 c 2,19,-1
 816 1407 l 2,20,21
 816 1439 816 1439 838.5 1461.5 c 128,-1,22
 861 1484 861 1484 893 1484 c 2,23,-1
 1037 1484 l 2,24,25
 1069 1484 1069 1484 1091.5 1461.5 c 128,-1,26
 1114 1439 1114 1439 1114 1407 c 2,27,-1
 1114 1277 l 2,28,29
 1114 1245 1114 1245 1091.5 1222.5 c 128,-1,30
 1069 1200 1069 1200 1037 1200 c 2,31,-1
 893 1200 l 2,16,17
EndSplineSet
EndChar

StartChar: copyright
Encoding: 169 169 106
Width: 1906
GlyphClass: 2
Flags: W
LayerCount: 2
Fore
SplineSet
827 731 m 0,0,1
 827 535 827 535 1041 535 c 0,2,3
 1149 535 1149 535 1263 580 c 1,4,5
 1267.5 583 1267.5 583 1277.75 583 c 0,6,7
 1302.29411765 583 1302.29411765 583 1313.64705882 538.5 c 128,-1,8
 1325 494 1325 494 1330 474 c 128,-1,9
 1335 454 1335 454 1335 441 c 0,10,11
 1335 405.25 1335 405.25 1308 394 c 0,12,13
 1161 330 1161 330 990 330 c 0,14,15
 798.977777778 330 798.977777778 330 666 418 c 0,16,17
 598 463 598 463 558.5 543 c 128,-1,18
 519 623 519 623 519 729.5 c 128,-1,19
 519 836 519 836 559 915 c 128,-1,20
 599 994 599 994 667 1039 c 0,21,22
 799.977777778 1127 799.977777778 1127 983.488888889 1127 c 128,-1,23
 1167 1127 1167 1127 1303 1053 c 0,24,25
 1329 1039 1329 1039 1329 1011 c 128,-1,26
 1329 983 1329 983 1318 942.5 c 128,-1,27
 1307 902 1307 902 1307 900 c 0,28,29
 1296.16666667 861 1296.16666667 861 1266 861 c 0,30,31
 1259 861 1259 861 1253 864 c 0,32,33
 1133 920 1133 920 1035 920 c 0,34,35
 827 920 827 920 827 731 c 0,0,1
955 124 m 128,-1,37
 1085 124 1085 124 1191 159.5 c 128,-1,38
 1297 195 1297 195 1366.5 252.5 c 128,-1,39
 1436 310 1436 310 1483.5 387.5 c 0,40,41
 1572 531.894736842 1572 531.894736842 1572 713 c 0,42,43
 1572 899.673684211 1572 899.673684211 1483.5 1045 c 0,44,45
 1323.94871795 1307 1323.94871795 1307 955 1307 c 0,46,47
 585.051282051 1307 585.051282051 1307 425.5 1045 c 0,48,49
 337 899.673684211 337 899.673684211 337 713 c 0,50,51
 337 531.894736842 337 531.894736842 425.5 387.5 c 0,52,53
 525.891891892 223.702702703 525.891891892 223.702702703 718.5 159.5 c 0,54,36
 825 124 825 124 955 124 c 128,-1,37
952 -41 m 128,-1,56
 754 -41 754 -41 596 21 c 128,-1,57
 438 83 438 83 339 189 c 128,-1,58
 240 295 240 295 188 430 c 128,-1,59
 136 565 136 565 136 717 c 128,-1,60
 136 869 136 869 188 1004 c 128,-1,61
 240 1139 240 1139 339 1245 c 128,-1,62
 438 1351 438 1351 596 1413 c 128,-1,63
 754 1475 754 1475 952 1475 c 128,-1,64
 1150 1475 1150 1475 1308 1413 c 128,-1,65
 1466 1351 1466 1351 1565 1245 c 128,-1,66
 1664 1139 1664 1139 1716 1004 c 128,-1,67
 1768 869 1768 869 1768 717 c 128,-1,68
 1768 565 1768 565 1716 430 c 128,-1,69
 1664 295 1664 295 1565 189 c 128,-1,70
 1466 83 1466 83 1308 21 c 128,-1,55
 1150 -41 1150 -41 952 -41 c 128,-1,56
EndSplineSet
EndChar

StartChar: ordfeminine
Encoding: 170 170 107
Width: 2021
GlyphClass: 2
Flags: W
LayerCount: 2
Fore
SplineSet
906 592 m 128,-1,1
 751 533 751 533 562 533 c 128,-1,2
 373 533 373 533 256.5 561 c 128,-1,3
 140 589 140 589 75 643.5 c 128,-1,4
 10 698 10 698 10 767.5 c 128,-1,5
 10 837 10 837 51 888 c 128,-1,6
 92 939 92 939 159 971.5 c 128,-1,7
 226 1004 226 1004 312 1028 c 128,-1,8
 398 1052 398 1052 487 1064.5 c 128,-1,9
 576 1077 576 1077 662 1086 c 128,-1,10
 748 1095 748 1095 815 1098.5 c 0,11,12
 964 1106.28358209 964 1106.28358209 964 1118 c 2,13,-1
 964 1130 l 2,14,15
 964 1214 964 1214 907 1256 c 128,-1,16
 850 1298 850 1298 718 1298 c 0,17,18
 652 1298 652 1298 576.5 1279 c 128,-1,19
 501 1260 501 1260 465.5 1227.5 c 128,-1,20
 430 1195 430 1195 405 1195 c 0,21,22
 403 1195 403 1195 387 1197 c 2,23,-1
 63 1226 l 2,24,25
 52 1227 52 1227 43.5 1237 c 128,-1,26
 35 1247 35 1247 35 1260.5 c 128,-1,27
 35 1274 35 1274 45 1296 c 0,28,29
 86 1388 86 1388 247 1431 c 128,-1,30
 408 1474 408 1474 713 1474 c 0,31,32
 983.384615385 1474 983.384615385 1474 1117.19230769 1438.5 c 128,-1,33
 1251 1403 1251 1403 1317.5 1362.5 c 0,34,35
 1463 1273.88721805 1463 1273.88721805 1463 1103 c 2,36,-1
 1463 626 l 2,37,38
 1463 601 1463 601 1448 584.5 c 128,-1,39
 1433 568 1433 568 1410 568 c 2,40,-1
 1307 568 l 2,41,42
 1250.44444444 568 1250.44444444 568 1223 625 c 0,43,44
 1217 638 1217 638 1201 668 c 0,45,46
 1164.55555556 736.333333333 1164.55555556 736.333333333 1159.77777778 751.166666667 c 128,-1,47
 1155 766 1155 766 1148.5 766 c 128,-1,48
 1142 766 1142 766 1134 753 c 1,49,0
 1061 651 1061 651 906 592 c 128,-1,1
477 802 m 0,50,51
 477 718 477 718 621 718 c 128,-1,52
 765 718 765 718 870 780.5 c 128,-1,53
 975 843 975 843 975 932 c 0,54,55
 975 960 975 960 950.5 960 c 128,-1,56
 926 960 926 960 918 958 c 0,57,58
 693 930 693 930 585 895.5 c 128,-1,59
 477 861 477 861 477 802 c 0,50,51
EndSplineSet
EndChar

StartChar: guillemotleft
Encoding: 171 171 108
Width: 1460
GlyphClass: 2
Flags: W
LayerCount: 2
Fore
SplineSet
671 29 m 128,-1,1
 646 29 646 29 613 49 c 1,2,-1
 230 303 l 2,3,4
 177 339 177 339 155 372.5 c 128,-1,5
 133 406 133 406 133 453 c 2,6,-1
 133 606 l 2,7,8
 133 703 133 703 230 768 c 1,9,-1
 613 1016 l 1,10,11
 646 1036 646 1036 671 1036 c 128,-1,12
 696 1036 696 1036 711 1020 c 128,-1,13
 726 1004 726 1004 726 987 c 2,14,-1
 726 888 l 2,15,16
 726 838 726 838 715.5 811 c 128,-1,17
 705 784 705 784 667 746 c 1,18,-1
 417 568 l 1,19,20
 401 552 401 552 401 535 c 0,21,22
 401 518 401 518 417 501 c 1,23,-1
 667 323 l 1,24,25
 705 286 705 286 715.5 259 c 128,-1,26
 726 232 726 232 726 182 c 2,27,-1
 726 80 l 2,28,29
 726 62 726 62 711 45.5 c 128,-1,0
 696 29 696 29 671 29 c 128,-1,1
1255 29 m 128,-1,31
 1230 29 1230 29 1197 49 c 1,32,-1
 814 303 l 2,33,34
 761 339 761 339 739 372.5 c 128,-1,35
 717 406 717 406 717 453 c 2,36,-1
 717 606 l 2,37,38
 717 703 717 703 814 768 c 1,39,-1
 1196 1016 l 1,40,41
 1230 1036 1230 1036 1255 1036 c 128,-1,42
 1280 1036 1280 1036 1295 1020 c 128,-1,43
 1310 1004 1310 1004 1310 987 c 2,44,-1
 1310 888 l 2,45,46
 1310 838 1310 838 1299.5 810.5 c 128,-1,47
 1289 783 1289 783 1251 746 c 1,48,-1
 1002 568 l 1,49,50
 985 552 985 552 985 535 c 0,51,52
 985 518 985 518 1002 501 c 1,53,-1
 1251 323 l 1,54,55
 1289 286 1289 286 1299.5 259 c 128,-1,56
 1310 232 1310 232 1310 182 c 2,57,-1
 1310 80 l 2,58,59
 1310 62 1310 62 1295 45.5 c 128,-1,30
 1280 29 1280 29 1255 29 c 128,-1,31
EndSplineSet
EndChar

StartChar: logicalnot
Encoding: 172 172 109
Width: 1303
GlyphClass: 2
Flags: W
LayerCount: 2
Fore
SplineSet
923 129 m 2,0,1
 891 129 891 129 870 151 c 128,-1,2
 849 173 849 173 849 206 c 2,3,-1
 849 469 l 2,4,5
 849 484 849 484 838 495 c 128,-1,6
 827 506 827 506 812 506 c 2,7,-1
 202 506 l 2,8,9
 170 506 170 506 149 527 c 128,-1,10
 128 548 128 548 128 580 c 2,11,-1
 128 718 l 2,12,13
 128 750 128 750 149 771 c 128,-1,14
 170 792 170 792 202 792 c 2,15,-1
 1083 792 l 2,16,17
 1115 792 1115 792 1137.5 770.5 c 128,-1,18
 1160 749 1160 749 1160 717 c 2,19,-1
 1160 206 l 2,20,21
 1160 173 1160 173 1139 151 c 128,-1,22
 1118 129 1118 129 1086 129 c 2,23,-1
 923 129 l 2,0,1
EndSplineSet
EndChar

StartChar: uni00AD
Encoding: 173 173 110
Width: 1024
GlyphClass: 2
Flags: W
LayerCount: 2
Fore
SplineSet
177 449 m 2,0,1
 156 449 156 449 141.5 469.5 c 128,-1,2
 127 490 127 490 127 519 c 2,3,-1
 127 651 l 2,4,5
 127 675 127 675 141.5 692 c 128,-1,6
 156 709 156 709 177 709 c 2,7,-1
 846 709 l 2,8,9
 867 709 867 709 881.5 691 c 128,-1,10
 896 673 896 673 896 648 c 2,11,-1
 896 513 l 2,12,13
 896 487 896 487 881.5 468 c 128,-1,14
 867 449 867 449 846 449 c 2,15,-1
 177 449 l 2,0,1
EndSplineSet
EndChar

StartChar: registered
Encoding: 174 174 111
Width: 1906
GlyphClass: 2
Flags: W
LayerCount: 2
Fore
SplineSet
563 387 m 2,0,1
 550 387 550 387 540.5 397.5 c 128,-1,2
 531 408 531 408 531 422 c 2,3,-1
 531 1014 l 2,4,5
 531 1029 531 1029 540 1039 c 128,-1,6
 549 1049 549 1049 563 1049 c 2,7,-1
 1034 1049 l 2,8,9
 1214.85714286 1049 1214.85714286 1049 1255.92857143 1037.5 c 128,-1,10
 1297 1026 1297 1026 1328 1011.5 c 128,-1,11
 1359 997 1359 997 1374 976.5 c 0,12,13
 1411 925.933333333 1411 925.933333333 1411 854.466666667 c 128,-1,14
 1411 783 1411 783 1365 743 c 128,-1,15
 1319 703 1319 703 1246 692 c 0,16,17
 1245 692 1245 692 1245 690 c 128,-1,18
 1245 688 1245 688 1246 688 c 0,19,20
 1320 674 1320 674 1354 620.5 c 128,-1,21
 1388 567 1388 567 1399 472 c 0,22,23
 1400.78571429 452.357142857 1400.78571429 452.357142857 1403.89285714 432.678571429 c 128,-1,24
 1407 413 1407 413 1407 409 c 0,25,26
 1407 387 1407 387 1390 387 c 2,27,-1
 1155 387 l 2,28,29
 1135 387 1135 387 1126.5 393.5 c 128,-1,30
 1118 400 1118 400 1115.5 412.5 c 128,-1,31
 1113 425 1113 425 1108.5 457 c 128,-1,32
 1104 489 1104 489 1101.5 507 c 0,33,34
 1087.92561983 604.73553719 1087.92561983 604.73553719 1048.5 616 c 0,35,36
 1034.5 620 1034.5 620 997 620 c 2,37,-1
 837 620 l 2,38,39
 831 620 831 620 826 614.5 c 128,-1,40
 821 609 821 609 821 602 c 2,41,-1
 821 422 l 2,42,43
 821 408 821 408 811.5 397.5 c 128,-1,44
 802 387 802 387 789 387 c 2,45,-1
 563 387 l 2,0,1
821 773 m 2,46,47
 821 756 821 756 837 756 c 2,48,-1
 1051 756 l 2,49,50
 1077 756 1077 756 1096 774 c 128,-1,51
 1115 792 1115 792 1115 816 c 128,-1,52
 1115 840 1115 840 1105.5 854.5 c 128,-1,53
 1096 869 1096 869 1076.5 874.5 c 0,54,55
 1046.36363636 883 1046.36363636 883 1004 883 c 2,56,-1
 837 883 l 2,57,58
 821 883 821 883 821 866 c 2,59,-1
 821 773 l 2,46,47
955 124 m 128,-1,61
 1085 124 1085 124 1191 159.5 c 128,-1,62
 1297 195 1297 195 1366.5 252.5 c 128,-1,63
 1436 310 1436 310 1483.5 387.5 c 0,64,65
 1572 531.894736842 1572 531.894736842 1572 713 c 0,66,67
 1572 899.673684211 1572 899.673684211 1483.5 1045 c 0,68,69
 1323.94871795 1307 1323.94871795 1307 955 1307 c 0,70,71
 585.051282051 1307 585.051282051 1307 425.5 1045 c 0,72,73
 337 899.673684211 337 899.673684211 337 713 c 0,74,75
 337 531.894736842 337 531.894736842 425.5 387.5 c 0,76,77
 525.891891892 223.702702703 525.891891892 223.702702703 718.5 159.5 c 0,78,60
 825 124 825 124 955 124 c 128,-1,61
952 -41 m 128,-1,80
 754 -41 754 -41 596 21 c 128,-1,81
 438 83 438 83 339 189 c 128,-1,82
 240 295 240 295 188 430 c 128,-1,83
 136 565 136 565 136 717 c 128,-1,84
 136 869 136 869 188 1004 c 128,-1,85
 240 1139 240 1139 339 1245 c 128,-1,86
 438 1351 438 1351 596 1413 c 128,-1,87
 754 1475 754 1475 952 1475 c 128,-1,88
 1150 1475 1150 1475 1308 1413 c 128,-1,89
 1466 1351 1466 1351 1565 1245 c 128,-1,90
 1664 1139 1664 1139 1716 1004 c 128,-1,91
 1768 869 1768 869 1768 717 c 128,-1,92
 1768 565 1768 565 1716 430 c 128,-1,93
 1664 295 1664 295 1565 189 c 128,-1,94
 1466 83 1466 83 1308 21 c 128,-1,79
 1150 -41 1150 -41 952 -41 c 128,-1,80
EndSplineSet
EndChar

StartChar: macron
Encoding: 175 175 112
Width: 1067
GlyphClass: 4
Flags: W
AnchorPoint: "Anchor-0" 552 1033 mark 0
LayerCount: 2
Fore
SplineSet
209 1242 m 2,0,1
 177 1242 177 1242 156 1264 c 128,-1,2
 135 1286 135 1286 135 1318 c 2,3,-1
 135 1410 l 2,4,5
 135 1442 135 1442 156 1464 c 128,-1,6
 177 1486 177 1486 209 1486 c 2,7,-1
 861 1486 l 2,8,9
 893 1486 893 1486 914 1464 c 128,-1,10
 935 1442 935 1442 935 1410 c 2,11,-1
 935 1318 l 2,12,13
 935 1286 935 1286 914 1264 c 128,-1,14
 893 1242 893 1242 861 1242 c 2,15,-1
 209 1242 l 2,0,1
EndSplineSet
EndChar

StartChar: degree
Encoding: 176 176 113
Width: 1352
GlyphClass: 2
Flags: W
LayerCount: 2
Fore
SplineSet
508.5 550.5 m 128,-1,1
 580 519 580 519 673.5 519 c 128,-1,2
 767 519 767 519 839 550.5 c 128,-1,3
 911 582 911 582 952 634 c 0,4,5
 1033 736.731707317 1033 736.731707317 1033 870 c 0,6,7
 1033 1008.75609756 1033 1008.75609756 952 1110.5 c 0,8,9
 911 1162 911 1162 839 1193 c 128,-1,10
 767 1224 767 1224 682.5 1224 c 128,-1,11
 598 1224 598 1224 536.5 1203.5 c 128,-1,12
 475 1183 475 1183 435 1149 c 128,-1,13
 395 1115 395 1115 367.5 1068.5 c 0,14,15
 316 981.418181818 316 981.418181818 316 893.709090909 c 128,-1,16
 316 806 316 806 336 746 c 128,-1,17
 356 686 356 686 396.5 634 c 128,-1,0
 437 582 437 582 508.5 550.5 c 128,-1,1
674 362 m 128,-1,19
 545 362 545 362 440.5 402.5 c 128,-1,20
 336 443 336 443 269.5 513.5 c 128,-1,21
 203 584 203 584 167.5 675 c 128,-1,22
 132 766 132 766 132 870 c 128,-1,23
 132 974 132 974 167.5 1066 c 128,-1,24
 203 1158 203 1158 269.5 1228.5 c 128,-1,25
 336 1299 336 1299 440.5 1340 c 128,-1,26
 545 1381 545 1381 674 1381 c 128,-1,27
 803 1381 803 1381 907.5 1340 c 128,-1,28
 1012 1299 1012 1299 1078.5 1228.5 c 128,-1,29
 1145 1158 1145 1158 1180.5 1066 c 128,-1,30
 1216 974 1216 974 1216 870 c 128,-1,31
 1216 766 1216 766 1180.5 675 c 128,-1,32
 1145 584 1145 584 1078.5 513.5 c 128,-1,33
 1012 443 1012 443 907.5 402.5 c 128,-1,18
 803 362 803 362 674 362 c 128,-1,19
EndSplineSet
EndChar

StartChar: plusminus
Encoding: 177 177 114
Width: 1289
GlyphClass: 2
Flags: W
LayerCount: 2
Fore
SplineSet
565 253 m 2,0,1
 533 253 533 253 512 274.5 c 128,-1,2
 491 296 491 296 491 328 c 2,3,-1
 491 600 l 2,4,5
 491 615 491 615 480.5 626 c 128,-1,6
 470 637 470 637 455 637 c 2,7,-1
 203 637 l 2,8,9
 171 637 171 637 150 658 c 128,-1,10
 129 679 129 679 129 711 c 2,11,-1
 129 852 l 2,12,13
 129 884 129 884 150 905 c 128,-1,14
 171 926 171 926 203 926 c 2,15,-1
 455 926 l 2,16,17
 470 926 470 926 480.5 937 c 128,-1,18
 491 948 491 948 491 963 c 2,19,-1
 491 1236 l 2,20,21
 491 1268 491 1268 512 1290 c 128,-1,22
 533 1312 533 1312 565 1312 c 2,23,-1
 723 1312 l 2,24,25
 755 1312 755 1312 776 1290 c 128,-1,26
 797 1268 797 1268 797 1236 c 2,27,-1
 797 963 l 2,28,29
 797 948 797 948 807 937 c 128,-1,30
 817 926 817 926 832 926 c 2,31,-1
 1081 926 l 2,32,33
 1113 926 1113 926 1134 905 c 128,-1,34
 1155 884 1155 884 1155 852 c 2,35,-1
 1155 711 l 2,36,37
 1155 679 1155 679 1134 658 c 128,-1,38
 1113 637 1113 637 1081 637 c 2,39,-1
 832 637 l 2,40,41
 817 637 817 637 807 626 c 128,-1,42
 797 615 797 615 797 600 c 2,43,-1
 797 328 l 2,44,45
 797 296 797 296 776 274.5 c 128,-1,46
 755 253 755 253 723 253 c 2,47,-1
 565 253 l 2,0,1
200 -133 m 2,48,49
 168 -133 168 -133 146 -111.5 c 128,-1,50
 124 -90 124 -90 124 -58 c 2,51,-1
 124 78 l 2,52,53
 124 110 124 110 146 132 c 128,-1,54
 168 154 168 154 200 154 c 2,55,-1
 1085 154 l 2,56,57
 1117 154 1117 154 1138.5 132 c 128,-1,58
 1160 110 1160 110 1160 78 c 2,59,-1
 1160 -58 l 2,60,61
 1160 -90 1160 -90 1138.5 -111.5 c 128,-1,62
 1117 -133 1117 -133 1085 -133 c 2,63,-1
 200 -133 l 2,48,49
EndSplineSet
EndChar

StartChar: acute
Encoding: 180 180 117
Width: 1745
GlyphClass: 4
Flags: W
AnchorPoint: "Anchor-0" 869 983 mark 0
LayerCount: 2
Fore
SplineSet
770 1203 m 1,0,-1
 771 1213 l 2,1,2
 771 1216 771 1216 771.5 1218.5 c 128,-1,3
 772 1221 772 1221 772.5 1224 c 128,-1,4
 773 1227 773 1227 773.5 1230.5 c 128,-1,5
 774 1234 774 1234 775 1237 c 2,6,-1
 838 1563 l 2,7,8
 844 1595 844 1595 859 1606.5 c 128,-1,9
 874 1618 874 1618 908 1618 c 2,10,-1
 1168 1618 l 2,11,12
 1196 1618 1196 1618 1196 1590 c 0,13,14
 1196 1574 1196 1574 1184 1553 c 2,15,-1
 995 1209 l 1,16,17
 971.6 1170 971.6 1170 940 1170 c 2,18,-1
 809 1170 l 2,19,20
 770 1170 770 1170 770 1203 c 1,0,-1
EndSplineSet
EndChar

StartChar: paragraph
Encoding: 182 182 118
Width: 1742
GlyphClass: 2
Flags: W
LayerCount: 2
Fore
SplineSet
1282 533 m 2,0,1
 1282 554 1282 554 1263 554 c 2,2,-1
 1090 554 l 1,3,-1
 1090 76 l 2,4,5
 1090 43 1090 43 1069 21 c 128,-1,6
 1048 -1 1048 -1 1016 -1 c 2,7,-1
 863 -1 l 2,8,9
 831 -1 831 -1 810 21 c 128,-1,10
 789 43 789 43 789 76 c 2,11,-1
 789 554 l 1,12,-1
 751 554 l 2,13,14
 129 554 129 554 129 1013 c 0,15,16
 129 1372.22 129 1372.22 627 1427 c 0,17,18
 727 1438 727 1438 940.5 1438 c 128,-1,19
 1154 1438 1154 1438 1507 1404 c 0,20,21
 1540 1401 1540 1401 1561.5 1380 c 128,-1,22
 1583 1359 1583 1359 1583 1327 c 2,23,-1
 1583 76 l 2,24,25
 1583 43 1583 43 1562 21 c 128,-1,26
 1541 -1 1541 -1 1509 -1 c 2,27,-1
 1356 -1 l 2,28,29
 1324 -1 1324 -1 1303 21 c 128,-1,30
 1282 43 1282 43 1282 76 c 2,31,-1
 1282 533 l 2,0,1
EndSplineSet
EndChar

StartChar: periodcentered
Encoding: 183 183 119
Width: 625
GlyphClass: 2
Flags: W
LayerCount: 2
Fore
SplineSet
206 651 m 2,0,1
 174 651 174 651 151.5 673.5 c 128,-1,2
 129 696 129 696 129 728 c 2,3,-1
 129 916 l 2,4,5
 129 948 129 948 151.5 970.5 c 128,-1,6
 174 993 174 993 206 993 c 2,7,-1
 419 993 l 2,8,9
 451 993 451 993 473.5 970.5 c 128,-1,10
 496 948 496 948 496 916 c 2,11,-1
 496 728 l 2,12,13
 496 696 496 696 473.5 673.5 c 128,-1,14
 451 651 451 651 419 651 c 2,15,-1
 206 651 l 2,0,1
EndSplineSet
EndChar

StartChar: cedilla
Encoding: 184 184 120
Width: 716
GlyphClass: 4
Flags: W
AnchorPoint: "Anchor-1" 410 -150 mark 0
LayerCount: 2
Fore
SplineSet
359 -254 m 2,0,1
 347 -254 347 -254 347 -244 c 2,2,-1
 347 -173 l 2,3,4
 347 -156 347 -156 363 -156 c 2,5,-1
 465 -156 l 2,6,7
 543 -156 543 -156 598.5 -230 c 128,-1,8
 654 -304 654 -304 654 -391 c 0,9,10
 654 -519 654 -519 586 -580.5 c 128,-1,11
 518 -642 518 -642 416 -642 c 128,-1,12
 314 -642 314 -642 249.5 -592 c 128,-1,13
 185 -542 185 -542 185 -457.5 c 128,-1,14
 185 -373 185 -373 235 -373 c 2,15,-1
 312 -373 l 2,16,17
 342 -373 342 -373 342 -404 c 1,18,-1
 338 -451 l 1,19,20
 338 -485 338 -485 356.5 -508.5 c 128,-1,21
 375 -532 375 -532 410 -532 c 0,22,23
 483 -532 483 -532 483 -407 c 0,24,25
 483 -347 483 -347 460.5 -300.5 c 128,-1,26
 438 -254 438 -254 402 -254 c 2,27,-1
 359 -254 l 2,0,1
EndSplineSet
EndChar

StartChar: ordmasculine
Encoding: 186 186 122
Width: 1764
GlyphClass: 2
Flags: W
LayerCount: 2
Fore
SplineSet
679.5 824 m 128,-1,1
 751 762 751 762 881.5 762 c 128,-1,2
 1012 762 1012 762 1084 824 c 128,-1,3
 1156 886 1156 886 1156 1004.5 c 128,-1,4
 1156 1123 1156 1123 1082.5 1190.5 c 128,-1,5
 1009 1258 1009 1258 881.5 1258 c 128,-1,6
 754 1258 754 1258 681 1190.5 c 128,-1,7
 608 1123 608 1123 608 1004.5 c 128,-1,0
 608 886 608 886 679.5 824 c 128,-1,1
882 545 m 128,-1,9
 806 545 806 545 741 548.5 c 128,-1,10
 676 552 676 552 598 564.5 c 128,-1,11
 520 577 520 577 458 597 c 128,-1,12
 396 617 396 617 335 652.5 c 128,-1,13
 274 688 274 688 233.5 735.5 c 0,14,15
 143 841.641975309 143 841.641975309 143 1011 c 0,16,17
 143 1474 143 1474 881.5 1474 c 128,-1,18
 1620 1474 1620 1474 1620 1011 c 0,19,20
 1620 580.92248062 1620 580.92248062 1022.5 548.5 c 0,21,8
 958 545 958 545 882 545 c 128,-1,9
EndSplineSet
EndChar

StartChar: guillemotright
Encoding: 187 187 123
Width: 1460
GlyphClass: 2
Flags: W
LayerCount: 2
Fore
SplineSet
263 49 m 1,0,1
 228 29 228 29 203.5 29 c 128,-1,2
 179 29 179 29 164 45.5 c 128,-1,3
 149 62 149 62 149 79 c 2,4,-1
 149 177 l 2,5,6
 149 227 149 227 160 254.5 c 128,-1,7
 171 282 171 282 209 320 c 1,8,-1
 458 497 l 1,9,10
 475 513 475 513 475 530.5 c 128,-1,11
 475 548 475 548 458 564 c 1,12,-1
 209 743 l 1,13,14
 171 780 171 780 160 807 c 128,-1,15
 149 834 149 834 149 883 c 2,16,-1
 149 986 l 2,17,18
 149 1004 149 1004 164 1020 c 128,-1,19
 179 1036 179 1036 205.5 1036 c 128,-1,20
 232 1036 232 1036 263 1016 c 2,21,-1
 646 763 l 2,22,23
 699 728 699 728 720.5 694.5 c 128,-1,24
 742 661 742 661 742 613 c 2,25,-1
 742 459 l 2,26,27
 742 361 742 361 646 297 c 1,28,-1
 263 49 l 1,0,1
848 49 m 1,29,30
 813 29 813 29 789 29 c 128,-1,31
 765 29 765 29 749.5 45.5 c 128,-1,32
 734 62 734 62 734 79 c 2,33,-1
 734 177 l 2,34,35
 734 227 734 227 745 254.5 c 128,-1,36
 756 282 756 282 794 320 c 1,37,-1
 1043 497 l 1,38,39
 1060 513 1060 513 1060 530.5 c 128,-1,40
 1060 548 1060 548 1043 564 c 1,41,-1
 794 743 l 1,42,43
 756 780 756 780 745 807 c 128,-1,44
 734 834 734 834 734 883 c 2,45,-1
 734 986 l 2,46,47
 734 1003 734 1003 749.5 1019.5 c 128,-1,48
 765 1036 765 1036 791 1036 c 128,-1,49
 817 1036 817 1036 848 1016 c 2,50,-1
 1231 763 l 2,51,52
 1284 728 1284 728 1305.5 694.5 c 128,-1,53
 1327 661 1327 661 1327 613 c 2,54,-1
 1327 459 l 2,55,56
 1327 361 1327 361 1231 297 c 1,57,-1
 848 49 l 1,29,30
EndSplineSet
EndChar

StartChar: onequarter
Encoding: 188 188 124
Width: 3252
GlyphClass: 2
Flags: W
LayerCount: 2
Fore
SplineSet
2466 961 m 1,0,-1
 2340 397 l 1,1,-1
 2340 394 l 2,2,3
 2340 385 2340 385 2347.5 378.5 c 128,-1,4
 2355 372 2355 372 2365 372 c 2,5,-1
 2594 372 l 1,6,-1
 2594 954 l 2,7,8
 2594 976 2594 976 2609 991.5 c 128,-1,9
 2624 1007 2624 1007 2647 1007 c 2,10,-1
 2870 1007 l 2,11,12
 2892 1007 2892 1007 2907 992 c 128,-1,13
 2922 977 2922 977 2922 954 c 2,14,-1
 2922 372 l 1,15,-1
 3036 372 l 2,16,17
 3059 372 3059 372 3074 357 c 128,-1,18
 3089 342 3089 342 3089 319 c 2,19,-1
 3089 173 l 2,20,21
 3089 150 3089 150 3074 135 c 128,-1,22
 3059 120 3059 120 3036 120 c 2,23,-1
 2922 120 l 1,24,-1
 2922 -53 l 2,25,26
 2922 -76 2922 -76 2907 -90.5 c 128,-1,27
 2892 -105 2892 -105 2870 -105 c 2,28,-1
 2647 -106 l 2,29,30
 2624 -106 2624 -106 2609 -91 c 128,-1,31
 2594 -76 2594 -76 2594 -53 c 2,32,-1
 2594 120 l 1,33,-1
 1870 120 l 2,34,35
 1849 120 1849 120 1832.5 133 c 128,-1,36
 1816 146 1816 146 1816 164 c 1,37,-1
 2044 954 l 1,38,39
 2057 1007 2057 1007 2097 1007 c 2,40,-1
 2412 1007 l 2,41,42
 2433 1007 2433 1007 2449.5 993.5 c 128,-1,43
 2466 980 2466 980 2466 961 c 1,0,-1
576 1453 m 0,44,45
 763 1453 763 1453 763 1429 c 1,46,47
 769 1429 769 1429 773.5 1140 c 128,-1,48
 778 851 778 851 778 792.5 c 128,-1,49
 778 734 778 734 765.5 599 c 128,-1,50
 753 464 753 464 740 464 c 1,51,52
 740 458 740 458 597 453.5 c 128,-1,53
 454 449 454 449 422.5 449 c 128,-1,54
 391 449 391 449 345 461.5 c 128,-1,55
 299 474 299 474 299 488 c 1,56,57
 293 488 293 488 288.5 686 c 128,-1,58
 284 884 284 884 284 924.5 c 128,-1,59
 284 965 284 965 278 1067.5 c 128,-1,60
 272 1170 272 1170 266 1170 c 1,61,62
 266 1171 266 1171 250 1171 c 2,63,-1
 160 1168 l 2,64,65
 138 1168 138 1168 105 1177.5 c 128,-1,66
 72 1187 72 1187 72 1201 c 1,67,68
 66 1201 66 1201 61.5 1256 c 128,-1,69
 57 1311 57 1311 57 1329.5 c 128,-1,70
 57 1348 57 1348 69 1372 c 128,-1,71
 81 1396 81 1396 95 1396 c 1,72,73
 95 1402 95 1402 327.5 1427.5 c 128,-1,74
 560 1453 560 1453 576 1453 c 0,44,45
1080 -207 m 0,75,76
 859 -207 859 -207 830 -205 c 128,-1,77
 801 -203 801 -203 788.5 -194.5 c 0,78,79
 779.571428571 -188.428571429 779.571428571 -188.428571429 779.571428571 -182.612244898 c 0,80,81
 779.571428571 -180.285714286 779.571428571 -180.285714286 781 -178 c 1,82,83
 772.504454343 -178 772.504454343 -178 1217.75222717 720.5 c 128,-1,84
 1663 1619 1663 1619 1666 1619 c 1,85,86
 1671 1631 1671 1631 1692 1638.5 c 128,-1,87
 1713 1646 1713 1646 1730 1646 c 0,88,89
 1973 1646 1973 1646 1988.5 1645 c 128,-1,90
 2004 1644 2004 1644 2019 1635.5 c 128,-1,91
 2034 1627 2034 1627 2033.5 1623 c 128,-1,92
 2033 1619 2033 1619 1813 1169.5 c 0,93,94
 1153 -179 1153 -179 1145 -179 c 1,95,96
 1139 -191 1139 -191 1117.5 -199 c 128,-1,97
 1096 -207 1096 -207 1080 -207 c 0,75,76
EndSplineSet
EndChar

StartChar: onehalf
Encoding: 189 189 125
Width: 3666
GlyphClass: 2
Flags: W
LayerCount: 2
Fore
SplineSet
3327 13 m 1,0,1
 3327 0 3327 0 2462 0 c 0,2,3
 2400 0 2400 0 2233 14 c 128,-1,4
 2066 28 2066 28 2066 46 c 1,5,6
 2052 51 2052 51 2052 129 c 1,7,8
 2068.07699038 287.760279965 2068.07699038 287.760279965 2171 365.5 c 0,9,10
 2272.39609439 442.086411717 2272.39609439 442.086411717 2391.5 465.5 c 0,11,12
 2542.93435449 495.269146608 2542.93435449 495.269146608 2594.96717724 503.134573304 c 0,13,14
 2699 518.860465116 2699 518.860465116 2699 556 c 1,15,16
 2709.00967742 636.077419355 2709.00967742 636.077419355 2759.5 676 c 0,17,18
 2805.82074408 712.625704622 2805.82074408 712.625704622 2837.41037204 721.312852311 c 128,-1,19
 2869 730 2869 730 2882 736 c 128,-1,20
 2895 742 2895 742 2895 748 c 0,21,22
 2895 759.047619048 2895 759.047619048 2855 780 c 1,23,24
 2791 791 2791 791 2724.5 791 c 128,-1,25
 2658 791 2658 791 2605 788 c 128,-1,26
 2552 785 2552 785 2512 781.5 c 0,27,28
 2397.40540541 771.472972973 2397.40540541 771.472972973 2364.7027027 770.236486486 c 128,-1,29
 2332 769 2332 769 2293 762 c 128,-1,30
 2254 755 2254 755 2223.5 748 c 128,-1,31
 2193 741 2193 741 2176 740 c 128,-1,32
 2159 739 2159 739 2151 754 c 1,33,34
 2126 787 2126 787 2112.5 836 c 128,-1,35
 2099 885 2099 885 2099 905 c 128,-1,36
 2099 925 2099 925 2112 931 c 0,37,38
 2169 962 2169 962 2291 988 c 128,-1,39
 2413 1014 2413 1014 2508.5 1016.5 c 128,-1,40
 2604 1019 2604 1019 2686.5 1019 c 128,-1,41
 2769 1019 2769 1019 2845.5 1011.5 c 128,-1,42
 2922 1004 2922 1004 2992.5 984 c 0,43,44
 3136.99686431 943.007981756 3136.99686431 943.007981756 3181 831 c 1,45,46
 3224 746.954545455 3224 746.954545455 3224 698.477272727 c 128,-1,47
 3224 650 3224 650 3201.5 620 c 128,-1,48
 3179 590 3179 590 3137 568.5 c 128,-1,49
 3095 547 3095 547 3049.5 529.5 c 0,50,51
 2909.78651685 475.764044944 2909.78651685 475.764044944 2839 427 c 1,52,53
 2837.12818746 352.127498277 2837.12818746 352.127498277 2755.5 332 c 0,54,55
 2719 323 2719 323 2681 316.5 c 0,56,57
 2582.89287749 299.718518519 2582.89287749 299.718518519 2553 254 c 1,58,59
 2548 231 2548 231 2577 223 c 1,60,61
 2579.33333333 216 2579.33333333 216 3076 216 c 1,62,63
 3123 216 3123 216 3234 207.5 c 128,-1,64
 3345 199 3345 199 3345 184 c 1,65,66
 3349 184 3349 184 3352.5 138 c 128,-1,67
 3356 92 3356 92 3356 74 c 0,68,69
 3356 13 3356 13 3327 13 c 1,0,1
493 431 m 2,70,71
 470 431 470 431 455 446.5 c 128,-1,72
 440 462 440 462 440 484 c 2,73,-1
 440 1125 l 2,74,75
 440 1136 440 1136 432 1143.5 c 128,-1,76
 424 1151 424 1151 414 1151 c 1,77,-1
 266 1136 l 1,78,79
 244 1136 244 1136 228.5 1151 c 128,-1,80
 213 1166 213 1166 213 1189 c 2,81,-1
 213 1329 l 2,82,83
 213 1351 213 1351 228 1366 c 128,-1,84
 243 1381 243 1381 266 1381 c 1,85,-1
 881 1437 l 1,86,87
 904 1437 904 1437 919 1422 c 128,-1,88
 934 1407 934 1407 934 1384 c 2,89,-1
 934 484 l 2,90,91
 934 462 934 462 919 446.5 c 128,-1,92
 904 431 904 431 881 431 c 2,93,-1
 493 431 l 2,70,71
1204 -206 m 0,94,95
 983 -206 983 -206 954 -204 c 128,-1,96
 925 -202 925 -202 912.5 -193.5 c 128,-1,97
 900 -185 900 -185 901 -180.5 c 128,-1,98
 902 -176 902 -176 1122.5 273 c 0,99,100
 1784 1620 1784 1620 1790 1620 c 1,101,102
 1796 1632 1796 1632 1817.5 1640 c 128,-1,103
 1839 1648 1839 1648 1855 1648 c 0,104,105
 2089 1648 2089 1648 2111.5 1646.5 c 128,-1,106
 2134 1645 2134 1645 2146.5 1637 c 128,-1,107
 2159 1629 2159 1629 2158 1624.5 c 128,-1,108
 2157 1620 2157 1620 1937 1170.5 c 0,109,110
 1277 -178 1277 -178 1270 -178 c 1,111,112
 1264 -190 1264 -190 1242 -198 c 128,-1,113
 1220 -206 1220 -206 1204 -206 c 0,94,95
EndSplineSet
EndChar

StartChar: AE
Encoding: 198 198 134
Width: 3037
GlyphClass: 2
Flags: W
LayerCount: 2
Fore
SplineSet
1847 890 m 2,0,1
 1847 863 1847 863 1877 863 c 2,2,-1
 2669 863 l 2,3,4
 2701 863 2701 863 2723 840.5 c 128,-1,5
 2745 818 2745 818 2745 786 c 2,6,-1
 2745 675 l 2,7,8
 2745 643 2745 643 2723 620.5 c 128,-1,9
 2701 598 2701 598 2669 598 c 2,10,-1
 1878 598 l 2,11,12
 1847 598 1847 598 1847 572 c 2,13,-1
 1847 364 l 2,14,15
 1847 339 1847 339 1877 339 c 2,16,-1
 2820 339 l 2,17,18
 2852 339 2852 339 2873.5 316.5 c 128,-1,19
 2895 294 2895 294 2895 262 c 2,20,-1
 2895 77 l 2,21,22
 2895 45 2895 45 2873.5 22.5 c 128,-1,23
 2852 0 2852 0 2820 0 c 2,24,-1
 1290 0 l 2,25,26
 1258 0 1258 0 1236 22 c 128,-1,27
 1214 44 1214 44 1214 76 c 2,28,-1
 1214 209 l 1,29,-1
 813 209 l 2,30,31
 799.75 209 799.75 209 795.375 206.5 c 128,-1,32
 791 204 791 204 789 203 c 128,-1,33
 787 202 787 202 785 198.5 c 128,-1,34
 783 195 783 195 782 193 c 128,-1,35
 781 191 781 191 779 186.5 c 128,-1,36
 777 182 777 182 776 180 c 2,37,-1
 726 59 l 2,38,39
 701 0 701 0 628 0 c 2,40,-1
 153 0 l 2,41,42
 132 0 132 0 118.5 13.5 c 128,-1,43
 105 27 105 27 105 43 c 128,-1,44
 105 59 105 59 111 69 c 2,45,-1
 752 1369 l 2,46,47
 768 1400 768 1400 797.5 1419 c 128,-1,48
 827 1438 827 1438 861 1438 c 2,49,-1
 2758 1438 l 2,50,51
 2790 1438 2790 1438 2811.5 1415.5 c 128,-1,52
 2833 1393 2833 1393 2833 1361 c 2,53,-1
 2833 1171 l 2,54,55
 2833 1139 2833 1139 2811.5 1116.5 c 128,-1,56
 2790 1094 2790 1094 2758 1094 c 2,57,-1
 1879 1094 l 2,58,59
 1847 1094 1847 1094 1847 1067 c 2,60,-1
 1847 890 l 2,0,1
956 534 m 2,61,-1
 1214 534 l 1,62,-1
 1214 1150 l 1,63,-1
 1193 1150 l 2,64,65
 1184 1150 1184 1150 1181 1142 c 2,66,-1
 935 563 l 2,67,68
 933 559 933 559 933 553 c 128,-1,69
 933 547 933 547 939.5 540.5 c 128,-1,70
 946 534 946 534 956 534 c 2,61,-1
EndSplineSet
EndChar

StartChar: Eth
Encoding: 208 208 144
Width: 2421
GlyphClass: 2
Flags: W
LayerCount: 2
Fore
SplineSet
839.5 357 m 128,-1,1
 851 346 851 346 865 346 c 0,2,3
 1008 346 1008 346 1113 346 c 128,-1,4
 1218 346 1218 346 1267 349 c 128,-1,5
 1316 352 1316 352 1368 361.5 c 128,-1,6
 1420 371 1420 371 1456 388 c 128,-1,7
 1492 405 1492 405 1525 433.5 c 128,-1,8
 1558 462 1558 462 1578 502 c 0,9,10
 1621 588 1621 588 1621 704.5 c 128,-1,11
 1621 821 1621 821 1596 889 c 128,-1,12
 1571 957 1571 957 1531.5 996.5 c 128,-1,13
 1492 1036 1492 1036 1431.5 1060 c 0,14,15
 1333.1875 1099 1333.1875 1099 1152.09375 1099 c 128,-1,16
 971 1099 971 1099 863 1097 c 0,17,18
 850 1097 850 1097 839 1086.5 c 128,-1,19
 828 1076 828 1076 828 1063 c 2,20,-1
 828 832 l 1,21,-1
 1015 832 l 2,22,23
 1075 832 1075 832 1075 757 c 2,24,-1
 1075 701 l 1,25,26
 1073 631 1073 631 1015 631 c 2,27,-1
 828 631 l 1,28,-1
 828 381 l 2,29,0
 828 368 828 368 839.5 357 c 128,-1,1
235 0 m 2,30,31
 203 0 203 0 181 22 c 128,-1,32
 159 44 159 44 159 76 c 2,33,-1
 159 631 l 1,34,-1
 60 631 l 2,35,36
 0 631 0 631 0 707 c 2,37,-1
 0 757 l 2,38,39
 0 832 0 832 60 832 c 2,40,-1
 159 832 l 1,41,-1
 159 1361 l 2,42,43
 159 1393 159 1393 181 1415.5 c 128,-1,44
 203 1438 203 1438 235 1438 c 2,45,-1
 1321 1438 l 2,46,47
 1841.1835443 1438 1841.1835443 1438 2091.5 1212 c 0,48,49
 2179 1133 2179 1133 2230.5 1010 c 128,-1,50
 2282 887 2282 887 2282 751.5 c 128,-1,51
 2282 616 2282 616 2263.5 521.5 c 128,-1,52
 2245 427 2245 427 2215.5 356.5 c 128,-1,53
 2186 286 2186 286 2133.5 230.5 c 128,-1,54
 2081 175 2081 175 2029.5 138 c 128,-1,55
 1978 101 1978 101 1898.5 74.5 c 128,-1,56
 1819 48 1819 48 1751.5 34 c 128,-1,57
 1684 20 1684 20 1584.5 12 c 0,58,59
 1435.25 0 1435.25 0 1218 0 c 2,60,-1
 235 0 l 2,30,31
EndSplineSet
EndChar

StartChar: multiply
Encoding: 215 215 151
Width: 1190
GlyphClass: 2
Flags: W
LayerCount: 2
Fore
SplineSet
595 427 m 1,0,-1
 375.5 207.5 l 2,1,2
 361 193 361 193 330.5 193 c 128,-1,3
 300 193 300 193 277 216 c 2,4,-1
 166 326 l 2,5,6
 144 349 144 349 144 381 c 128,-1,7
 144 413 144 413 166 435 c 0,8,9
 358 627 358 627 376 646 c 1,10,11
 171 851 171 851 156.5 865.5 c 128,-1,12
 142 880 142 880 142 910.5 c 128,-1,13
 142 941 142 941 165 964 c 2,14,-1
 275 1074 l 1,15,16
 300 1097 300 1097 331 1097 c 128,-1,17
 362 1097 362 1097 384 1074 c 0,18,19
 385 1074 385 1074 595 864 c 1,20,21
 676.25 945.25 676.25 945.25 741.125 1010.125 c 128,-1,22
 806 1075 806 1075 806 1076 c 0,23,24
 829 1099 829 1099 861 1099 c 128,-1,25
 893 1099 893 1099 915 1076 c 2,26,-1
 1024 967 l 2,27,28
 1047 944 1047 944 1047 912.5 c 128,-1,29
 1047 881 1047 881 1024 858 c 0,30,31
 852 686 852 686 814 646 c 1,32,-1
 1024 435 l 2,33,34
 1047 413 1047 413 1047 380.5 c 128,-1,35
 1047 348 1047 348 1025 326 c 2,36,-1
 916 217 l 2,37,38
 894 195 894 195 861.5 195 c 128,-1,39
 829 195 829 195 807 217 c 0,40,41
 635 389 635 389 595 427 c 1,0,-1
EndSplineSet
EndChar

StartChar: Oslash
Encoding: 216 216 152
Width: 2667
GlyphClass: 2
Flags: W
LayerCount: 2
Fore
SplineSet
1022 -202 m 2,0,-1
 880 -200 l 2,1,2
 869 -200 869 -200 863.5 -189 c 128,-1,3
 858 -178 858 -178 863 -167 c 2,4,-1
 928 -13 l 1,5,6
 497.472915605 52.7293258618 497.472915605 52.7293258618 294.5 272.5 c 0,7,8
 222 351 222 351 178 466 c 128,-1,9
 134 581 134 581 134 713.5 c 128,-1,10
 134 846 134 846 173.5 951.5 c 128,-1,11
 213 1057 213 1057 280.5 1133 c 128,-1,12
 348 1209 348 1209 442.5 1269 c 128,-1,13
 537 1329 537 1329 642 1367 c 128,-1,14
 747 1405 747 1405 868 1430 c 0,15,16
 1085.8 1475 1085.8 1475 1268.4 1475 c 128,-1,17
 1451 1475 1451 1475 1542 1466 c 1,18,-1
 1598 1602 l 2,19,20
 1611 1635 1611 1635 1642 1635 c 2,21,-1
 1784 1635 l 2,22,23
 1794 1635 1794 1635 1800 1624 c 128,-1,24
 1806 1613 1806 1613 1801 1602 c 2,25,-1
 1735 1441 l 1,26,27
 2336.97875736 1338.33695611 2336.97875736 1338.33695611 2488 962.5 c 0,28,29
 2532 853 2532 853 2532 720.5 c 128,-1,30
 2532 588 2532 588 2492 477 c 128,-1,31
 2452 366 2452 366 2385.5 288.5 c 128,-1,32
 2319 211 2319 211 2223 151.5 c 128,-1,33
 2127 92 2127 92 2024 56 c 128,-1,34
 1921 20 1921 20 1797.5 -2.5 c 0,35,36
 1581.33871305 -41.8816109826 1581.33871305 -41.8816109826 1342.37306077 -41.8816109826 c 0,37,38
 1235.46849818 -41.8816109826 1235.46849818 -41.8816109826 1124 -34 c 1,39,-1
 1067 -169 l 2,40,41
 1053.8 -202 1053.8 -202 1022 -202 c 2,0,-1
1085 367 m 1,42,-1
 1397 1116 l 1,43,44
 1376 1118 1376 1118 1303.5 1118 c 128,-1,45
 1231 1118 1231 1118 1154.5 1098.5 c 128,-1,46
 1078 1079 1078 1079 1018.5 1034.5 c 0,47,48
 898 944.378151261 898 944.378151261 898 722 c 0,49,50
 898 451 898 451 1085 367 c 1,42,-1
1271 323 m 1,51,52
 1291 322 1291 322 1363 322 c 128,-1,53
 1435 322 1435 322 1510.5 340.5 c 128,-1,54
 1586 359 1586 359 1646 403 c 0,55,56
 1768 492.466666667 1768 492.466666667 1768 722 c 0,57,58
 1768 986 1768 986 1582 1073 c 1,59,-1
 1271 323 l 1,51,52
EndSplineSet
EndChar

StartChar: Thorn
Encoding: 222 222 158
Width: 2348
GlyphClass: 2
Flags: W
LayerCount: 2
Fore
SplineSet
235 0 m 2,0,1
 203 0 203 0 181 22 c 128,-1,2
 159 44 159 44 159 76 c 2,3,-1
 159 1363 l 2,4,5
 159 1395 159 1395 181 1416.5 c 128,-1,6
 203 1438 203 1438 235 1438 c 2,7,-1
 751 1438 l 2,8,9
 783 1438 783 1438 805 1416.5 c 128,-1,10
 827 1395 827 1395 827 1363 c 2,11,-1
 827 1249 l 1,12,-1
 1298 1249 l 2,13,14
 1654.125 1249 1654.125 1249 1741.0625 1236 c 128,-1,15
 1828 1223 1828 1223 1899 1207.5 c 128,-1,16
 1970 1192 1970 1192 2010 1169.5 c 128,-1,17
 2050 1147 2050 1147 2094.5 1113.5 c 128,-1,18
 2139 1080 2139 1080 2162 1036 c 0,19,20
 2215 934.608695652 2215 934.608695652 2215 803 c 0,21,22
 2215 597.289156627 2215 597.289156627 2092.5 492.5 c 0,23,24
 2010.08629787 422.001531915 2010.08629787 422.001531915 1921.54314894 396.000765957 c 128,-1,25
 1833 370 1833 370 1771.5 358.5 c 128,-1,26
 1710 347 1710 347 1629.5 340 c 0,27,28
 1468.5 326 1468.5 326 1199.75 326 c 128,-1,29
 931 326 931 326 889.5 325.5 c 0,30,31
 827 324.746987952 827 324.746987952 827 290 c 2,32,-1
 827 76 l 2,33,34
 827 44 827 44 805 22 c 128,-1,35
 783 0 783 0 751 0 c 2,36,-1
 235 0 l 2,0,1
1213.5 953 m 1,37,-1
 1175.5 952 l 1,38,39
 1018.25 952 1018.25 952 861 952 c 0,40,41
 848 952 848 952 837.5 941.5 c 128,-1,42
 827 931 827 931 827 918 c 2,43,-1
 827 649 l 2,44,45
 827 636 827 636 837.5 625 c 128,-1,46
 848 614 848 614 861 614 c 2,47,-1
 1254 614 l 2,48,49
 1414.37837838 614 1414.37837838 614 1476 661.5 c 0,50,51
 1530 703.125 1530 703.125 1530 787 c 0,52,53
 1530 943.754716981 1530 943.754716981 1311.5 952 c 0,54,55
 1285 953 1285 953 1258.875 953 c 2,56,-1
 1213.5 953 l 1,37,-1
EndSplineSet
EndChar

StartChar: germandbls
Encoding: 223 223 159
Width: 2042
GlyphClass: 2
Flags: W
LayerCount: 2
Fore
SplineSet
1027 1438 m 2,0,1
 1783 1438 1783 1438 1783 1040 c 0,2,3
 1783 870.487179487 1783 870.487179487 1635 787 c 0,4,5
 1625 781 1625 781 1626 771.5 c 128,-1,6
 1627 762 1627 762 1638 758 c 0,7,8
 1910 653.05511811 1910 653.05511811 1910 424 c 0,9,10
 1910 0 1910 0 1009 0 c 2,11,-1
 944 0 l 2,12,13
 883 0 883 0 883 73 c 2,14,-1
 883 277 l 2,15,16
 883 298 883 298 897 316 c 128,-1,17
 911 334 911 334 927.5 334 c 2,18,-1
 1016 334 l 2,19,20
 1247.75 334 1247.75 334 1311.5 379 c 0,21,22
 1367 418.176470588 1367 418.176470588 1367 503.088235294 c 128,-1,23
 1367 588 1367 588 1295.5 617 c 128,-1,24
 1224 646 1224 646 1033 646 c 2,25,-1
 943 646 l 2,26,27
 916 646 916 646 902 659 c 128,-1,28
 888 672 888 672 888 689 c 2,29,-1
 888 811 l 2,30,31
 888 861 888 861 943 861 c 2,32,-1
 1049 861 l 1,33,34
 1194 864 1194 864 1252 893.5 c 128,-1,35
 1310 923 1310 923 1310 997 c 0,36,37
 1310 1066.25531915 1310 1066.25531915 1265.5 1097.5 c 0,38,39
 1218.24897288 1130.67625308 1218.24897288 1130.67625308 1159.62448644 1137.33812654 c 0,40,41
 1074.6 1147 1074.6 1147 950.8 1147 c 128,-1,42
 827 1147 827 1147 766 1092.5 c 128,-1,43
 705 1038 705 1038 705 920 c 2,44,-1
 705 103 l 2,45,46
 705 0 705 0 615 0 c 2,47,-1
 230 0 l 2,48,49
 198 0 198 0 177 22 c 128,-1,50
 156 44 156 44 156 77 c 2,51,-1
 156 969 l 2,52,53
 156 1167 156 1167 234 1264.5 c 0,54,55
 372.8 1438 372.8 1438 824 1438 c 2,56,-1
 1027 1438 l 2,0,1
EndSplineSet
EndChar

StartChar: ae
Encoding: 230 230 166
Width: 3007
GlyphClass: 2
Flags: W
LayerCount: 2
Fore
SplineSet
1248 639 m 2,0,-1
 1249 661 l 1,1,2
 1249 751 1249 751 1183 800 c 128,-1,3
 1117 849 1117 849 961 849 c 0,4,5
 884 849 884 849 797.5 827 c 128,-1,6
 711 805 711 805 669 767 c 128,-1,7
 627 729 627 729 600 729 c 0,8,9
 596 729 596 729 578 731 c 2,10,-1
 194 766 l 2,11,12
 182 768 182 768 174 779 c 128,-1,13
 166 790 166 790 166 803.5 c 128,-1,14
 166 817 166 817 177 846 c 0,15,16
 221 953 221 953 410.5 1003 c 128,-1,17
 600 1053 600 1053 967.5 1053 c 128,-1,18
 1335 1053 1335 1053 1520 906 c 1,19,20
 1640 976 1640 976 1792.5 1014.5 c 128,-1,21
 1945 1053 1945 1053 2075 1053 c 128,-1,22
 2205 1053 2205 1053 2312.5 1036.5 c 128,-1,23
 2420 1020 2420 1020 2522 980.5 c 128,-1,24
 2624 941 2624 941 2700.5 882.5 c 128,-1,25
 2777 824 2777 824 2824.5 734 c 128,-1,26
 2872 644 2872 644 2874 533 c 0,27,28
 2874 493 2874 493 2864 473.5 c 128,-1,29
 2854 454 2854 454 2821 454 c 2,30,-1
 1835 454 l 2,31,32
 1812 454 1812 454 1812 426 c 0,33,34
 1812 370 1812 370 1853 326.5 c 128,-1,35
 1894 283 1894 283 1960.5 258.5 c 0,36,37
 2096.29841554 208.4690048 2096.29841554 208.4690048 2258.00351566 208.4690048 c 0,38,39
 2447.25864809 208.4690048 2447.25864809 208.4690048 2672 277 c 0,40,41
 2685 281 2685 281 2703.5 281 c 128,-1,42
 2722 281 2722 281 2740 268 c 128,-1,43
 2758 255 2758 255 2765 234 c 0,44,45
 2799 132 2799 132 2799 113 c 128,-1,46
 2799 94 2799 94 2785.5 75 c 128,-1,47
 2772 56 2772 56 2749 49 c 0,48,49
 2641 14 2641 14 2449 -13.5 c 128,-1,50
 2257 -41 2257 -41 2102.5 -41 c 128,-1,51
 1948 -41 1948 -41 1759.5 6 c 128,-1,52
 1571 53 1571 53 1446 156 c 1,53,54
 1437 162 1437 162 1419 176 c 1,55,56
 1202 -41 1202 -41 736 -41 c 0,57,58
 462 -41 462 -41 300.5 33 c 128,-1,59
 139 107 139 107 139 238 c 0,60,61
 139 312 139 312 186.5 371.5 c 128,-1,62
 234 431 234 431 312 468.5 c 128,-1,63
 390 506 390 506 490 534.5 c 128,-1,64
 590 563 590 563 693.5 577 c 128,-1,65
 797 591 797 591 897 601.5 c 128,-1,66
 997 612 997 612 1075 616.5 c 0,67,68
 1248 626.480769231 1248 626.480769231 1248 639 c 2,0,-1
681 271 m 0,69,70
 681 174 681 174 846.5 174 c 128,-1,71
 1012 174 1012 174 1136.5 248.5 c 128,-1,72
 1261 323 1261 323 1261 424 c 0,73,74
 1261 456 1261 456 1233 456 c 0,75,76
 1215 456 1215 456 1205 454 c 0,77,78
 941 421 941 421 811 380.5 c 128,-1,79
 681 340 681 340 681 271 c 0,69,70
1824 611 m 2,80,-1
 2367 611 l 2,81,82
 2378 611 2378 611 2378 636 c 1,83,84
 2366 721 2366 721 2293 778 c 128,-1,85
 2220 835 2220 835 2103.5 835 c 128,-1,86
 1987 835 1987 835 1903.5 779 c 128,-1,87
 1820 723 1820 723 1813 641 c 1,88,89
 1813 611 1813 611 1824 611 c 2,80,-1
EndSplineSet
EndChar

StartChar: eth
Encoding: 240 240 176
Width: 2057
GlyphClass: 2
Flags: W
LayerCount: 2
Fore
SplineSet
1011 -40 m 0,0,1
 569 -40 569 -40 350 78 c 128,-1,2
 131 196 131 196 131 444 c 0,3,4
 131 656 131 656 327.5 779.5 c 128,-1,5
 524 903 524 903 893 903 c 0,6,7
 1027 903 1027 903 1163.5 879 c 128,-1,8
 1300 855 1300 855 1367 811 c 1,9,10
 1334 900 1334 900 1260 975 c 128,-1,11
 1186 1050 1186 1050 1048 1123 c 1,12,13
 1029 1103 1029 1103 975 1047 c 128,-1,14
 921 991 921 991 905.5 974.5 c 128,-1,15
 890 958 890 958 868.5 958 c 128,-1,16
 847 958 847 958 832 973 c 2,17,-1
 771 1030 l 1,18,19
 758 1045 758 1045 758 1065 c 128,-1,20
 758 1085 758 1085 773 1100 c 128,-1,21
 788 1115 788 1115 872 1205 c 1,22,23
 788 1240 788 1240 681 1277 c 1,24,25
 659 1286 659 1286 659 1305 c 128,-1,26
 659 1324 659 1324 665 1337 c 2,27,-1
 729 1477 l 2,28,29
 746 1512 746 1512 769.5 1512 c 0,30,31
 835.217391304 1512 835.217391304 1512 1077 1429 c 1,32,33
 1204 1566 1204 1566 1226.5 1589.5 c 128,-1,34
 1249 1613 1249 1613 1270.5 1613 c 128,-1,35
 1292 1613 1292 1613 1307 1598 c 0,36,37
 1366 1541 1366 1541 1373.5 1534 c 128,-1,38
 1381 1527 1381 1527 1381 1505.5 c 128,-1,39
 1381 1484 1381 1484 1366 1469 c 128,-1,40
 1351 1454 1351 1454 1312.5 1412 c 2,41,-1
 1263 1358 l 1,42,43
 1569 1225 1569 1225 1745 1035.5 c 128,-1,44
 1921 846 1921 846 1921 613 c 0,45,46
 1921 -40 1921 -40 1011 -40 c 0,0,1
1163 259.5 m 128,-1,48
 1223 270 1223 270 1272 295 c 0,49,50
 1371 345.510204082 1371 345.510204082 1371 478 c 0,51,52
 1371 545 1371 545 1318 592.5 c 0,53,54
 1217.02105263 683 1217.02105263 683 1021.01052632 683 c 128,-1,55
 825 683 825 683 750 629.5 c 128,-1,56
 675 576 675 576 675 462 c 0,57,58
 675 337.469387755 675 337.469387755 774 291 c 0,59,60
 863.47826087 249 863.47826087 249 983.239130435 249 c 128,-1,47
 1103 249 1103 249 1163 259.5 c 128,-1,48
EndSplineSet
EndChar

StartChar: divide
Encoding: 247 247 183
Width: 1291
GlyphClass: 2
Flags: W
LayerCount: 2
Fore
SplineSet
584 1 m 2,0,1
 552 1 552 1 529.5 23.5 c 128,-1,2
 507 46 507 46 507 78 c 2,3,-1
 507 222 l 2,4,5
 507 254 507 254 529.5 276.5 c 128,-1,6
 552 299 552 299 584 299 c 2,7,-1
 720 299 l 2,8,9
 752 299 752 299 774.5 276.5 c 128,-1,10
 797 254 797 254 797 222 c 2,11,-1
 797 78 l 2,12,13
 797 46 797 46 774.5 23.5 c 128,-1,14
 752 1 752 1 720 1 c 2,15,-1
 584 1 l 2,0,1
194 428 m 2,16,17
 127 428 127 428 127 495 c 2,18,-1
 127 587 l 2,19,20
 127 654 127 654 194 654 c 2,21,-1
 1098 654 l 2,22,23
 1165 654 1165 654 1165 587 c 2,24,-1
 1165 495 l 2,25,26
 1165 428 1165 428 1098 428 c 2,27,-1
 194 428 l 2,16,17
584 757 m 2,28,29
 552 757 552 757 529.5 779.5 c 128,-1,30
 507 802 507 802 507 834 c 2,31,-1
 507 978 l 2,32,33
 507 1010 507 1010 529.5 1032.5 c 128,-1,34
 552 1055 552 1055 584 1055 c 2,35,-1
 720 1055 l 2,36,37
 752 1055 752 1055 774.5 1032.5 c 128,-1,38
 797 1010 797 1010 797 978 c 2,39,-1
 797 834 l 2,40,41
 797 802 797 802 774.5 779.5 c 128,-1,42
 752 757 752 757 720 757 c 2,43,-1
 584 757 l 2,28,29
EndSplineSet
EndChar

StartChar: oslash
Encoding: 248 248 184
Width: 2002
GlyphClass: 2
Flags: W
LayerCount: 2
Fore
SplineSet
747 -202 m 2,0,-1
 670 -200 l 2,1,2
 659 -200 659 -200 653.5 -189 c 128,-1,3
 648 -178 648 -178 653 -167 c 2,4,-1
 713 -24 l 1,5,6
 391.802425256 19.4955049132 391.802425256 19.4955049132 250 172 c 0,7,8
 132 298.905660377 132 298.905660377 132 507 c 0,9,10
 132 1053 132 1053 1001 1053 c 0,11,12
 1090 1053 1090 1053 1157 1048 c 1,13,-1
 1205 1164 l 2,14,15
 1218 1197 1218 1197 1249 1197 c 2,16,-1
 1326 1197 l 2,17,18
 1336 1197 1336 1197 1342 1186 c 128,-1,19
 1348 1175 1348 1175 1343 1164 c 2,20,-1
 1290 1035 l 1,21,22
 1870 953 1870 953 1870 507 c 0,23,24
 1870 63.4130434783 1870 63.4130434783 1335 -18 c 0,25,26
 1183.85714286 -41 1183.85714286 -41 1050.92857143 -41 c 128,-1,27
 918 -41 918 -41 847 -37 c 1,28,-1
 792 -169 l 2,29,30
 778.8 -202 778.8 -202 747 -202 c 2,0,-1
825 248 m 1,31,-1
 1052 795 l 1,32,33
 1028 798 1028 798 1001 798 c 0,34,35
 850 798 850 798 764 718.5 c 128,-1,36
 678 639 678 639 679 507 c 1,37,38
 678 316 678 316 825 248 c 1,31,-1
1001 215 m 0,39,40
 1155 215 1155 215 1239.5 288 c 128,-1,41
 1324 361 1324 361 1324 507 c 0,42,43
 1324 687.535211268 1324 687.535211268 1177 760 c 1,44,-1
 952 217 l 1,45,46
 982 215 982 215 1001 215 c 0,39,40
EndSplineSet
EndChar

StartChar: thorn
Encoding: 254 254 190
Width: 2044
GlyphClass: 2
Flags: W
LayerCount: 2
Fore
SplineSet
728 81 m 0,0,1
 711 81 711 81 711 62 c 2,2,-1
 711 -246 l 2,3,4
 711 -278 711 -278 690.5 -298 c 128,-1,5
 670 -318 670 -318 638 -318 c 2,6,-1
 231 -318 l 2,7,8
 199 -318 199 -318 179.5 -298 c 128,-1,9
 160 -278 160 -278 160 -246 c 2,10,-1
 160 1363 l 2,11,12
 160 1395 160 1395 181 1416.5 c 128,-1,13
 202 1438 202 1438 234 1438 c 2,14,-1
 632 1438 l 2,15,16
 665 1438 665 1438 686.5 1415.5 c 128,-1,17
 708 1393 708 1393 708 1356 c 2,18,-1
 708 975 l 2,19,20
 708 926 708 926 721 926 c 0,21,22
 726 926 726 926 734 931 c 0,23,24
 928 1053 928 1053 1170 1053 c 0,25,26
 1539.568 1053 1539.568 1053 1757.5 862.5 c 0,27,28
 1913 726.573426573 1913 726.573426573 1913 511 c 0,29,30
 1913 185.805405405 1913 185.805405405 1601.5 41 c 0,31,32
 1425.10465116 -41 1425.10465116 -41 1204 -41 c 0,33,34
 905.827586207 -41 905.827586207 -41 739 77 c 0,35,36
 733 81 733 81 728 81 c 0,0,1
796.5 296 m 128,-1,38
 883 213 883 213 1027 213 c 128,-1,39
 1171 213 1171 213 1255 294.5 c 128,-1,40
 1339 376 1339 376 1339 496 c 128,-1,41
 1339 616 1339 616 1255 698.5 c 128,-1,42
 1171 781 1171 781 1025.5 781 c 128,-1,43
 880 781 880 781 795 699.5 c 128,-1,44
 710 618 710 618 710 498.5 c 128,-1,37
 710 379 710 379 796.5 296 c 128,-1,38
EndSplineSet
EndChar

StartChar: dcroat
Encoding: 273 273 209
Width: 2038
GlyphClass: 2
Flags: W
LayerCount: 2
Fore
SplineSet
1317 911 m 1,0,1
 1332 911 1332 911 1332 930 c 2,2,-1
 1332 1130 l 1,3,-1
 1035 1130 l 2,4,5
 978 1130 978 1130 978 1199 c 2,6,-1
 978 1241 l 2,7,8
 978 1310 978 1310 1035 1310 c 2,9,-1
 1332 1310 l 1,10,-1
 1332 1360 l 2,11,12
 1332 1392 1332 1392 1354 1414 c 128,-1,13
 1376 1436 1376 1436 1408 1436 c 2,14,-1
 1803 1436 l 2,15,16
 1835 1436 1835 1436 1856.5 1414 c 128,-1,17
 1878 1392 1878 1392 1878 1360 c 2,18,-1
 1878 1310 l 1,19,-1
 1989 1310 l 2,20,21
 2046 1310 2046 1310 2046 1241 c 2,22,-1
 2046 1199 l 2,23,24
 2046 1130 2046 1130 1989 1130 c 2,25,-1
 1878 1130 l 1,26,-1
 1878 76 l 2,27,28
 1878 43 1878 43 1857.5 21.5 c 128,-1,29
 1837 0 1837 0 1805 0 c 2,30,-1
 1744 0 l 2,31,32
 1673.34482759 0 1673.34482759 0 1633 65 c 0,33,34
 1632 67 1632 67 1592.5 131 c 128,-1,35
 1553 195 1553 195 1548 203 c 128,-1,36
 1543 211 1543 211 1531.5 210.5 c 128,-1,37
 1520 210 1520 210 1511 201 c 1,38,39
 1413 85 1413 85 1239.5 22 c 128,-1,40
 1066 -41 1066 -41 872 -41 c 0,41,42
 504.288 -41 504.288 -41 287.5 148.5 c 0,43,44
 132 284.426573427 132 284.426573427 132 499 c 0,45,46
 132 612 132 612 173 706 c 128,-1,47
 214 800 214 800 282.5 863 c 128,-1,48
 351 926 351 926 443 970 c 0,49,50
 616.545454545 1053 616.545454545 1053 839 1053 c 0,51,52
 977 1053 977 1053 1100 1017.5 c 128,-1,53
 1223 982 1223 982 1306 916 c 0,54,55
 1309 914 1309 914 1317 911 c 1,0,1
787.5 312.5 m 128,-1,57
 871 231 871 231 1016 231 c 128,-1,58
 1161 231 1161 231 1246.5 312.5 c 128,-1,59
 1332 394 1332 394 1332 513 c 128,-1,60
 1332 632 1332 632 1246 713 c 128,-1,61
 1160 794 1160 794 1015.5 794 c 128,-1,62
 871 794 871 794 787.5 713.5 c 128,-1,63
 704 633 704 633 704 513.5 c 128,-1,56
 704 394 704 394 787.5 312.5 c 128,-1,57
EndSplineSet
EndChar

StartChar: Hbar
Encoding: 294 294 230
Width: 2391
GlyphClass: 2
Flags: W
LayerCount: 2
Fore
SplineSet
235 0 m 2,0,1
 203 0 203 0 181 22 c 128,-1,2
 159 44 159 44 159 76 c 2,3,-1
 159 1089 l 1,4,-1
 55 1089 l 2,5,6
 4 1089 4 1089 4 1164 c 2,7,-1
 4 1200 l 2,8,9
 4 1275 4 1275 55 1275 c 2,10,-1
 159 1275 l 1,11,-1
 159 1363 l 2,12,13
 159 1395 159 1395 181 1416.5 c 128,-1,14
 203 1438 203 1438 235 1438 c 2,15,-1
 731 1438 l 2,16,17
 763 1438 763 1438 784.5 1416.5 c 128,-1,18
 806 1395 806 1395 806 1363 c 2,19,-1
 806 1275 l 1,20,-1
 1569 1275 l 1,21,-1
 1569 1363 l 2,22,23
 1569 1395 1569 1395 1591 1416.5 c 128,-1,24
 1613 1438 1613 1438 1645 1438 c 2,25,-1
 2155 1438 l 2,26,27
 2187 1438 2187 1438 2209 1416.5 c 128,-1,28
 2231 1395 2231 1395 2231 1363 c 2,29,-1
 2231 1275 l 1,30,-1
 2330 1275 l 2,31,32
 2382 1275 2382 1275 2382 1200 c 2,33,-1
 2382 1164 l 2,34,35
 2382 1089 2382 1089 2330 1089 c 2,36,-1
 2231 1089 l 1,37,-1
 2231 76 l 2,38,39
 2231 44 2231 44 2209 22 c 128,-1,40
 2187 0 2187 0 2155 0 c 2,41,-1
 1643 0 l 2,42,43
 1611 0 1611 0 1589.5 22 c 128,-1,44
 1568 44 1568 44 1568 76 c 2,45,-1
 1568 537 l 2,46,47
 1568 550 1568 550 1557.5 560.5 c 128,-1,48
 1547 571 1547 571 1534 571 c 2,49,-1
 845 571 l 2,50,51
 832 571 832 571 821.5 561 c 128,-1,52
 811 551 811 551 811 538 c 2,53,-1
 811 76 l 2,54,55
 811 44 811 44 789.5 22 c 128,-1,56
 768 0 768 0 736 0 c 2,57,-1
 235 0 l 2,0,1
840 906 m 2,58,-1
 1538 906 l 1,59,60
 1550 908 1550 908 1559.5 918 c 128,-1,61
 1569 928 1569 928 1569 940 c 2,62,-1
 1569 1089 l 1,63,-1
 806 1089 l 1,64,-1
 806 939 l 2,65,66
 806 926 806 926 816.5 916 c 128,-1,67
 827 906 827 906 840 906 c 2,58,-1
EndSplineSet
EndChar

StartChar: hbar
Encoding: 295 295 231
Width: 2022
GlyphClass: 2
Flags: W
LayerCount: 2
Fore
SplineSet
235 0 m 2,0,1
 203 0 203 0 181 22 c 128,-1,2
 159 44 159 44 159 76 c 2,3,-1
 159 1128 l 1,4,-1
 59 1128 l 2,5,6
 1 1128 1 1128 1 1196 c 2,7,-1
 1 1242 l 2,8,9
 1 1311 1 1311 59 1311 c 2,10,-1
 159 1311 l 1,11,-1
 159 1362 l 2,12,13
 159 1394 159 1394 181 1416 c 128,-1,14
 203 1438 203 1438 235 1438 c 2,15,-1
 633 1438 l 2,16,17
 665 1438 665 1438 687 1416 c 128,-1,18
 709 1394 709 1394 709 1362 c 2,19,-1
 709 1311 l 1,20,-1
 1010 1311 l 2,21,22
 1068 1311 1068 1311 1068 1242 c 2,23,-1
 1068 1196 l 2,24,25
 1068 1128 1068 1128 1010 1128 c 2,26,-1
 709 1128 l 1,27,-1
 709 923 l 2,28,29
 709 912 709 912 718 907.5 c 128,-1,30
 727 903 727 903 736 909 c 0,31,32
 932 1053 932 1053 1213 1053 c 0,33,34
 1483.61068702 1053 1483.61068702 1053 1676 917.5 c 0,35,36
 1769 852 1769 852 1824 748.5 c 128,-1,37
 1879 645 1879 645 1879 518 c 2,38,-1
 1879 76 l 2,39,40
 1879 44 1879 44 1857.5 22 c 128,-1,41
 1836 0 1836 0 1804 0 c 2,42,-1
 1391 0 l 2,43,44
 1359 0 1359 0 1337.5 22 c 128,-1,45
 1316 44 1316 44 1316 76 c 2,46,-1
 1316 513 l 2,47,48
 1316 627 1316 627 1238.5 704 c 128,-1,49
 1161 781 1161 781 1023 781 c 128,-1,50
 885 781 885 781 797 700 c 128,-1,51
 709 619 709 619 709 513 c 2,52,-1
 709 76 l 2,53,54
 709 44 709 44 687 22 c 128,-1,55
 665 0 665 0 633 0 c 2,56,-1
 235 0 l 2,0,1
EndSplineSet
EndChar

StartChar: dotlessi
Encoding: 305 305 241
Width: 856
GlyphClass: 2
Flags: W
AnchorPoint: "Anchor-0" 431 1006 basechar 0
LayerCount: 2
Fore
SplineSet
229 0 m 2,0,1
 197 0 197 0 175 22 c 128,-1,2
 153 44 153 44 153 76 c 2,3,-1
 153 931 l 2,4,5
 153 963 153 963 175 984.5 c 128,-1,6
 197 1006 197 1006 229 1006 c 2,7,-1
 627 1006 l 2,8,9
 659 1006 659 1006 680.5 984.5 c 128,-1,10
 702 963 702 963 702 931 c 2,11,-1
 702 76 l 2,12,13
 702 44 702 44 680.5 22 c 128,-1,14
 659 0 659 0 627 0 c 2,15,-1
 229 0 l 2,0,1
EndSplineSet
EndChar

StartChar: kgreenlandic
Encoding: 312 312 248
Width: 2006
GlyphClass: 2
Flags: W
LayerCount: 2
Fore
SplineSet
1801 1006 m 2,0,1
 1828 1006 1828 1006 1828 982 c 0,2,3
 1828 969 1828 969 1811 958 c 2,4,-1
 1327 613 l 1,5,6
 1315 606 1315 606 1315 592.5 c 128,-1,7
 1315 579 1315 579 1324 570 c 2,8,-1
 1863 56 l 2,9,10
 1875 44 1875 44 1875 31 c 128,-1,11
 1875 18 1875 18 1866 9 c 128,-1,12
 1857 0 1857 0 1843 0 c 2,13,-1
 1336 0 l 2,14,15
 1295.55 0 1295.55 0 1274.275 18.5 c 128,-1,16
 1253 37 1253 37 1231 59 c 2,17,-1
 918 374 l 1,18,19
 904 386 904 386 891 386 c 128,-1,20
 878 386 878 386 871 380 c 128,-1,21
 864 374 864 374 830.5 348.5 c 0,22,23
 742.5625 281.5625 742.5625 281.5625 735 274 c 1,24,25
 709 253 709 253 709 219 c 2,26,-1
 709 76 l 2,27,28
 709 44 709 44 687.5 22 c 128,-1,29
 666 0 666 0 634 0 c 2,30,-1
 236 0 l 2,31,32
 204 0 204 0 182 22 c 128,-1,33
 160 44 160 44 160 76 c 2,34,-1
 160 931 l 2,35,36
 160 963 160 963 182 984.5 c 128,-1,37
 204 1006 204 1006 236 1006 c 2,38,-1
 634 1006 l 2,39,40
 666 1006 666 1006 687.5 984.5 c 128,-1,41
 709 963 709 963 709 931 c 2,42,-1
 709 717 l 2,43,44
 709 699 709 699 727 699 c 0,45,46
 729 699 729 699 737 703 c 1,47,-1
 1097 957 l 2,48,49
 1165 1006 1165 1006 1236 1006 c 2,50,-1
 1801 1006 l 2,0,1
EndSplineSet
EndChar

StartChar: Lslash
Encoding: 321 321 257
Width: 1997
GlyphClass: 2
Flags: W
LayerCount: 2
Fore
SplineSet
235 0 m 2,0,1
 203 0 203 0 181 22 c 128,-1,2
 159 44 159 44 159 76 c 2,3,-1
 159 640 l 1,4,-1
 66 622 l 2,5,6
 62 621 62 621 48 621 c 128,-1,7
 34 621 34 621 17.5 643 c 128,-1,8
 1 665 1 665 1 693 c 2,9,-1
 1 832 l 2,10,11
 1 889.551724138 1 889.551724138 66 903 c 2,12,-1
 159 921 l 1,13,-1
 159 1363 l 2,14,15
 159 1395 159 1395 181 1416.5 c 128,-1,16
 203 1438 203 1438 235 1438 c 2,17,-1
 790 1438 l 2,18,19
 822 1438 822 1438 843.5 1416.5 c 128,-1,20
 865 1395 865 1395 865 1363 c 2,21,-1
 865 1056 l 1,22,-1
 1075 1097 l 2,23,24
 1091.35555556 1101.08888889 1091.35555556 1101.08888889 1116.17777778 1084.04444444 c 128,-1,25
 1141 1067 1141 1067 1141 1028 c 2,26,-1
 1141 885 l 2,27,28
 1141 858 1141 858 1122.5 840 c 128,-1,29
 1104 822 1104 822 1075 816 c 2,30,-1
 865 775 l 1,31,-1
 865 387 l 2,32,33
 865 372 865 372 876 361 c 128,-1,34
 887 350 887 350 902 350 c 2,35,-1
 1798 350 l 2,36,37
 1830 350 1830 350 1852 328 c 128,-1,38
 1874 306 1874 306 1874 274 c 2,39,-1
 1874 76 l 2,40,41
 1874 44 1874 44 1852 22 c 128,-1,42
 1830 0 1830 0 1798 0 c 2,43,-1
 235 0 l 2,0,1
EndSplineSet
EndChar

StartChar: lslash
Encoding: 322 322 258
Width: 931
GlyphClass: 2
Flags: W
LayerCount: 2
Fore
SplineSet
286 0 m 2,0,1
 254 0 254 0 232 22 c 128,-1,2
 210 44 210 44 210 76 c 2,3,-1
 210 671 l 1,4,-1
 82 638 l 2,5,6
 80 638 80 638 74.5 638 c 128,-1,7
 69 638 69 638 61 646 c 0,8,9
 44 663 44 663 44 695 c 2,10,-1
 44 843 l 2,11,12
 44 865 44 865 55 880 c 128,-1,13
 66 895 66 895 82 898 c 1,14,-1
 210 931 l 1,15,-1
 210 1369 l 2,16,17
 210 1401 210 1401 232 1422.5 c 128,-1,18
 254 1444 254 1444 286 1444 c 2,19,-1
 684 1444 l 2,20,21
 716 1444 716 1444 737.5 1422.5 c 128,-1,22
 759 1401 759 1401 759 1369 c 2,23,-1
 759 1068 l 1,24,-1
 900 1104 l 1,25,26
 917 1104 917 1104 928.5 1090 c 128,-1,27
 940 1076 940 1076 940 1056 c 2,28,-1
 940 896 l 2,29,30
 940 874 940 874 928.5 859 c 128,-1,31
 917 844 917 844 900 844 c 1,32,-1
 759 808 l 1,33,-1
 759 76 l 2,34,35
 759 44 759 44 737.5 22 c 128,-1,36
 716 0 716 0 684 0 c 2,37,-1
 286 0 l 2,0,1
EndSplineSet
EndChar

StartChar: Eng
Encoding: 330 330 266
Width: 2542
GlyphClass: 2
Flags: W
LayerCount: 2
Fore
SplineSet
1414 -725 m 0,0,1
 1400 -725 1400 -725 1389 -713 c 128,-1,2
 1378 -701 1378 -701 1378 -685 c 2,3,-1
 1378 -401 l 2,4,5
 1378 -383 1378 -383 1388.5 -371.5 c 128,-1,6
 1399 -360 1399 -360 1414 -360 c 0,7,8
 1602.88641304 -354.158152174 1602.88641304 -354.158152174 1694.5 -282.5 c 0,9,10
 1793.01556731 -205.443269135 1793.01556731 -205.443269135 1795 -7 c 1,11,-1
 1795 28 l 1,12,13
 1698.01877934 117.521126761 1698.01877934 117.521126761 1264.00938967 488.76056338 c 128,-1,14
 830 860 830 860 783 901 c 0,15,16
 776 907 776 907 766.5 902.5 c 128,-1,17
 757 898 757 898 757 888 c 2,18,-1
 757 76 l 2,19,20
 757 44 757 44 735 22 c 128,-1,21
 713 0 713 0 681 0 c 2,22,-1
 235 0 l 2,23,24
 203 0 203 0 181 22 c 128,-1,25
 159 44 159 44 159 76 c 2,26,-1
 159 1376 l 2,27,28
 159 1408 159 1408 181 1430 c 128,-1,29
 203 1452 203 1452 235 1452 c 2,30,-1
 931 1452 l 2,31,32
 999 1452 999 1452 1054 1406 c 1,33,-1
 1769 774 l 2,34,35
 1776 768 1776 768 1785 772.5 c 128,-1,36
 1794 777 1794 777 1794 787 c 2,37,-1
 1794 1361 l 2,38,39
 1794 1393 1794 1393 1816 1414.5 c 128,-1,40
 1838 1436 1838 1436 1870 1436 c 2,41,-1
 2307 1436 l 2,42,43
 2339 1436 2339 1436 2360.5 1414.5 c 128,-1,44
 2382 1393 2382 1393 2382 1361 c 2,45,-1
 2382 27 l 2,46,47
 2382 -562.512315271 2382 -562.512315271 1821.5 -684 c 0,48,49
 1641.54996883 -723.003947642 1641.54996883 -723.003947642 1414 -725 c 0,0,1
EndSplineSet
EndChar

StartChar: eng
Encoding: 331 331 267
Width: 2027
GlyphClass: 2
Flags: W
LayerCount: 2
Fore
SplineSet
985 -139 m 1,0,-1
 1111 -146 l 1,1,2
 1331 -146 1331 -146 1331 14 c 2,3,-1
 1331 513 l 2,4,5
 1331 625 1331 625 1248 703 c 128,-1,6
 1165 781 1165 781 1026 781 c 128,-1,7
 887 781 887 781 794.5 699.5 c 128,-1,8
 702 618 702 618 702 513 c 2,9,-1
 702 76 l 2,10,11
 702 44 702 44 680.5 22 c 128,-1,12
 659 0 659 0 627 0 c 2,13,-1
 229 0 l 2,14,15
 197 0 197 0 175 22 c 128,-1,16
 153 44 153 44 153 76 c 2,17,-1
 153 929 l 2,18,19
 153 962 153 962 174 984 c 128,-1,20
 195 1006 195 1006 227 1006 c 2,21,-1
 324 1006 l 2,22,23
 401 1006 401 1006 438 942 c 1,24,-1
 516 814 l 2,25,26
 524 801 524 801 536 801 c 128,-1,27
 548 801 548 801 557 812 c 0,28,29
 651 929 651 929 813.5 991 c 128,-1,30
 976 1053 976 1053 1150 1053 c 128,-1,31
 1324 1053 1324 1053 1455.5 1020 c 128,-1,32
 1587 987 1587 987 1682.5 922 c 0,33,34
 1882 786.214659686 1882 786.214659686 1882 518 c 0,35,36
 1882 89 1882 89 1881 4 c 128,-1,37
 1880 -81 1880 -81 1850.5 -155 c 128,-1,38
 1821 -229 1821 -229 1771 -278.5 c 128,-1,39
 1721 -328 1721 -328 1649 -363 c 0,40,41
 1509.83441982 -430.649934811 1509.83441982 -430.649934811 1279 -444.5 c 0,42,43
 1254 -446 1254 -446 1188 -446 c 128,-1,44
 1122 -446 1122 -446 995 -429 c 0,45,46
 963 -425 963 -425 942 -401 c 128,-1,47
 921 -377 921 -377 921 -344 c 2,48,-1
 921 -206 l 2,49,50
 921 -177 921 -177 939.5 -158 c 128,-1,51
 958 -139 958 -139 985 -139 c 1,0,-1
EndSplineSet
EndChar

StartChar: OE
Encoding: 338 338 274
Width: 3527
GlyphClass: 2
Flags: W
LayerCount: 2
Fore
SplineSet
2257 0 m 1,0,-1
 1563 -1 l 1,1,-1
 1421 -1 l 2,2,3
 807.539473684 -1 807.539473684 -1 495.5 154 c 0,4,5
 132 334.562091503 132 334.562091503 132 722 c 0,6,7
 132 1057.8238342 132 1057.8238342 445.5 1243 c 0,8,9
 775.631578947 1438 775.631578947 1438 1350 1438 c 2,10,-1
 3244 1438 l 2,11,12
 3275 1438 3275 1438 3297 1415.5 c 128,-1,13
 3319 1393 3319 1393 3319 1361 c 2,14,-1
 3319 1166 l 2,15,16
 3319 1134 3319 1134 3297.5 1111.5 c 128,-1,17
 3276 1089 3276 1089 3244 1089 c 2,18,-1
 2337 1089 l 2,19,20
 2322 1089 2322 1089 2311.5 1078.5 c 128,-1,21
 2301 1068 2301 1068 2301 1053 c 2,22,-1
 2301 908 l 2,23,24
 2301 895 2301 895 2311.5 883.5 c 128,-1,25
 2322 872 2322 872 2335 872 c 2,26,-1
 3065 872 l 2,27,28
 3097 872 3097 872 3119 849.5 c 128,-1,29
 3141 827 3141 827 3141 795 c 2,30,-1
 3141 668 l 2,31,32
 3141 636 3141 636 3119 613.5 c 128,-1,33
 3097 591 3097 591 3065 591 c 2,34,-1
 2336 591 l 2,35,36
 2323 591 2323 591 2312 580.5 c 128,-1,37
 2301 570 2301 570 2301 557 c 2,38,-1
 2301 379 l 2,39,40
 2301 366 2301 366 2311.5 355.5 c 128,-1,41
 2322 345 2322 345 2335 345 c 2,42,-1
 3309 345 l 2,43,44
 3341 345 3341 345 3363 322.5 c 128,-1,45
 3385 300 3385 300 3385 268 c 2,46,-1
 3385 77 l 2,47,48
 3385 45 3385 45 3363 22.5 c 128,-1,49
 3341 0 3341 0 3309 0 c 2,50,-1
 2257 0 l 1,0,-1
1374 345 m 2,51,-1
 1562 345 l 2,52,53
 1575 345 1575 345 1585.5 355.5 c 128,-1,54
 1596 366 1596 366 1596 379 c 2,55,-1
 1596 1062 l 2,56,57
 1596 1075 1596 1075 1585 1085.5 c 128,-1,58
 1574 1096 1574 1096 1561 1096 c 2,59,-1
 1375 1096 l 2,60,61
 1015.95945946 1096 1015.95945946 1096 929 901 c 0,62,63
 896 827 896 827 896 731 c 128,-1,64
 896 635 896 635 919.5 569 c 128,-1,65
 943 503 943 503 984 461 c 128,-1,66
 1025 419 1025 419 1086.5 392.5 c 0,67,68
 1196.73584906 345 1196.73584906 345 1374 345 c 2,51,-1
EndSplineSet
EndChar

